<svg width="96" height="96" viewBox="0 0 96 96" fill="none" xmlns="http://www.w3.org/2000/svg">
<path d="M91.9774 19.9753C91.9674 20.2552 91.9274 20.5352 91.8474 20.8151C91.7874 21.005 91.7875 21.2149 91.7675 21.4148C91.7575 21.5648 91.7475 21.7048 91.6575 21.8347C91.6075 21.9047 91.5874 22.0046 91.5774 22.1046C91.5474 22.3145 91.5575 22.5345 91.4075 22.7144C91.3775 22.7544 91.3775 22.8144 91.3775 22.8743C91.3675 23.0543 91.3274 23.2242 91.2274 23.3742C91.2174 23.3942 91.1975 23.4241 91.1975 23.4441C91.1975 23.734 90.9575 23.9439 90.9175 24.2238C90.8875 24.4038 90.7374 24.5437 90.7074 24.7337C90.6774 24.8936 90.5675 25.0536 90.4874 25.1835C90.2775 25.5234 90.1275 25.8833 89.9175 26.2231C89.8375 26.3531 89.7075 26.4331 89.6575 26.603C89.6075 26.753 89.4975 26.8929 89.3675 27.0129C89.2575 27.1229 89.2174 27.2828 89.1074 27.4127C88.8474 27.7026 88.5974 28.0125 88.3574 28.3224C88.0674 28.7123 87.6775 29.0122 87.3675 29.3821C87.1975 29.582 86.9675 29.7219 86.7675 29.8919C86.5475 30.0718 86.2975 30.2118 86.1175 30.4417C86.0875 30.4817 86.0275 30.4917 85.9874 30.5217C85.7475 30.6916 85.5175 30.8615 85.2775 31.0215C85.1075 31.1415 84.9275 31.2514 84.7374 31.3513C84.6174 31.4113 84.4975 31.4813 84.3975 31.5613C84.2075 31.7112 83.9675 31.7612 83.7975 31.9311C83.7775 31.9511 83.7474 31.9612 83.7274 31.9612C83.4874 31.9612 83.3374 32.1811 83.1074 32.2011C82.9274 32.441 82.5675 32.361 82.3675 32.5709C82.0775 32.5809 81.8575 32.8108 81.5675 32.8108C81.5175 32.8108 81.4475 32.8208 81.4175 32.8608C81.2875 33.0407 81.0875 33.0107 80.9075 33.0407C80.6175 33.0807 80.5175 33.2007 80.5075 33.4906C80.5075 33.6205 80.5075 33.7605 80.5075 33.8905C80.5075 46.8559 80.5075 59.8213 80.5075 72.7868C80.5075 73.2166 80.5074 73.6464 80.4874 74.0763C80.4774 74.3062 80.4675 74.5362 80.4175 74.7561C80.3375 75.126 80.3075 75.5058 80.2975 75.8757C80.2875 76.0856 80.2875 76.2956 80.1775 76.5055C80.1175 76.6154 80.1275 76.7654 80.1175 76.9053C80.0975 77.1152 80.0975 77.3351 79.9475 77.5151C79.9275 77.5351 79.9175 77.5651 79.9175 77.5851C79.9075 77.9149 79.7975 78.2048 79.6875 78.5147C79.6275 78.6847 79.6375 78.8846 79.5175 79.0446C79.4775 79.1045 79.4874 79.2045 79.4774 79.2845C79.4674 79.3944 79.4474 79.4944 79.3474 79.5743C79.3174 79.5943 79.2875 79.6444 79.2875 79.6744C79.2875 79.9443 79.1175 80.1442 79.0375 80.3941C78.9675 80.634 78.8474 80.8539 78.7274 81.0738C78.6774 81.1638 78.6474 81.2738 78.5974 81.3638C78.5474 81.4537 78.4875 81.5437 78.4375 81.6336C78.3475 81.8236 78.2975 82.0435 78.1675 82.2034C77.9575 82.4633 77.8675 82.7832 77.6475 83.0332C77.6275 83.2631 77.4075 83.3631 77.3175 83.563C77.2375 83.7529 77.0874 83.9128 76.9574 84.0828C76.8174 84.2727 76.6775 84.4626 76.5375 84.6526C76.3975 84.8325 76.2374 85.0125 76.0874 85.1924C75.9374 85.3824 75.8075 85.5823 75.6475 85.7522C75.3675 86.0521 75.0775 86.352 74.7675 86.6319C74.6275 86.7518 74.5075 86.8918 74.3875 87.0217C74.2475 87.1617 74.0875 87.2816 73.9175 87.3916C73.7675 87.4916 73.6475 87.6316 73.4975 87.7415C73.3075 87.8815 73.1274 88.0314 72.9574 88.1814C72.7474 88.3613 72.4775 88.4513 72.3075 88.6812C72.2975 88.7012 72.2574 88.7112 72.2374 88.7212C72.0774 88.7312 71.9975 88.8711 71.8775 88.9411C71.7375 89.0311 71.6175 89.181 71.4275 89.181C71.1975 89.4209 70.8374 89.4709 70.6074 89.7108C70.5774 89.7408 70.5475 89.7608 70.5075 89.7708C70.2475 89.8607 69.9975 89.9807 69.7675 90.1406C69.7175 90.1806 69.6374 90.1906 69.5774 90.2006C69.4774 90.2106 69.3974 90.2506 69.3274 90.3206C69.2874 90.3606 69.2375 90.4006 69.1975 90.4106C68.9375 90.4206 68.7574 90.6605 68.4774 90.6505C68.4374 90.6505 68.3874 90.7005 68.3374 90.7305C68.2574 90.7704 68.1674 90.8204 68.0774 90.8404C67.9374 90.8704 67.7875 90.8804 67.6775 90.9904C67.6275 91.0404 67.5275 91.0404 67.4475 91.0604C67.3175 91.0903 67.1774 91.1003 67.0774 91.2003C67.0574 91.2203 67.0275 91.2403 67.0075 91.2403C66.6375 91.2303 66.3174 91.4402 65.9574 91.4702C65.7874 91.4802 65.6174 91.5102 65.4574 91.6102C65.3774 91.6601 65.2575 91.6701 65.1475 91.6801C64.7875 91.7001 64.4274 91.7101 64.0774 91.8401C63.9174 91.9 63.7275 91.89 63.5575 91.9C62.3575 91.95 61.1574 91.94 59.9574 91.9C59.6974 91.89 59.4474 91.86 59.2074 91.7701C59.0574 91.7201 58.8874 91.7101 58.7274 91.7001C58.4374 91.6801 58.1375 91.7001 57.8675 91.5302C57.7875 91.4802 57.6575 91.4902 57.5475 91.4702C57.3875 91.4502 57.2174 91.4602 57.0874 91.3402C57.0674 91.3202 57.0375 91.3103 57.0175 91.3103C56.6575 91.3303 56.3575 91.1103 56.0075 91.0604C55.9175 91.0504 55.8375 90.9903 55.7475 90.9604C55.6575 90.9304 55.5774 90.8904 55.4874 90.8704C55.3675 90.8404 55.2475 90.8304 55.1575 90.7305C55.1375 90.7005 55.0875 90.6805 55.0475 90.6805C54.7775 90.6905 54.5874 90.4806 54.3374 90.4406C54.2774 90.4306 54.2175 90.3806 54.1675 90.3406C54.1375 90.3206 54.1174 90.2706 54.0774 90.2606C53.7774 90.1906 53.5175 90.0407 53.2675 89.8708C53.2275 89.8408 53.1675 89.8307 53.1175 89.8307C53.0175 89.8208 52.9375 89.8008 52.8875 89.6908C52.8775 89.6609 52.8275 89.6309 52.7975 89.6209C52.4475 89.4809 52.1175 89.291 51.8175 89.0511C51.5875 89.0111 51.4275 88.8311 51.2575 88.7011C51.0875 88.5712 50.8774 88.5112 50.7274 88.3513C50.4874 88.0914 50.1475 87.9414 49.8975 87.7015C49.6475 87.4616 49.3775 87.2317 49.1275 86.9918C48.7375 86.6219 48.3574 86.242 47.9874 85.8622C47.7775 85.6523 47.5775 85.4323 47.3875 85.2124C47.1975 84.9825 47.0274 84.7226 46.8474 84.4827C46.7574 84.3727 46.6674 84.2627 46.5774 84.1528C46.5474 84.1228 46.4975 84.1028 46.4975 84.0728C46.4175 83.7429 46.0675 83.563 46.0075 83.2231C45.7375 83.0332 45.6974 82.6733 45.4774 82.4533C45.4374 82.2134 45.1975 82.0635 45.1575 81.8236C45.1375 81.7236 45.0575 81.6437 45.0075 81.5537C44.9575 81.4637 44.9074 81.3637 44.8574 81.2738C44.8474 81.2538 44.8175 81.2338 44.8175 81.2038C44.7875 81.0338 44.6875 80.8939 44.6175 80.744C44.5475 80.594 44.4475 80.4241 44.4175 80.2741C44.3675 80.0242 44.2175 79.8143 44.1675 79.5644C44.1475 79.4744 44.1175 79.3845 44.0675 79.3045C43.9975 79.1945 43.9675 79.0845 43.9475 78.9646C43.8975 78.7747 43.8175 78.5847 43.7675 78.3948C43.7175 78.2148 43.7375 78.0249 43.6275 77.855C43.5675 77.745 43.5675 77.5951 43.5575 77.4651C43.5475 77.3052 43.5075 77.1552 43.4475 76.9953C43.3875 76.8354 43.3674 76.6554 43.3474 76.4855C43.3174 76.2156 43.3174 75.9557 43.2074 75.6958C43.1374 75.5458 43.1575 75.3559 43.1475 75.1759C43.1275 74.3762 43.0974 73.5865 43.0974 72.7868C43.0974 56.1126 43.0974 39.4485 43.0974 22.7744C43.0974 22.4245 43.0874 22.0746 43.0774 21.7247C43.0674 21.5548 43.0375 21.3749 43.0175 21.2049C42.9875 20.935 42.9575 20.6751 42.9275 20.4052C42.9075 20.1753 42.9275 19.9454 42.7875 19.7454C42.7575 19.6954 42.7575 19.6155 42.7475 19.5455C42.7175 19.3156 42.7275 19.0857 42.5575 18.8958C42.5175 18.8558 42.5275 18.7658 42.5175 18.7058C42.4975 18.5859 42.4975 18.4659 42.3975 18.3659C42.3575 18.3359 42.3274 18.2659 42.3274 18.2259C42.3274 17.956 42.1074 17.7761 42.0774 17.5162C42.0674 17.4263 41.9475 17.3563 41.9075 17.2663C41.8575 17.1464 41.8674 16.9964 41.7274 16.9264C41.5874 16.5066 41.3075 16.1767 41.0475 15.8268C40.7975 15.477 40.5274 15.1271 40.2274 14.8172C40.0074 14.5973 39.7975 14.3473 39.5475 14.1674C39.2475 13.9575 38.9675 13.7275 38.6875 13.4876C38.3575 13.3877 38.1175 13.1078 37.7875 12.9978C37.6475 12.9478 37.5075 12.8478 37.3675 12.7679C37.1975 12.6779 37.0474 12.588 36.8474 12.578C36.6474 12.388 36.3475 12.418 36.1275 12.2581C36.0475 12.1981 35.9275 12.1981 35.8175 12.1881C35.6575 12.1681 35.5074 12.1381 35.3574 12.0581C35.2574 12.0082 35.1275 11.9882 35.0075 11.9782C34.7975 11.9582 34.5774 11.9582 34.3574 11.9382C34.1974 11.9282 34.0375 11.9282 33.8875 11.8582C33.8075 11.8182 33.7074 11.8182 33.6074 11.8182C33.1874 11.8182 32.7775 11.7882 32.3675 11.9082C32.1175 11.9782 31.8275 11.9582 31.5675 11.9682C31.3375 11.9782 31.1075 11.9682 30.9075 12.1181C30.8875 12.1381 30.8574 12.1381 30.8274 12.1481C30.6674 12.1681 30.5074 12.1781 30.3474 12.2181C30.1974 12.2581 30.0575 12.3481 29.9075 12.388C29.7775 12.428 29.6375 12.428 29.5375 12.538C29.5175 12.568 29.4675 12.578 29.4275 12.5879C29.0875 12.6379 28.8175 12.8179 28.5175 12.9678C28.2775 13.0878 28.0674 13.2377 27.8374 13.3577C27.5974 13.4777 27.4075 13.6476 27.1875 13.7875C26.7275 14.0774 26.3574 14.4573 25.9674 14.8272C25.7174 15.0671 25.4975 15.337 25.2475 15.5769C25.0475 15.7669 24.9375 16.0268 24.7775 16.2567C24.5575 16.5566 24.3975 16.8865 24.1975 17.1963C24.1675 17.4662 23.9075 17.6462 23.8875 17.9161C23.6775 18.146 23.7475 18.4859 23.5475 18.7158C23.5075 18.7558 23.5275 18.8457 23.5175 18.9157C23.5075 18.9957 23.5174 19.0956 23.4774 19.1556C23.2974 19.3855 23.3075 19.6655 23.2675 19.9254C23.2575 19.9753 23.2675 20.0354 23.2375 20.0853C23.0975 20.3353 23.1074 20.6051 23.1074 20.875C23.0874 21.4049 23.0774 21.9247 23.0774 22.4545C23.0774 35.37 23.0774 48.2754 23.0774 61.1909C23.0774 61.3108 23.0674 61.4308 23.0874 61.5507C23.1074 61.7307 23.2175 61.8506 23.3975 61.8706C23.5875 61.8906 23.7675 61.9206 23.9175 62.0506C23.9675 62.0905 24.0374 62.0905 24.1074 62.1105C24.2074 62.1305 24.3175 62.1405 24.3975 62.2205C24.4475 62.2705 24.5375 62.2905 24.6175 62.3005C24.7275 62.3105 24.8275 62.3504 24.9075 62.4204C24.9475 62.4504 24.9975 62.4904 25.0475 62.5004C25.1875 62.5404 25.3175 62.5604 25.4375 62.6803C25.5375 62.7703 25.7275 62.7503 25.8175 62.8902C25.8275 62.9102 25.8675 62.9202 25.8875 62.9202C26.2775 62.9902 26.5575 63.2701 26.8875 63.47C27.0075 63.54 27.1375 63.63 27.2675 63.68C27.4675 63.76 27.5575 63.9699 27.7775 64.0398C27.9875 64.1098 28.1375 64.2998 28.3075 64.4397C28.4675 64.5797 28.6575 64.6896 28.8075 64.8295C29.1275 65.1294 29.4775 65.4194 29.7675 65.7493C29.8475 65.8392 29.9175 65.9192 30.0075 65.9892C30.3275 66.2691 30.5574 66.629 30.8274 66.9388C31.0674 67.2087 31.2674 67.5186 31.4774 67.8185C31.6574 68.0784 31.7975 68.3583 32.0075 68.5982C32.1175 68.7182 32.0875 68.9181 32.2475 68.9981C32.2675 69.238 32.4775 69.378 32.5475 69.5979C32.6075 69.7778 32.7175 69.9577 32.8075 70.1377C32.8575 70.2276 32.9075 70.3176 32.9275 70.4276C32.9375 70.4776 32.9374 70.5575 32.9674 70.5775C33.1274 70.6975 33.1475 70.8674 33.1675 71.0474C33.3775 71.2973 33.3075 71.6472 33.4975 71.9071C33.5375 71.967 33.5475 72.057 33.5475 72.137C33.5575 72.2869 33.5975 72.4169 33.6775 72.5469C33.7475 72.6568 33.7475 72.7968 33.7675 72.9367C33.7975 73.1067 33.7975 73.2766 33.8875 73.4466C33.9475 73.5765 33.9474 73.7365 33.9574 73.8764C33.9774 74.2163 33.9774 74.5462 34.0974 74.8761C34.1474 75.026 34.1475 75.1959 34.1475 75.3559C34.1575 76.0156 34.1575 76.6754 34.1575 77.3352C34.1575 77.675 34.1175 78.0049 34.0175 78.3348C33.9575 78.5247 33.9774 78.7347 33.9574 78.9346C33.9374 79.1346 33.9574 79.3344 33.8374 79.5144C33.7974 79.5644 33.7975 79.6443 33.7875 79.7143C33.7575 79.9642 33.7574 80.2242 33.5874 80.4441C33.5474 80.4941 33.5575 80.574 33.5475 80.644C33.5375 80.8039 33.5075 80.9639 33.4075 81.1038C33.3675 81.1538 33.3574 81.2238 33.3374 81.2938C33.2974 81.4437 33.3075 81.6137 33.1775 81.7436C33.1475 81.7736 33.1475 81.8436 33.1375 81.8935C33.1175 82.0135 33.1075 82.1335 32.9975 82.2134C32.9575 82.2434 32.9275 82.3034 32.9175 82.3534C32.8875 82.5133 32.8275 82.6533 32.7375 82.7933C32.6575 82.9232 32.6475 83.1031 32.5175 83.2131C32.5275 83.453 32.3275 83.583 32.2375 83.7729C32.1575 83.9628 32.0375 84.1427 31.9275 84.3227C31.8175 84.5026 31.7174 84.6926 31.5874 84.8525C31.4574 85.0225 31.3875 85.2224 31.2475 85.3823C31.0175 85.6422 30.8275 85.9222 30.6175 86.1921C30.4275 86.422 30.2275 86.6419 30.0275 86.8618C29.8275 87.0817 29.6375 87.3016 29.4275 87.5116C29.2075 87.7315 28.9975 87.9514 28.7475 88.1313C28.5275 88.2913 28.3675 88.5212 28.1275 88.6512C28.0575 88.8211 27.8575 88.8111 27.7375 88.9211C27.6375 89.0211 27.5375 89.131 27.4175 89.211C27.2875 89.3009 27.1475 89.3709 27.0075 89.4609C26.7375 89.6208 26.4774 89.7908 26.2074 89.9607C26.1774 89.9807 26.1475 90.0307 26.1175 90.0407C25.9475 90.0807 25.8175 90.2106 25.6575 90.2606C25.5175 90.3106 25.4075 90.3806 25.2875 90.4705C25.1875 90.5505 25.0275 90.5005 24.9275 90.6305C24.8875 90.6804 24.7774 90.6805 24.7074 90.7104C24.6374 90.7404 24.5675 90.7705 24.4975 90.8004C24.4075 90.8404 24.3275 90.8904 24.2375 90.9104C24.1075 90.9404 23.9775 90.9603 23.8775 91.0703C23.8375 91.1103 23.7575 91.1103 23.6875 91.1303C23.5975 91.1603 23.4975 91.1603 23.4175 91.2203C23.2775 91.3202 23.1174 91.3203 22.9574 91.3602C22.7874 91.3902 22.6374 91.4802 22.4674 91.5202C22.3074 91.5601 22.1275 91.5402 21.9975 91.6102C21.7775 91.7501 21.5375 91.7401 21.2975 91.7701C21.1475 91.7801 20.9975 91.8001 20.8675 91.8501C20.6375 91.93 20.3975 91.96 20.1575 91.97C19.0775 92.01 17.9975 92.01 16.9275 91.97C16.6875 91.96 16.4474 91.92 16.2174 91.8501C16.0374 91.8001 15.8475 91.7901 15.6675 91.7701C15.4875 91.7501 15.2875 91.7801 15.1375 91.6301C15.1275 91.6201 15.1174 91.6102 15.0974 91.6102C14.7374 91.5802 14.3975 91.4302 14.0475 91.3602C13.9175 91.3303 13.7875 91.3203 13.6775 91.2303C13.6075 91.1803 13.4975 91.1703 13.4175 91.1403C13.3275 91.1103 13.2475 91.0703 13.1575 91.0403C13.0875 91.0104 13.0175 90.9604 12.9375 90.9504C12.8175 90.9204 12.6975 90.9104 12.6175 90.8004C12.5875 90.7605 12.5274 90.7505 12.4774 90.7405C12.1974 90.6805 11.9774 90.5305 11.7274 90.3905C11.5474 90.2906 11.3475 90.2007 11.1575 90.1207C10.9875 90.0507 10.8675 89.8807 10.6675 89.8807C10.4775 89.6508 10.1974 89.5609 9.95742 89.4009C9.83742 89.3209 9.73746 89.211 9.61746 89.141C9.33746 88.991 9.11746 88.7611 8.86746 88.5812C8.53746 88.3413 8.23752 88.0714 7.93752 87.7915C7.61752 87.4916 7.31748 87.1617 7.01748 86.8318C6.85748 86.6519 6.70752 86.462 6.55752 86.282C6.41752 86.1121 6.23749 85.9722 6.1575 85.7522C5.93749 85.6223 5.88745 85.3724 5.73745 85.1824C5.59745 85.0025 5.47745 84.8125 5.35745 84.6326C5.09745 84.2327 4.8875 83.8229 4.6675 83.403C4.5275 83.1231 4.41747 82.8232 4.25747 82.5533C4.10747 82.2934 4.11749 81.9835 3.89749 81.7636C3.87749 81.4637 3.69748 81.2238 3.63748 80.9339C3.56748 80.594 3.42749 80.2741 3.39749 79.9243C3.23749 79.7443 3.26745 79.5244 3.23745 79.3145C3.21745 79.1246 3.16747 78.9446 3.12747 78.7646C3.09747 78.5947 3.0475 78.4248 3.0375 78.2549C2.9875 77.0953 2.9875 75.9356 3.0375 74.7761C3.0375 74.7461 3.0375 74.7261 3.0375 74.6961C3.1175 74.2363 3.24748 73.7764 3.26748 73.3066C3.41748 73.0867 3.41742 72.8267 3.45742 72.5768C3.46742 72.5168 3.48748 72.4469 3.51748 72.3869C3.60748 72.2569 3.6275 72.117 3.6575 71.967C3.6775 71.8471 3.72747 71.7372 3.75747 71.6272C3.78747 71.5372 3.80744 71.4472 3.84744 71.3573C3.87744 71.2673 3.91742 71.1873 3.95742 71.1074C3.97742 71.0574 4.0375 71.0174 4.0375 70.9674C4.0375 70.6875 4.26752 70.4876 4.30752 70.2177C4.32752 70.1077 4.42742 70.0177 4.45742 69.9078C4.49742 69.7878 4.53748 69.6979 4.63748 69.6079C4.74748 69.4979 4.70745 69.298 4.85745 69.1981C5.14745 68.5683 5.54753 68.0184 5.94753 67.4586C6.04753 67.3187 6.14745 67.1887 6.23745 67.0488C6.32745 66.9088 6.45742 66.7789 6.57742 66.6589C6.81742 66.429 7.00748 66.1391 7.26748 65.9192C7.51748 65.7093 7.67744 65.4094 7.97744 65.2594C8.18744 64.9795 8.49745 64.7896 8.73745 64.5397C8.85745 64.4197 9.02749 64.3797 9.1575 64.2498C9.29749 64.1098 9.46746 64.0098 9.61746 63.8899C9.72746 63.7999 9.89744 63.7999 9.97744 63.66C10.3174 63.54 10.5575 63.2501 10.8975 63.1401C10.9575 63.0102 11.0974 63.0302 11.2074 62.9802C11.3474 62.9202 11.4875 62.8303 11.6175 62.7603C11.7275 62.7003 11.8474 62.6203 11.9674 62.5903C12.0874 62.5504 12.1775 62.5004 12.2875 62.4304C12.3875 62.3704 12.5375 62.3904 12.6275 62.3304C12.7775 62.2305 12.9375 62.1805 13.1175 62.1605C13.1675 62.1505 13.2275 62.1305 13.2575 62.0905C13.3575 61.9706 13.4875 61.9606 13.6275 61.9506C13.8175 61.9506 13.9574 61.8506 14.0874 61.6707V61.1809C14.0874 48.3354 14.0874 35.4899 14.0874 22.6444C14.0874 21.9847 14.0975 21.3249 14.1175 20.6651C14.1175 20.5051 14.1775 20.3552 14.1975 20.1953C14.2275 19.9954 14.2575 19.7954 14.2675 19.5955C14.2975 19.2756 14.2675 18.9557 14.4475 18.6558C14.5075 18.5658 14.4875 18.4159 14.4975 18.2959C14.5075 18.096 14.5175 17.8961 14.6275 17.7162C14.6375 17.6962 14.6575 17.6662 14.6575 17.6462C14.6775 17.2663 14.8675 16.9264 14.9075 16.5566C14.9075 16.5466 14.9075 16.5266 14.9175 16.5166C15.0775 16.2467 15.1374 15.9468 15.2274 15.6669C15.2374 15.6269 15.2875 15.6069 15.2875 15.5669C15.3075 15.377 15.4075 15.217 15.4875 15.0471C15.5675 14.8971 15.5275 14.7072 15.6875 14.5773C15.8075 14.4673 15.7475 14.2374 15.9075 14.1274C15.9375 13.9375 16.0275 13.7775 16.1275 13.6276C16.2275 13.4776 16.2975 13.2977 16.3775 13.1378C16.4575 12.9878 16.5375 12.8279 16.6275 12.6879C16.8575 12.328 17.0574 11.9382 17.3374 11.6083C17.3974 11.3684 17.5974 11.2284 17.7174 11.0285C17.8374 10.8386 17.9474 10.6287 18.0974 10.4787C18.3974 10.1688 18.6675 9.82892 18.9475 9.49904C19.5675 8.78929 20.1575 8.21949 20.8175 7.68968C20.9275 7.59971 21.0375 7.50973 21.1375 7.39977C21.2675 7.24982 21.4074 7.11988 21.5974 7.03991C21.7074 6.98993 21.8275 6.91996 21.8775 6.83C21.9775 6.66006 22.1775 6.63005 22.3075 6.50009C22.4275 6.38014 22.6175 6.35016 22.7375 6.2302C22.9775 6.00028 23.2975 5.90032 23.5575 5.70039C23.6875 5.59043 23.8475 5.52045 23.9975 5.45048C24.1075 5.40049 24.2375 5.39049 24.2975 5.26054C24.3075 5.24055 24.3375 5.23054 24.3675 5.22055C24.5075 5.18056 24.6475 5.17055 24.7575 5.05059C24.8475 4.95063 25.0375 4.98064 25.1375 4.85068C25.1675 4.8107 25.2574 4.8107 25.3274 4.7907C25.4174 4.77071 25.5175 4.77071 25.5675 4.66075C25.5775 4.63076 25.6275 4.59076 25.6575 4.59076C25.9175 4.58077 26.1175 4.38085 26.3775 4.35086C26.4575 4.34086 26.5274 4.29087 26.5974 4.25089C26.6374 4.23089 26.6675 4.19091 26.6975 4.19091C26.9575 4.18091 27.1775 4.05095 27.4075 3.96098C27.5675 3.901 27.7575 3.92101 27.8975 3.79106C27.9075 3.78106 27.9175 3.78105 27.9375 3.78105C28.3575 3.79105 28.7275 3.52113 29.1475 3.52113C29.2275 3.52113 29.3175 3.52115 29.3875 3.48117C29.6175 3.33122 29.8775 3.35121 30.1275 3.32122C30.2975 3.30123 30.4875 3.30121 30.6475 3.24123C30.9075 3.14127 31.1675 3.12128 31.4375 3.12128C32.6375 3.12128 33.8375 3.12128 35.0375 3.12128C35.2975 3.12128 35.5375 3.15128 35.7875 3.23126C35.9975 3.30123 36.2374 3.30124 36.4674 3.33123C36.6574 3.35122 36.8375 3.36119 37.0075 3.46116C37.1075 3.52113 37.2374 3.52115 37.3574 3.54114C37.5474 3.57113 37.7375 3.56114 37.8875 3.70109C37.9075 3.72108 37.9374 3.73108 37.9574 3.73108C38.2874 3.70109 38.5675 3.91102 38.8875 3.951C38.9375 3.961 39.0075 3.96098 39.0375 3.99097C39.2075 4.15091 39.4175 4.18091 39.6375 4.19091C39.8275 4.41083 40.1474 4.33085 40.3574 4.52078C40.4074 4.57076 40.5074 4.57079 40.5874 4.58079C40.6674 4.60078 40.7375 4.62077 40.7875 4.70074C40.8075 4.73073 40.8475 4.78069 40.8775 4.77069C41.0775 4.7607 41.2075 4.94064 41.3875 4.97063C41.5475 5.00062 41.6375 5.12057 41.7675 5.18055C41.8875 5.23053 42.0074 5.23054 42.1074 5.37049C42.1774 5.48045 42.3974 5.43049 42.4774 5.58044C42.7574 5.66041 42.9674 5.89032 43.2274 6.01028C43.4774 6.13023 43.6675 6.34016 43.9075 6.48011C44.1075 6.60007 44.2974 6.73003 44.4774 6.88997C44.6474 7.03992 44.8275 7.16985 45.0075 7.2998C45.1975 7.43975 45.3675 7.6097 45.5475 7.74965C45.7175 7.87961 45.8775 8.03954 46.0075 8.20948C46.1475 8.37942 46.3775 8.4694 46.4475 8.68933C46.7675 8.92924 47.0275 9.23912 47.2775 9.54901C47.3875 9.67896 47.4974 9.80894 47.5974 9.94889C47.7674 10.1988 47.9975 10.3987 48.1575 10.6486C48.4075 11.0585 48.7375 11.4184 48.9475 11.8482C49.0175 11.9982 49.1375 12.1381 49.2374 12.2781C49.2674 12.318 49.3075 12.358 49.3175 12.408C49.3475 12.538 49.4075 12.6479 49.5075 12.7479C49.5975 12.8379 49.6175 12.9878 49.6775 13.0978C49.7775 13.2977 49.8875 13.4976 49.9874 13.6876C50.1074 13.9075 50.1174 14.1874 50.3274 14.3573C50.3374 14.3673 50.3474 14.3773 50.3474 14.3873C50.3374 14.6672 50.5874 14.8672 50.6074 15.1371C50.6174 15.217 50.6675 15.287 50.6975 15.357C50.7275 15.447 50.7675 15.5269 50.7875 15.6169C50.8075 15.6969 50.7974 15.7968 50.8374 15.8468C50.9974 16.0168 51.0175 16.2267 51.0375 16.4466C51.2475 16.7565 51.1575 17.1564 51.3675 17.4663C51.3775 17.4763 51.3875 17.4862 51.3875 17.5062C51.3675 17.9461 51.5774 18.3359 51.6074 18.7658C51.6274 19.0757 51.6375 19.3756 51.7775 19.6754C51.8375 19.8154 51.8274 19.9953 51.8274 20.1553C51.8474 20.975 51.8675 21.7947 51.8675 22.6244C51.8675 39.2986 51.8675 55.9627 51.8675 72.6368C51.8675 73.2366 51.9175 73.8164 52.0075 74.4062C52.0375 74.5761 52.0475 74.7561 52.0675 74.926C52.0775 75.096 52.0875 75.2759 52.1875 75.4258C52.2275 75.4858 52.2375 75.5758 52.2475 75.6557C52.2675 75.8357 52.2775 76.0056 52.4175 76.1356C52.4375 76.1556 52.4475 76.1855 52.4475 76.2055C52.4475 76.4754 52.6375 76.6654 52.6975 76.9153C52.7475 77.1252 52.8975 77.3151 53.0075 77.5151C53.1075 77.705 53.2174 77.885 53.3274 78.0649C53.3774 78.1549 53.4475 78.2349 53.5175 78.3148C53.7275 78.5847 53.8975 78.8846 54.1375 79.1246C54.4075 79.3845 54.6175 79.6943 54.9375 79.8942C55.2375 80.3141 55.7274 80.4941 56.0774 80.8539C56.4274 80.9439 56.6375 81.3038 57.0075 81.3638C57.1475 81.5137 57.3475 81.5537 57.5275 81.6436C57.5875 81.6736 57.6375 81.7236 57.6975 81.7336C57.8375 81.7536 57.9475 81.8136 58.0675 81.8835C58.1375 81.9235 58.2175 81.9435 58.2875 81.9635C58.3875 81.9935 58.4874 82.0035 58.5774 82.0835C58.6274 82.1335 58.7275 82.1435 58.7975 82.1635C58.8875 82.1835 59.0075 82.1735 59.0675 82.2234C59.2675 82.3734 59.4874 82.3734 59.7174 82.3934C59.7974 82.4034 59.8875 82.3934 59.9475 82.4334C60.1375 82.5633 60.3575 82.5533 60.5675 82.5733C60.9575 82.6033 61.3475 82.6233 61.7374 82.6533C61.8475 82.6633 61.9475 82.6833 62.0575 82.6933C62.1075 82.7033 62.1674 82.7333 62.2174 82.7133C62.7474 82.5733 63.2875 82.6233 63.8175 82.5533C63.9375 82.5333 64.0475 82.4933 64.1575 82.4633C64.1975 82.4534 64.2275 82.4134 64.2675 82.4134C64.6075 82.4134 64.9174 82.2934 65.2374 82.1835C65.3574 82.1335 65.4974 82.1335 65.5974 82.0235C65.6374 81.9835 65.7175 81.9835 65.7875 81.9635C65.8975 81.9435 65.9974 81.9235 66.0774 81.8336C66.1074 81.7936 66.1674 81.7736 66.2174 81.7536C66.4774 81.6737 66.7375 81.5736 66.9375 81.3837C67.2875 81.3237 67.4774 80.9639 67.8274 80.8939C67.9874 80.7439 68.1574 80.594 68.3274 80.454C68.5474 80.2841 68.7275 80.0642 68.9475 79.9043C69.1275 79.7743 69.2475 79.6044 69.3875 79.4445C69.5675 79.2545 69.7275 79.0445 69.8875 78.8346C69.9575 78.7447 70.0274 78.6547 70.1074 78.5648C70.3674 78.2349 70.5375 77.845 70.7975 77.5151C70.7875 77.2452 71.0774 77.0952 71.0874 76.8253C71.2974 76.5954 71.2475 76.2655 71.4275 76.0256C71.4875 75.9356 71.4475 75.7757 71.5075 75.6758C71.7375 75.3059 71.6574 74.856 71.8374 74.4762C71.8874 74.3762 71.8775 74.2363 71.8775 74.1163C71.8875 73.6065 71.9075 73.0966 71.9075 72.5768C71.9075 59.6514 71.9075 46.7259 71.9075 33.8005C71.9075 33.6905 71.9075 33.5806 71.9075 33.4806C71.8875 33.2707 71.7874 33.1607 71.5874 33.1307C71.4274 33.1107 71.2675 33.1107 71.1475 32.9708C71.1275 32.9408 71.0775 32.9108 71.0375 32.9208C70.7675 32.9508 70.5774 32.7309 70.3274 32.6909C70.2674 32.6809 70.2075 32.6409 70.1475 32.6109C70.0875 32.5809 70.0374 32.521 69.9774 32.511C69.6674 32.491 69.4675 32.2511 69.1975 32.1411C68.9975 32.0611 68.8075 31.9711 68.6275 31.8612C68.2975 31.6612 67.9775 31.4613 67.6575 31.2514C67.3275 31.0415 66.9974 30.8216 66.7074 30.5716C66.4474 30.3417 66.1575 30.1618 65.9175 29.9218C65.6875 29.6919 65.4474 29.472 65.2274 29.2421C64.8174 28.8322 64.4574 28.3824 64.0974 27.9326C63.9474 27.8726 63.9575 27.6926 63.8175 27.6027C63.7075 27.5327 63.6275 27.3828 63.5675 27.2528C63.4875 27.0729 63.3374 26.9429 63.2374 26.773C63.1274 26.5831 63.0175 26.3931 62.9075 26.1932C62.8475 26.0932 62.7674 26.0033 62.7174 25.8933C62.6674 25.7833 62.6175 25.6834 62.5475 25.5834C62.4275 25.4135 62.3875 25.1935 62.2675 25.0136C62.1175 24.7837 62.1175 24.4738 61.9075 24.2639C61.8675 24.2239 61.8774 24.1339 61.8574 24.0739C61.8274 23.984 61.8075 23.894 61.7575 23.814C61.6775 23.694 61.6575 23.5641 61.6275 23.4341C61.6075 23.3342 61.5675 23.2342 61.5375 23.1242C61.5075 23.0343 61.4674 22.9543 61.4574 22.8643C61.4374 22.7144 61.4275 22.5745 61.3175 22.4545C61.2275 22.3545 61.2374 22.2346 61.2274 22.1146C61.2074 21.9147 61.1974 21.7247 61.0974 21.5348C61.0274 21.4148 61.0375 21.2449 61.0275 21.0949C61.0075 20.775 60.9975 20.4552 60.8775 20.1453C60.8375 20.0354 60.8374 19.9054 60.8374 19.7854C60.8374 18.9757 60.8274 18.166 60.8374 17.3563C60.8374 17.1663 60.8975 16.9864 60.9275 16.7965C60.9575 16.5665 60.9975 16.3466 61.0275 16.1167C61.0575 15.8768 61.0475 15.6369 61.1675 15.417C61.2175 15.327 61.2174 15.207 61.2174 15.0971C61.2274 14.9071 61.2475 14.7272 61.3775 14.5673C61.3975 14.5373 61.4275 14.4973 61.4275 14.4573C61.3975 14.1374 61.6175 13.8775 61.6575 13.5676C61.6675 13.4776 61.7175 13.3877 61.7575 13.3077C61.7775 13.2677 61.8174 13.2377 61.8274 13.2077C61.8374 12.9878 61.9675 12.8079 62.0575 12.6179C62.1575 12.408 62.2075 12.1581 62.3175 11.9582C62.3975 11.8082 62.4675 11.6483 62.5475 11.4983C62.7475 11.1385 62.9775 10.7986 63.1475 10.4287C63.4675 10.1488 63.5575 9.69897 63.8975 9.43906C63.9875 9.17915 64.1774 8.9992 64.3574 8.79927C64.8574 8.21948 65.3475 7.62969 65.9375 7.11987C66.2675 6.83997 66.5675 6.52009 66.9175 6.28017C67.2975 6.02026 67.6175 5.68039 68.0575 5.51045C68.1275 5.39049 68.2675 5.3505 68.3775 5.28052C68.5575 5.16056 68.7275 5.03062 68.9175 4.95065C69.1075 4.88068 69.2375 4.71073 69.4475 4.69073C69.4875 4.69073 69.5475 4.64075 69.5675 4.60077C69.6175 4.5208 69.6775 4.49081 69.7675 4.48082C69.8375 4.47082 69.9274 4.4708 69.9574 4.43082C70.0774 4.27087 70.2975 4.33086 70.4175 4.2209C70.5575 4.08095 70.7675 4.13093 70.8875 4.03096C71.1175 3.85103 71.4275 3.88101 71.6575 3.71107C71.6975 3.68108 71.7575 3.6711 71.8075 3.6711C71.9975 3.66111 72.1774 3.63109 72.3474 3.52113C72.4074 3.48115 72.4974 3.47115 72.5774 3.46116C72.7774 3.43117 72.9775 3.43116 73.1575 3.30121C73.2475 3.24123 73.3875 3.25123 73.5075 3.24123C73.7475 3.22124 73.9874 3.19127 74.2174 3.1013C74.3174 3.06131 74.4275 3.04132 74.5275 3.04132C75.7775 2.98134 77.0375 2.99134 78.2875 3.04132C78.3775 3.04132 78.4775 3.0513 78.5675 3.09129C78.8375 3.20125 79.1075 3.24124 79.3975 3.25124C79.5475 3.26123 79.6975 3.26123 79.8175 3.37119C79.8275 3.38119 79.8374 3.3912 79.8474 3.3912C80.2274 3.42119 80.5675 3.58113 80.9375 3.6611C81.0675 3.69109 81.1975 3.6811 81.3075 3.79106C81.3575 3.84104 81.4575 3.83105 81.5375 3.86104C81.6375 3.90103 81.7374 3.94099 81.8274 3.99097C81.8674 4.01096 81.8975 4.06094 81.9275 4.05094C82.2175 4.02095 82.3975 4.29087 82.6775 4.31086C82.8475 4.4908 83.1275 4.45081 83.2975 4.65074C83.3975 4.7607 83.5875 4.71073 83.6875 4.85068C83.9175 4.89067 84.0675 5.09058 84.2875 5.15056C84.4175 5.19055 84.5075 5.32052 84.6375 5.3905C84.9575 5.56044 85.2375 5.82034 85.5675 5.98029C85.6675 6.16022 85.8575 6.23021 85.9975 6.36016C86.3475 6.66005 86.7275 6.92994 87.0575 7.24983C87.5975 7.77964 88.1174 8.33945 88.5874 8.93924C88.9674 9.43906 89.3575 9.92888 89.6375 10.4887C89.8575 10.6086 89.8375 10.8885 90.0175 11.0285C90.0375 11.2684 90.2775 11.4084 90.2875 11.6483C90.4475 11.7882 90.4675 11.9982 90.5675 12.1681C90.6075 12.2381 90.6375 12.3081 90.6575 12.388C90.6875 12.488 90.7075 12.5879 90.7875 12.6779C90.8375 12.7279 90.8475 12.8279 90.8775 12.8978C90.9075 12.9878 90.9474 13.0678 90.9874 13.1477C91.0174 13.2377 91.0474 13.3177 91.0874 13.4077C91.1274 13.5176 91.1774 13.6276 91.2174 13.7475C91.2474 13.8375 91.2875 13.9275 91.2975 14.0174C91.3175 14.1674 91.3375 14.3073 91.4175 14.4373C91.4575 14.4973 91.4674 14.5873 91.4774 14.6672C91.5074 14.8772 91.5275 15.0871 91.6475 15.277C91.7075 15.367 91.6974 15.5069 91.7074 15.6269C91.7174 15.8668 91.7474 16.1067 91.8274 16.3367C91.8974 16.5366 91.9075 16.7565 91.9175 16.9764C92.0175 17.9261 92.0074 18.9557 91.9774 19.9753Z" fill="#009A9A"/>
<path d="M16.8873 85.0666C16.0373 84.9266 15.2373 84.6867 14.4673 84.3368C13.6973 83.9869 13.0473 83.567 12.5173 83.0772L13.5773 81.5478C13.6673 81.4178 13.7874 81.3179 13.9374 81.2379C14.0874 81.1579 14.2474 81.1079 14.4174 81.1079C14.5974 81.1079 14.7773 81.1579 14.9573 81.2479C15.1373 81.3379 15.3374 81.4478 15.5574 81.5877C15.7774 81.7277 16.0073 81.8577 16.2673 81.9876C16.5273 82.1276 16.8173 82.2375 17.1473 82.3275L17.5574 78.159C17.0274 78.009 16.5073 77.8391 15.9773 77.6391C15.4573 77.4392 14.9874 77.1693 14.5674 76.8294C14.1474 76.4895 13.8074 76.0597 13.5474 75.5299C13.2874 75.0101 13.1573 74.3503 13.1573 73.5606C13.1573 72.9808 13.2773 72.411 13.5073 71.8512C13.7473 71.3014 14.0874 70.8016 14.5374 70.3617C14.9874 69.9219 15.5473 69.552 16.2073 69.2721C16.8673 68.9922 17.6273 68.8422 18.4773 68.8422L18.5973 67.6027C18.6173 67.3928 18.7073 67.2028 18.8773 67.0429C19.0473 66.8829 19.2473 66.793 19.5073 66.793H20.7673L20.5474 68.9622C21.3374 69.1121 22.0273 69.3421 22.5973 69.672C23.1673 70.0018 23.6574 70.3517 24.0574 70.7216L23.2173 71.9412C23.0873 72.1211 22.9673 72.261 22.8373 72.341C22.7073 72.421 22.5573 72.471 22.3773 72.471C22.2573 72.471 22.1273 72.441 21.9773 72.391C21.8273 72.341 21.6673 72.2711 21.4873 72.2011C21.3073 72.1211 21.1174 72.0412 20.9174 71.9512C20.7174 71.8612 20.4973 71.7812 20.2673 71.7212L19.8773 75.6398C20.2273 75.7398 20.5874 75.8498 20.9374 75.9797C21.2874 76.1097 21.6273 76.2396 21.9573 76.3996C22.2873 76.5595 22.5873 76.7395 22.8773 76.9494C23.1573 77.1594 23.4073 77.3993 23.6173 77.6792C23.8273 77.9591 23.9873 78.2789 24.1073 78.6488C24.2273 79.0087 24.2874 79.4285 24.2874 79.8883C24.2874 80.5881 24.1674 81.2479 23.9374 81.8577C23.6974 82.4675 23.3573 83.0173 22.8973 83.4871C22.4373 83.9569 21.8873 84.3368 21.2173 84.6367C20.5573 84.9366 19.7974 85.1165 18.9474 85.1865L18.8174 86.566C18.7974 86.776 18.7074 86.9559 18.5374 87.1258C18.3774 87.2958 18.1673 87.3758 17.9073 87.3758H16.6473L16.8873 85.0666ZM16.3773 73.2407C16.3773 73.6706 16.5174 74.0304 16.7874 74.2903C17.0574 74.5502 17.4273 74.7802 17.8773 74.9701L18.2073 71.6412C17.8673 71.6912 17.5873 71.7712 17.3573 71.8712C17.1273 71.9712 16.9374 72.0911 16.7974 72.2311C16.6574 72.371 16.5473 72.531 16.4873 72.7009C16.4173 72.8709 16.3773 73.0508 16.3773 73.2407ZM21.0574 80.3782C21.0574 79.9584 20.9273 79.6285 20.6573 79.3786C20.3873 79.1287 20.0373 78.9187 19.5973 78.7488L19.2473 82.3875C20.4473 82.1675 21.0574 81.4978 21.0574 80.3782Z" fill="white"/>
<path d="M75.0675 26.8205C74.2175 26.6805 73.4175 26.4406 72.6475 26.0907C71.8775 25.7408 71.2275 25.321 70.6975 24.8312L71.7574 23.3017C71.8474 23.1717 71.9674 23.0718 72.1174 22.9918C72.2674 22.9118 72.4274 22.8618 72.5974 22.8618C72.7774 22.8618 72.9575 22.9118 73.1375 23.0018C73.3175 23.0918 73.5174 23.2017 73.7374 23.3417C73.9574 23.4716 74.1875 23.6116 74.4475 23.7415C74.7075 23.8715 74.9974 23.9915 75.3274 24.0814L75.7374 19.9129C75.2074 19.7629 74.6875 19.593 74.1575 19.3931C73.6375 19.1932 73.1674 18.9233 72.7474 18.5834C72.3274 18.2435 71.9874 17.8136 71.7274 17.2838C71.4674 16.764 71.3374 16.1042 71.3374 15.3145C71.3374 14.7347 71.4575 14.1649 71.6875 13.6051C71.9275 13.0553 72.2674 12.5555 72.7174 12.1156C73.1674 11.6758 73.7275 11.3059 74.3875 11.026C75.0475 10.7461 75.8075 10.5962 76.6575 10.5962L76.7775 9.35662C76.7975 9.14669 76.8875 8.95673 77.0575 8.79679C77.2175 8.62685 77.4275 8.54688 77.6875 8.54688H78.9475L78.7274 10.7161C79.5174 10.8661 80.2075 11.096 80.7775 11.4259C81.3475 11.7558 81.8374 12.1056 82.2374 12.4755L81.3975 13.6951C81.2675 13.875 81.1475 14.015 81.0175 14.0949C80.8875 14.1749 80.7375 14.2249 80.5575 14.2249C80.4375 14.2249 80.3075 14.1949 80.1575 14.1449C80.0075 14.0949 79.8475 14.025 79.6675 13.955C79.4875 13.885 79.2974 13.795 79.0974 13.7051C78.8974 13.6151 78.6775 13.5351 78.4475 13.4752L78.0575 17.3938C78.4075 17.4938 78.7674 17.6037 79.1174 17.7336C79.4674 17.8636 79.8075 17.9935 80.1375 18.1535C80.4675 18.3134 80.7675 18.4934 81.0575 18.7033C81.3375 18.9133 81.5875 19.1532 81.7975 19.4331C82.0075 19.713 82.1675 20.0328 82.2875 20.4027C82.4075 20.7626 82.4674 21.1825 82.4674 21.6423C82.4674 22.3421 82.3474 23.0018 82.1174 23.6116C81.8774 24.2214 81.5374 24.7712 81.0774 25.241C80.6174 25.7108 80.0675 26.0907 79.3975 26.3906C78.7375 26.6905 77.9774 26.8705 77.1274 26.9404L76.9974 28.3199C76.9774 28.5299 76.8874 28.7098 76.7174 28.8797C76.5574 29.0497 76.3474 29.1297 76.0874 29.1297H74.8274L75.0675 26.8205ZM74.5675 14.9846C74.5675 15.4145 74.7074 15.7743 74.9774 16.0342C75.2474 16.2941 75.6175 16.5241 76.0675 16.714L76.3975 13.3852C76.0575 13.4352 75.7775 13.5151 75.5475 13.6151C75.3175 13.7151 75.1274 13.835 74.9874 13.975C74.8474 14.1149 74.7375 14.2749 74.6775 14.4448C74.5975 14.6148 74.5675 14.7947 74.5675 14.9846ZM79.2374 22.1221C79.2374 21.7023 79.1074 21.3724 78.8374 21.1225C78.5674 20.8726 78.2175 20.6626 77.7775 20.4927L77.4275 24.1314C78.6375 23.9215 79.2374 23.2517 79.2374 22.1221Z" fill="white"/>
</svg>
