<svg width="96" height="96" viewBox="0 0 96 96" fill="none" xmlns="http://www.w3.org/2000/svg">
<path d="M96.0008 48.5602C95.5894 48.5496 95.5789 48.9505 95.4207 49.1614C94.9039 49.8472 94.3765 50.5224 93.8069 51.1764C93.5432 51.4824 93.2901 51.8094 93.0686 52.1575C92.7416 52.6745 92.3303 53.1387 91.9612 53.6134C91.2439 54.5417 90.5267 55.4596 89.7884 56.3774C89.3876 56.8732 88.9868 57.3901 88.586 57.8965C87.9637 58.6772 87.352 59.4789 86.7508 60.2701C86.2868 60.8715 85.7488 61.4412 85.3059 62.0636C84.8629 62.686 84.3671 63.2557 83.9031 63.8465C83.3335 64.5533 82.8589 65.355 82.205 65.9985C81.9202 66.2728 81.7831 66.642 81.4878 66.9163C80.7917 67.5599 79.5154 67.4649 78.9564 66.5366C78.8088 66.2939 78.6506 66.0829 78.4502 65.9036C78.1232 65.6187 77.9755 65.2073 77.7013 64.8803C76.9946 64.0363 76.3618 63.129 75.6657 62.2956C75.2438 61.7893 74.9379 61.1879 74.4106 60.7659C74.2207 60.6182 74.1047 60.3546 73.9571 60.1541C73.493 59.5211 72.955 58.9409 72.491 58.3079C72.2378 57.9704 71.9215 57.6749 71.7422 57.274C71.6472 57.0525 71.3519 56.9365 71.2254 56.7255C70.8246 56.0187 70.2444 55.4595 69.7487 54.8265C69.3268 54.2885 68.9366 53.7294 68.4619 53.2336C68.1772 52.9277 67.8608 52.569 67.692 52.1364C67.6076 51.9254 67.3862 51.8305 67.2596 51.6617C66.6479 50.881 66.0361 50.1109 65.4666 49.2986C65.3822 49.172 65.2661 49.0982 65.1712 48.9927C64.7704 48.5391 64.7599 48.001 64.9075 47.4841C65.0868 46.8406 65.6142 46.5346 66.247 46.5346C69.4534 46.5135 72.6492 46.5241 75.8555 46.5241C76.4145 46.5241 76.404 46.5241 76.3091 45.9861C76.2774 45.7962 76.288 45.5852 76.2775 45.3848C76.2036 44.3298 76.0349 43.2854 75.8134 42.2515C75.729 41.8717 75.6763 41.4709 75.5708 41.1017C75.4337 40.648 75.2754 40.1944 75.1278 39.7407C74.9801 39.2976 74.8957 38.8335 74.6743 38.401C74.3156 37.6836 74.0731 36.9135 73.6934 36.2067C73.3031 35.4787 73.0289 34.6664 72.5438 34.0229C72.1324 33.4849 71.816 32.8835 71.3941 32.356C70.8456 31.6703 70.3394 30.9529 69.7487 30.2989C69.1053 29.5815 68.4303 28.8958 67.7237 28.2523C67.2912 27.862 66.8166 27.4822 66.3947 27.0918C65.8463 26.5855 65.1502 26.2901 64.6333 25.7415C64.4329 25.5305 64.0954 25.425 63.8528 25.2141C63.3676 24.7921 63.1672 24.2435 63.3466 23.6527C63.4837 23.1885 63.8739 22.8087 64.2747 22.5556C64.9497 22.1336 65.4666 21.5323 66.1416 21.1314C66.669 20.8149 67.1225 20.3929 67.5654 20.0131C68.0506 19.6016 68.5991 19.2641 69.0526 18.7894C69.3901 18.4201 69.8753 18.1669 70.3077 17.8716C70.5608 17.7028 70.7402 17.4496 71.0671 17.3652C71.4257 17.2808 72.3645 17.3757 72.5438 17.6922C72.7231 18.0087 73.0289 18.1564 73.282 18.3252C73.7672 18.6417 74.1891 19.032 74.5899 19.4118C75.0962 19.8971 75.6235 20.3718 76.1298 20.8571C76.6466 21.3529 77.1002 21.912 77.617 22.3973C78.1865 22.9353 78.64 23.6105 79.1568 24.2224C79.8318 25.0347 80.4753 25.8681 81.0343 26.7648C81.5194 27.5455 82.0151 28.3156 82.4792 29.1068C82.88 29.7715 83.1543 30.4993 83.5551 31.1639C83.9664 31.8391 84.1668 32.5987 84.5359 33.2738C85.0422 34.2128 85.2109 35.2466 85.6434 36.1855C85.9703 36.9029 86.0231 37.6836 86.3395 38.3799C86.4344 38.5803 86.4238 38.8229 86.466 39.0339C86.6348 39.8251 86.8774 40.5847 87.004 41.3864C87.1833 42.473 87.2466 43.5808 87.4364 44.6674C87.5103 45.1316 87.4997 45.6063 87.4786 46.081C87.4575 46.4397 87.5735 46.5346 87.9321 46.5346C90.0099 46.5241 92.0772 46.5346 94.155 46.5241C94.8722 46.5241 95.505 46.6085 95.7581 47.4208C95.7898 47.5263 95.9058 47.4841 95.9796 47.463C96.0007 47.8111 96.0008 48.1909 96.0008 48.5602Z" fill="#009A9A"/>
<path d="M47.4518 95.9986C47.4729 95.9037 47.5151 95.7982 47.3674 95.756C46.8295 95.5978 46.4393 95.2074 46.049 94.8698C45.5533 94.4373 45.0049 94.0681 44.5092 93.6355C43.8658 93.0764 43.1802 92.5806 42.5052 92.0531C41.9989 91.6522 41.4188 91.3041 40.9758 90.8716C40.5012 90.3968 39.8683 90.1647 39.457 89.6056C39.2461 89.3208 38.8347 89.1731 38.5394 88.9304C37.78 88.2975 37.0101 87.6856 36.2191 87.1159C35.7128 86.7467 35.2171 86.3563 34.753 85.966C34.194 85.4807 33.54 85.122 33.0232 84.5629C32.749 84.2781 32.3271 84.0777 32.0212 83.8034C31.5044 83.3286 30.8716 83.0016 30.3759 82.4952C30.2387 82.3475 30.0805 82.1893 29.8591 82.1049C29.4161 81.9361 29.1524 81.5352 28.8465 81.2082C28.4246 80.7756 28.5828 79.7734 29.0575 79.362C29.6692 78.8451 30.3231 78.3703 30.9243 77.8534C31.4939 77.3681 32.1584 76.9884 32.6646 76.4187C32.8229 76.2393 33.0654 76.1549 33.2553 75.9967C34.0252 75.3321 34.8479 74.7413 35.6284 74.0978C36.6199 73.2749 37.7062 72.5681 38.6765 71.7347C39.3726 71.1334 40.1215 70.5954 40.8387 70.0362C41.3345 69.6459 41.8091 69.2239 42.3259 68.8547C42.9482 68.4116 43.5915 67.958 44.1611 67.4516C44.7306 66.9452 45.3424 66.4705 45.9436 65.9957C46.4287 65.616 46.8507 65.1518 47.4308 64.8986C47.9581 64.6771 48.6858 64.9197 49.0866 65.3206C49.4874 65.7214 49.498 66.1645 49.498 66.6498C49.498 69.3716 49.498 72.0828 49.498 74.8046C49.498 75.311 49.5296 75.2899 50.0464 75.2266C50.7426 75.1422 51.4492 75.195 52.1348 75.1211C53.0946 75.0051 54.0543 74.8784 55.0141 74.6885C55.8896 74.5092 56.7123 74.1716 57.5772 74.0134C58.3471 73.8657 59.0326 73.4543 59.7709 73.1905C60.2878 73.0112 60.8468 72.8424 61.2897 72.5365C61.8909 72.125 62.5976 71.9246 63.1777 71.4498C63.5258 71.165 64.0215 70.9857 64.4012 70.7009C64.9918 70.2683 65.6669 69.9518 66.1521 69.361C66.2892 69.2028 66.5423 69.15 66.6899 69.0023C67.2489 68.4432 67.8501 67.9263 68.4091 67.3566C68.8626 66.8924 69.3479 66.4283 69.7697 65.943C70.2233 65.4261 70.6979 64.9302 71.0459 64.3183C71.4573 63.5904 72.8495 63.5904 73.3874 64.2656C73.8515 64.8564 74.2945 65.4577 74.7902 66.0274C75.307 66.6287 75.75 67.2933 76.2562 67.9158C76.6781 68.4432 77.0473 69.0235 77.4903 69.5193C77.9649 70.0573 78.3552 70.6481 78.7982 71.2072C79.1146 71.6081 78.9247 72.431 78.5661 72.8002C78.3657 73.0112 78.1442 73.2222 78.0177 73.4648C77.8384 73.8024 77.5114 73.9395 77.311 74.2244C76.8891 74.8046 76.3512 75.2688 75.8449 75.7435C75.2648 76.2815 74.7058 76.8512 74.0835 77.3471C73.3769 77.9062 72.7018 78.5075 71.9741 79.0244C71.3202 79.478 70.6662 79.9422 70.0018 80.3853C69.39 80.8073 68.715 81.0816 68.1033 81.4825C67.5126 81.8728 66.827 82.1154 66.2364 82.4741C65.4559 82.9488 64.5805 83.1282 63.8 83.5607C63.0722 83.9616 62.2707 84.1515 61.5007 84.4258C60.7519 84.6896 60.003 84.9638 59.212 85.1221C58.3787 85.2908 57.5244 85.4386 56.7123 85.6601C55.9213 85.8711 55.1196 85.9555 54.3181 86.0715C52.8203 86.2825 51.3226 86.4091 49.8144 86.3775C49.4558 86.3669 49.5191 86.5885 49.5191 86.7889C49.5191 89.2786 49.498 91.7683 49.5296 94.2474C49.5402 94.9543 49.2976 95.4501 48.6542 95.7349C48.5171 95.7982 48.5487 95.8826 48.5804 95.9775C48.2007 95.9986 47.8315 95.9986 47.4518 95.9986Z" fill="#009A9A"/>
<path d="M48.5699 0C48.6859 0.284837 48.9813 0.390342 49.1922 0.569684C49.7196 1.02331 50.3208 1.40309 50.8587 1.84617C51.4072 2.2998 51.9872 2.74289 52.5673 3.17542C53.158 3.60795 53.7697 4.01936 54.297 4.50464C54.8033 4.96882 55.3834 5.32752 55.8897 5.80224C56.4698 6.35082 57.187 6.77282 57.7987 7.30029C58.4737 7.88052 59.1805 8.41854 59.8871 8.94602C60.5516 9.4524 61.2161 9.97987 61.8594 10.4968C62.3657 10.8977 62.9247 11.2563 63.3887 11.7311C63.6735 12.0265 64.0427 12.343 64.4857 12.5012C64.7072 12.5856 64.7599 12.8282 64.9603 12.9443C65.6459 13.3452 66.2049 13.9359 66.8483 14.4001C67.3756 14.7799 67.4916 16.1092 66.9643 16.5628C66.69 16.7949 66.4369 17.0375 66.1416 17.259C65.667 17.6072 65.2556 18.0503 64.7494 18.3562C64.2537 18.6622 63.8001 19.0525 63.3782 19.4428C62.872 19.8964 62.2391 20.2023 61.7962 20.7509C61.638 20.9408 61.3637 21.0252 61.1633 21.1835C60.2773 21.8903 59.4125 22.6393 58.4949 23.3144C57.8937 23.7575 57.3241 24.2323 56.7229 24.6859C55.8686 25.3189 55.0565 26.0046 54.2022 26.6481C53.6642 27.0596 53.0841 27.4393 52.6201 27.9563C52.4619 28.1356 52.2193 28.2306 52.0294 28.3783C51.597 28.7159 51.1751 29.0956 50.7216 29.4121C50.1309 29.8235 49.5824 30.2877 49.0234 30.7308C48.6543 31.0262 48.3168 31.1422 47.8738 31.1633C47.1461 31.195 46.4816 30.3405 46.4921 29.7497C46.5027 27.0807 46.4921 24.4011 46.4921 21.732C46.4921 21.1412 46.4288 21.0991 45.8593 21.2784C45.7432 21.3206 45.6061 21.3522 45.4796 21.3522C44.6358 21.3522 43.8026 21.5105 43.0221 21.7637C42.0939 22.0696 41.113 22.2384 40.206 22.6288C39.2989 23.0086 38.3708 23.3461 37.4743 23.7576C36.8836 24.0319 36.3035 24.3378 35.7445 24.6754C34.8691 25.224 33.9937 25.762 33.1604 26.3844C32.6753 26.7431 32.2112 27.1334 31.7576 27.5238C31.1775 28.0196 30.608 28.5154 30.0701 29.0745C29.606 29.5492 29.1209 30.024 28.7095 30.5409C28.0978 31.311 27.4333 32.0389 26.9376 32.904C26.6844 33.3576 26.3048 33.7796 25.8618 34.1067C25.6403 34.2649 24.7437 34.1277 24.5117 33.9484C23.4253 33.0833 22.7925 31.8596 21.896 30.8468C21.4636 30.351 21.1999 29.718 20.6409 29.3277C20.43 29.18 20.3772 28.8424 20.1768 28.6631C19.6284 28.1567 19.3014 27.471 18.753 26.9646C18.2994 26.5532 18.4576 25.5088 18.89 24.9707C19.0482 24.7808 19.196 24.5593 19.3436 24.3589C19.9448 23.5571 20.6304 22.8292 21.3054 22.0907C21.9488 21.3839 22.6448 20.751 23.3199 20.0758C24.1109 19.2846 25.0075 18.6199 25.8723 17.9131C26.3997 17.4806 27.0009 17.1535 27.4966 16.6683C27.8446 16.3307 28.3509 16.1724 28.7517 15.877C29.5744 15.2863 30.4604 14.8115 31.3463 14.3263C32.4749 13.7144 33.6456 13.1975 34.848 12.7227C35.5335 12.459 36.2297 12.1953 36.9152 11.9315C37.9278 11.5412 38.9614 11.2458 40.0267 11.0243C40.5751 10.9082 41.1447 10.8449 41.6721 10.6761C42.9588 10.2647 44.2878 10.1698 45.6167 10.0854C45.8593 10.0748 46.0702 9.9482 46.3233 9.9482C46.5765 9.93765 46.471 9.70556 46.471 9.57896C46.4816 7.95434 46.471 6.31918 46.471 4.69456C46.471 3.71345 46.471 2.72177 46.471 1.74067C46.471 1.0233 46.5976 0.379768 47.3992 0.116029C47.4097 0.116029 47.4097 0.0421981 47.4097 0C47.8316 0 48.2008 0 48.5699 0Z" fill="#009A9A"/>
<path d="M0.021115 47.439C0.0316623 47.439 0.0632807 47.4495 0.0632807 47.4495C0.263678 47.017 0.675027 46.7533 0.92816 46.3629C1.43443 45.6034 2.07784 44.9704 2.6052 44.2425C3.1642 43.4618 3.88135 42.7972 4.32433 41.9321C4.4509 41.6895 4.73569 41.6051 4.86225 41.3941C5.30524 40.624 5.95917 40.0121 6.45489 39.2842C6.91897 38.5985 7.53069 38.0077 8.01586 37.3325C8.45884 36.7101 8.96512 36.151 9.4081 35.5391C10.0937 34.6108 10.8003 33.6929 11.5281 32.8173C11.9605 32.2898 12.3508 31.7202 12.8149 31.2138C13.4583 30.507 14.0173 29.7263 14.5974 28.9668C14.9454 28.5131 16.1056 28.5975 16.5275 28.9562C17.0548 29.3993 17.3291 30.0217 17.8353 30.4859C18.1623 30.7918 18.3733 31.2349 18.6686 31.5936C19.4913 32.6064 20.3139 33.6191 21.0944 34.6635C21.548 35.2648 22.0121 35.8556 22.4867 36.4464C22.9402 37.0055 23.3093 37.6279 23.7945 38.1554C24.3113 38.7251 24.786 39.3264 25.25 39.9277C25.7563 40.5818 26.3048 41.1937 26.7688 41.8794C27.0642 42.3225 27.37 42.7761 27.7286 43.1348C28.1927 43.6095 28.4564 44.232 28.9732 44.6645C29.1947 44.8438 29.2791 45.1814 29.5006 45.3818C30.0491 45.8882 30.376 46.5739 30.9245 47.0909C31.378 47.5234 31.1776 48.5256 30.7346 49.0109C30.3549 49.4329 29.9225 49.5172 29.4056 49.5067C27.1802 49.4961 24.9441 49.5067 22.7187 49.4961C22.3812 49.4961 22.3074 49.5806 22.2968 49.9181C22.2863 51.1419 22.4445 52.3656 22.7292 53.5366C22.9296 54.37 23.0878 55.2457 23.3832 56.0685C23.5414 56.5011 23.6047 57.0074 23.8051 57.4188C24.0582 57.9463 24.1953 58.5055 24.459 59.0224C24.8703 59.8453 25.1867 60.7419 25.693 61.5015C26.1465 62.1978 26.5051 62.9362 27.0114 63.6009C27.5704 64.3288 28.0873 65.0883 28.6884 65.7741C29.1103 66.2593 29.5639 66.7235 30.0068 67.1877C30.5026 67.7047 31.0721 68.1266 31.5678 68.633C31.9792 69.055 32.496 69.3926 32.9812 69.7513C33.7511 70.3315 34.0043 71.3865 33.2449 72.1566C32.8124 72.5997 32.3378 72.9689 31.7999 73.2643C31.5573 73.4014 31.4623 73.6862 31.2303 73.8339C30.5553 74.2348 29.9858 74.7834 29.3635 75.2581C28.6357 75.8173 27.9396 76.3975 27.2118 76.9566C26.8638 77.2309 26.4946 77.484 26.1149 77.7056C25.7352 77.9166 25.1446 77.8111 24.7121 77.4208C24.0476 76.8406 23.3199 76.3342 22.7187 75.6906C22.0964 75.026 21.4109 74.4247 20.8519 73.6862C20.546 73.2853 20.1768 72.9267 19.8499 72.5469C19.5546 72.1988 19.2803 71.8295 18.9956 71.4708C18.5631 70.8906 18.1202 70.3209 17.6983 69.7301C17.4346 69.3609 17.2236 68.9601 16.9705 68.5803C16.5803 68 16.2533 67.3671 15.9158 66.7447C15.5361 66.0695 15.2197 65.3732 14.8505 64.7086C14.4392 63.9596 14.2177 63.1367 13.8485 62.3771C13.3528 61.3644 13.1524 60.2672 12.7411 59.2334C12.4246 58.4527 12.3508 57.6299 12.0555 56.8492C11.95 56.5749 11.95 56.2584 11.9078 55.9736C11.8234 55.4355 11.6336 54.9186 11.5387 54.3806C11.3277 53.1041 11.3172 51.817 11.1063 50.5405C11.0957 50.4983 11.0957 50.4561 11.0957 50.4139C11.0746 50.1185 11.1695 49.7177 11.0113 49.5489C10.8004 49.3379 10.389 49.4751 10.0726 49.4751C7.25647 49.4645 4.44036 49.4645 1.62425 49.4751C0.928132 49.4751 0.453546 49.1691 0.147677 48.5678C0.116035 48.4939 0.0527361 48.5256 0 48.5256C0.0210944 48.188 0.021115 47.8082 0.021115 47.439Z" fill="#009A9A"/>
</svg>
