<svg width="32" height="32" viewBox="0 0 32 32" fill="none" xmlns="http://www.w3.org/2000/svg">
<path id="%" d="M25.1602 16.9573C22.7989 16.9573 21.6183 19.0151 21.6183 23.1306C21.6183 25.3708 21.8897 27.0118 22.4325 28.0537C23.0025 29.0956 23.9389 29.6166 25.2417 29.6166C27.6301 29.6166 28.8244 27.5328 28.8244 23.3651C28.8244 21.2031 28.5394 19.6011 27.9694 18.5592C27.4266 17.4912 26.4902 16.9573 25.1602 16.9573ZM18.5241 23.2869C18.5241 20.8384 19.1077 18.989 20.2747 17.7387C21.469 16.4624 23.111 15.8242 25.201 15.8242C27.2909 15.8242 28.9465 16.4754 30.1679 17.7778C31.3892 19.0541 31.9999 20.9035 31.9999 23.326C31.9999 25.7485 31.3757 27.6109 30.1272 28.9133C28.9058 30.1897 27.2637 30.8278 25.201 30.8278C23.1653 30.8278 21.5368 30.1766 20.3155 28.8742C19.1212 27.5718 18.5241 25.7094 18.5241 23.2869ZM27.2773 0.9768L6.14752 32L4.72258 31.0623L25.8116 0L27.2773 0.9768ZM6.7175 2.34432C4.35617 2.34432 3.17551 4.38909 3.17551 8.47863C3.17551 10.7188 3.44693 12.3728 3.98976 13.4408C4.53259 14.4827 5.45541 15.0037 6.75821 15.0037C9.17381 15.0037 10.3816 12.9198 10.3816 8.75214C10.3816 6.5641 10.0966 4.94912 9.52666 3.9072C8.98382 2.86528 8.04744 2.34432 6.7175 2.34432ZM-6.10352e-05 8.63492C-6.10352e-05 6.21245 0.597055 4.36304 1.79129 3.08669C2.98552 1.81034 4.62759 1.17216 6.7175 1.17216C8.8074 1.17216 10.4495 1.82336 11.6437 3.12576C12.8651 4.40211 13.4758 6.27757 13.4758 8.75214C13.4758 11.2007 12.8651 13.0501 11.6437 14.3004C10.4495 15.5507 8.82097 16.1758 6.75821 16.1758C4.72258 16.1758 3.08052 15.5246 1.832 14.2222C0.610626 12.8938 -6.10352e-05 11.0313 -6.10352e-05 8.63492Z" fill="white"/>
</svg>
