<svg width="80" height="80" viewBox="0 0 80 80" fill="none" xmlns="http://www.w3.org/2000/svg">
<rect width="80" height="80" rx="24" fill="#B2DADA"/>
<path d="M38.2088 48.176C38.1864 48.1648 38.1865 48.1536 38.1641 48.1424C38.1305 48.1312 38.0969 48.1312 38.0744 48.12C36.7416 47.672 35.3305 47.4032 33.8633 47.3808V46.9328C35.1849 46.5072 36.428 45.8688 37.5592 45.0288L38.9257 45.6448C39.3176 45.824 39.732 45.9024 40.1464 45.9024C41.1992 45.9024 42.2184 45.3536 42.756 44.3792L44.38 41.4672C45.1865 40.84 45.78 40 46.0601 39.0144C46.4296 37.7488 46.2505 36.416 45.556 35.2512C44.9624 34.2432 44.0329 33.4928 42.9353 33.0672C42.8569 31.096 42.6217 29.9984 42.2857 28.3744C42.1737 27.8704 42.0504 27.2992 41.9272 26.6272C47.1129 22.6512 43.0584 14.5536 42.868 14.1952C42.868 14.184 42.8569 14.1728 42.8457 14.1616C42.812 14.1056 42.7785 14.072 42.7337 14.0272C42.7001 13.9936 42.6665 13.9488 42.6329 13.9152C42.5881 13.8816 42.5432 13.8704 42.4984 13.848C42.4424 13.8144 42.3976 13.792 42.3305 13.7808C42.3193 13.7696 42.308 13.7584 42.2968 13.7584C42.2632 13.7472 42.2185 13.7584 42.1849 13.7584C42.1289 13.7584 42.0728 13.7472 42.0168 13.7584C41.9496 13.7696 41.8936 13.7808 41.8376 13.8032C41.804 13.8144 41.7704 13.8144 41.7368 13.8368C41.7256 13.8368 41.7257 13.848 41.7145 13.8592C41.6585 13.8928 41.6024 13.9376 41.5576 13.9824C41.524 14.016 41.4904 14.0384 41.4681 14.072C41.4344 14.1168 41.4121 14.1616 41.3897 14.2176C41.356 14.2624 41.3337 14.3184 41.3225 14.3632C41.3113 14.3856 41.3112 14.3968 41.3 14.408C40.6504 17.5552 37.8393 17.4992 37.4809 17.4768H24.7464C23.2681 17.4768 21.8792 18.048 20.8376 19.1008C20.2328 19.7056 19.7736 20.512 19.4936 21.5088L18.1608 26.112C17.9816 27.008 17.8136 27.736 17.668 28.3632C17.388 29.6288 17.1753 30.5808 17.052 31.8688V31.9024C17.0072 32.2944 16.9848 32.72 16.9624 33.2016C14.5208 34.1424 13.1208 36.7072 13.8264 39.16C14.1848 40.4256 15.0472 41.4672 16.2456 42.0832C16.9848 42.464 17.8024 42.6656 18.6312 42.6656C19.012 42.6656 19.3928 42.6096 19.7624 42.52C20.076 42.9232 20.4008 43.304 20.7592 43.6624C22.3833 45.3088 24.3656 46.4624 26.5048 47.056V47.4144C19.0568 47.8624 13.1208 54.0448 13.1208 61.5936C13.1208 64.1584 15.204 66.2416 17.7688 66.2416H41.9496C44.8728 66.2416 47.2472 63.8672 47.2472 60.9552C47.2472 55.0528 43.4616 50.0464 38.2088 48.176ZM41.8937 42.4864L41.2888 43.5616C40.964 44.144 40.2248 44.3904 39.6201 44.1104L38.9816 43.8192C39.0264 43.7744 39.0824 43.7296 39.1272 43.6848C39.5192 43.2816 39.8777 42.856 40.2136 42.408C40.5609 42.4752 40.9081 42.52 41.2553 42.52C41.4681 42.52 41.6809 42.5088 41.8937 42.4864ZM21.9577 42.4864C19.7624 40.2576 18.5752 37.3232 18.62 34.2096C18.62 33.7392 18.6424 33.3248 18.6536 32.9328C19.3704 32.944 20.132 32.7424 20.8824 32.2608C21.1848 32.0592 21.4761 31.8352 21.7673 31.6224C22.1817 31.2976 22.5736 30.9952 22.9992 30.8048C24.4328 30.1552 26.1912 30.7152 28.0281 31.4096C30.0217 32.16 32.3176 32.8768 34.3672 31.8464C34.804 31.6336 35.1737 31.3648 35.532 31.096C35.924 30.8048 36.3049 30.536 36.6856 30.4016C37.3689 30.1552 38.2649 30.3008 39.0712 30.7936C39.8888 31.2752 40.5721 32.0144 41.2329 32.7424C41.2553 33.1792 41.2776 33.6608 41.2888 34.2208C41.3224 37.2896 40.1017 40.3136 37.9289 42.5088C37.7384 42.6992 37.5257 42.8896 37.3241 43.0688L35.3864 42.184V42.1168C35.3864 40.6944 34.0312 39.5744 32.3064 39.5744C30.5928 39.5744 29.2153 40.7168 29.2153 42.1168C29.2153 43.5392 30.5704 44.6592 32.3064 44.6592C33.2808 44.6592 34.132 44.2896 34.692 43.7184L35.7672 44.2112C34.0536 45.264 32.0936 45.8352 30.0664 45.8464H29.8424C26.8744 45.8352 24.0745 44.6368 21.9577 42.4864ZM32.1833 47.3248V49.576C32.1833 50.808 31.2872 51.816 30.1784 51.816C29.0808 51.816 28.1848 50.808 28.1848 49.576V47.4032C28.7336 47.4704 29.2712 47.5264 29.8312 47.5264H30.0664C30.7832 47.5264 31.4888 47.448 32.1833 47.3248ZM30.0329 54.8736C27.5913 54.9408 25.1609 53.0368 23.3128 49.7328C24.3209 49.3856 25.396 49.1728 26.5048 49.0944V49.576C26.5048 51.7376 28.1512 53.496 30.1784 53.496C32.2056 53.496 33.8633 51.7376 33.8633 49.576V49.0608C34.8041 49.0832 35.7224 49.2176 36.6072 49.4416C34.86 52.8576 32.4857 54.8288 30.0329 54.8736Z" fill="#008989"/>
<path d="M56.4976 35.7103C50.7632 35.7103 46.104 40.3695 46.104 46.1039C46.104 51.8271 50.7632 56.4863 56.4976 56.4863C62.2208 56.4863 66.88 51.8271 66.88 46.1039C66.88 40.3695 62.2208 35.7103 56.4976 35.7103ZM56.4976 54.8063C51.6928 54.8063 47.784 50.8975 47.784 46.1039C47.784 41.2991 51.6928 37.3903 56.4976 37.3903C61.2912 37.3903 65.2 41.2991 65.2 46.1039C65.2 50.8975 61.2912 54.8063 56.4976 54.8063Z" fill="#008989"/>
<path d="M56.4985 38.2752C52.1753 38.2752 48.6697 41.7808 48.6697 46.104C48.6697 50.416 52.1753 53.9216 56.4985 53.9216C60.8105 53.9216 64.3161 50.416 64.3161 46.104C64.3161 41.7808 60.8105 38.2752 56.4985 38.2752ZM56.4985 45.264C57.9433 45.264 59.1305 46.44 59.1305 47.8848C59.1305 49.0496 58.3689 50.024 57.3273 50.3712C57.2937 50.808 56.9353 51.1552 56.4985 51.1552C56.0505 51.1552 55.7033 50.808 55.6697 50.3712C54.6281 50.024 53.8665 49.0496 53.8665 47.8848C53.8665 47.4256 54.2361 47.0448 54.7065 47.0448C55.1657 47.0448 55.5465 47.4256 55.5465 47.8848C55.5465 48.4112 55.9721 48.8368 56.4985 48.8368C57.0137 48.8368 57.4505 48.4112 57.4505 47.8848C57.4505 47.3696 57.0137 46.944 56.4985 46.944C55.0425 46.944 53.8665 45.7568 53.8665 44.312C53.8665 43.1472 54.6281 42.1728 55.6697 41.8256C55.6921 41.3888 56.0505 41.0416 56.4985 41.0416C56.9353 41.0416 57.2937 41.3888 57.3273 41.8256C58.3689 42.1728 59.1305 43.1472 59.1305 44.312C59.1305 44.7712 58.7497 45.152 58.2905 45.152C57.8201 45.152 57.4505 44.7712 57.4505 44.312C57.4505 43.7856 57.0137 43.36 56.4985 43.36C55.9721 43.36 55.5465 43.7856 55.5465 44.312C55.5465 44.8272 55.9721 45.264 56.4985 45.264Z" fill="#008989"/>
<path d="M61.5615 17.1631H50.2943C48.2559 17.1631 46.5983 18.8207 46.5983 20.8591V29.3599C46.5983 31.3983 48.2559 33.0559 50.2943 33.0559H61.5615C63.5999 33.0559 65.2575 31.3983 65.2575 29.3599V20.8591C65.2575 18.8207 63.5999 17.1631 61.5615 17.1631ZM63.5775 29.3599C63.5775 30.4799 62.6703 31.3759 61.5615 31.3759H50.2943C49.1855 31.3759 48.2783 30.4799 48.2783 29.3599V20.8591C48.2783 19.7503 49.1855 18.8431 50.2943 18.8431H61.5615C62.6703 18.8431 63.5775 19.7503 63.5775 20.8591V29.3599Z" fill="#008989"/>
<path d="M62.7144 26.056C62.7144 28.5424 60.6984 30.5696 58.2008 30.5696H56.7784C55.6472 30.5696 54.7176 29.6512 54.7176 28.5088C54.7176 27.3776 55.6472 26.448 56.7784 26.448H58.2008C58.4248 26.448 58.604 26.2688 58.604 26.056C58.604 25.8432 58.4248 25.664 58.2008 25.664H55.132C55.0984 26.1344 54.8968 26.5936 54.5496 26.9408C53.7656 27.7248 52.4104 27.7248 51.6264 26.9408L49.7448 25.0592C49.3528 24.6672 49.14 24.152 49.14 23.6032C49.14 23.0544 49.3528 22.5392 49.7448 22.1472L51.6264 20.2544C52.4104 19.4816 53.7656 19.4816 54.5496 20.2544C54.8968 20.6128 55.0872 21.072 55.1208 21.5424H58.2008C60.6984 21.5424 62.7144 23.5696 62.7144 26.056Z" fill="#008989"/>
</svg>
