<svg width="80" height="80" viewBox="0 0 80 80" fill="none" xmlns="http://www.w3.org/2000/svg">
<rect width="80" height="80" rx="24" fill="#B2DADA"/>
<g clip-path="url(#clip0_1782_6241)">
<path d="M40.5834 16.6667H38.0167C37.2467 13.9833 34.7734 12 31.8334 12C28.8934 12 26.42 13.9833 25.65 16.6667H23.0834C22.1267 16.6667 21.3334 17.46 21.3334 18.4167V21.9167C21.3334 24.1567 23.1767 26 25.4167 26H38.25C40.49 26 42.3334 24.1567 42.3334 21.9167V18.4167C42.3334 17.46 41.54 16.6667 40.5834 16.6667Z" fill="#008989"/>
<path d="M45.25 19H44.6667V21.9167C44.6667 25.4633 41.7967 28.3333 38.25 28.3333H25.4167C21.87 28.3333 19 25.4633 19 21.9167V19H18.4167C14.87 19 12 21.87 12 25.4167V54.5833C12 58.13 14.87 61 18.4167 61H33.7933C32.6267 58.5033 31.9267 55.75 31.8567 52.8333H20.75C19.7933 52.8333 19 52.04 19 51.0833C19 50.1267 19.7933 49.3333 20.75 49.3333H32.0433C32.2533 47.91 32.6033 46.5567 33.07 45.25H20.75C19.7933 45.25 19 44.4567 19 43.5C19 42.5433 19.7933 41.75 20.75 41.75H34.75C35.6367 40.2567 36.7333 38.88 37.97 37.6667H20.75C19.7933 37.6667 19 36.8733 19 35.9167C19 34.96 19.7933 34.1667 20.75 34.1667H42.7767C45.46 32.7667 48.47 31.9267 51.6667 31.8567V25.4167C51.6667 21.87 48.7967 19 45.25 19Z" fill="#008989"/>
<path d="M52.25 36.5C43.5653 36.5 36.5 43.5653 36.5 52.25C36.5 60.9347 43.5653 68 52.25 68C60.9347 68 68 60.9347 68 52.25C68 43.5653 60.9347 36.5 52.25 36.5ZM60.8647 51.8673C60.5333 52.796 59.6537 53.4167 58.6667 53.4167H54.5833V58.6667C54.5833 59.9547 53.538 61 52.25 61C50.962 61 49.9167 59.9547 49.9167 58.6667V53.4167H45.8333C44.8463 53.4167 43.9667 52.796 43.6353 51.8673C43.304 50.9387 43.591 49.9003 44.3563 49.2773L50.773 44.0273C50.8827 43.9363 51.3073 43.7077 51.4077 43.6703C51.9513 43.458 52.551 43.458 53.0947 43.6703C53.195 43.71 53.6197 43.9363 53.7293 44.0273L60.146 49.2773C60.9067 49.9027 61.196 50.9387 60.8647 51.8673Z" fill="#008989"/>
</g>
<defs>
<clipPath id="clip0_1782_6241">
<rect width="56" height="56" fill="white" transform="translate(12 12)"/>
</clipPath>
</defs>
</svg>
