<svg width="80" height="80" viewBox="0 0 80 80" fill="none" xmlns="http://www.w3.org/2000/svg">
<rect width="80" height="80" rx="24" fill="#DBF0F0"/>
<g clip-path="url(#clip0_1775_5234)">
<path d="M49.7804 23.1377H34.7982C34.7414 23.1377 33.9922 23.1519 33.5612 23.8016C33.1292 24.4524 33.4081 25.1458 33.43 25.1983C33.675 25.778 33.92 26.3588 34.165 26.9385H50.4137L51.1487 25.1983C51.1706 25.1458 51.4495 24.4524 51.0175 23.8016C50.5854 23.1519 49.8373 23.1377 49.7804 23.1377Z" fill="#008989"/>
<path d="M25.5525 35.4598C24.9792 34.7599 23.9476 34.6573 23.2481 35.2313L21.7122 36.4918C21.7705 32.0959 23.1385 27.8931 25.6786 24.3199C28.2203 20.7444 31.7289 18.0645 35.8251 16.5698C36.6747 16.2598 37.1124 15.3189 36.8027 14.4681C36.4931 13.6176 35.5534 13.1789 34.7036 13.4893C29.9817 15.2123 25.9383 18.3 23.0105 22.4186C20.2047 26.3655 18.6387 30.9773 18.4533 35.8117L17.6234 35.0187C16.9694 34.3938 15.9327 34.4178 15.3083 35.073C14.6839 35.728 14.7083 36.7655 15.3625 37.3907L19.1196 40.9805C19.6935 41.5541 20.6782 41.596 21.2977 41.0716L25.3241 37.7671C26.0236 37.193 26.1258 36.16 25.5525 35.4598Z" fill="#008989"/>
<path d="M67.7169 33.0153C67.1522 29.2994 65.7522 25.769 63.5864 22.6469C61.575 19.7474 59.0077 17.3408 56.0388 15.5476L57.1263 15.2025C57.9884 14.929 58.4659 14.0076 58.1926 13.1445C57.9195 12.2813 56.999 11.8036 56.1372 12.077L51.176 13.6511C50.3805 13.8902 49.879 14.7714 50.073 15.579L51.009 20.6412C51.1549 21.4305 51.8432 21.9825 52.6172 21.9825C52.716 21.9825 52.8164 21.9734 52.9172 21.9547C53.8064 21.7898 54.3938 20.9345 54.2291 20.0443L53.8653 18.0771C56.6462 19.6591 59.0435 21.8482 60.8972 24.5196C62.306 26.5498 63.3414 28.78 63.9776 31.1285C64.4724 32.9553 64.7258 34.8535 64.7258 36.7847C64.7258 40.7186 63.6573 44.566 61.6358 47.9112C61.1676 48.6859 61.4154 49.6937 62.1891 50.1625C62.4541 50.323 62.7464 50.3994 63.0351 50.3994C63.5892 50.3994 64.13 50.1178 64.4376 49.6084C66.7684 45.7514 68.0005 41.317 68.0005 36.7848C68.0005 35.5131 67.9051 34.2539 67.7169 33.0153Z" fill="#008989"/>
<path d="M53.0251 31.8591C53.0251 30.9599 52.2845 30.2197 51.3845 30.2197H33.1932C32.2876 30.2197 31.5526 30.9542 31.5526 31.8591C31.5526 32.7652 32.2876 33.4986 33.1932 33.4986H33.5383C31.9347 36.0147 29.7722 40.1321 28.4365 45.6196C29.4876 45.4173 30.5551 45.3057 31.6281 45.2871C31.7298 45.286 31.8315 45.2849 31.9332 45.2849C35.0734 45.2849 38.184 46.0823 40.9293 47.5917C41.672 47.9963 42.6181 48.5115 43.5773 49.0343C43.795 48.7718 43.9306 48.4601 43.982 48.1571C44.0684 47.6452 43.9721 46.9627 43.025 46.6291C42.467 46.4281 42.1808 46.3286 41.5911 46.0888C40.4754 45.6349 39.6661 45.1974 39.0437 44.7085C37.9511 43.8543 37.449 42.3821 37.7345 40.8695C38.032 39.289 39.1126 38.0224 40.5695 37.5248V37.1868C40.5695 36.2823 41.3045 35.5473 42.2101 35.5473C42.2364 35.5473 42.2626 35.5484 42.2889 35.5495C43.1584 35.5899 43.8507 36.3085 43.8507 37.1868V37.4209C45.0375 37.7501 45.7615 38.3845 45.8687 38.4829C46.514 39.0965 46.549 40.1268 45.9496 40.7809C45.3536 41.4295 44.3342 41.4863 43.667 40.9121C43.6692 40.9143 43.6703 40.9154 43.6703 40.9165C43.6375 40.8902 43.1114 40.467 42.2889 40.5052C42.1631 40.4965 41.9345 40.5326 41.66 40.6157C41.1306 40.7754 40.9895 41.3135 40.9589 41.4754C40.9009 41.7849 40.9687 42.0507 41.0693 42.1295C41.3526 42.3515 41.7529 42.579 42.2889 42.8218C42.4551 42.8973 42.6345 42.9738 42.8281 43.0526C43.1901 43.1991 43.6123 43.3588 44.1198 43.5382C46.3587 44.3279 47.6045 46.4038 47.2173 48.7007C47.1079 49.3559 46.8531 50.0143 46.4692 50.6104C47.2567 51.0402 47.8407 51.3585 48.0125 51.4515C49.1357 52.0213 50.0064 53.0374 50.4111 54.2559C50.7326 55.2249 50.7414 56.2684 50.4493 57.2232L56.3479 55.0401C56.8248 53.9299 57.0829 52.717 57.0829 51.4646C56.593 43.8464 53.0966 36.634 51.0428 33.4986H51.3845C52.2844 33.4985 53.0251 32.7584 53.0251 31.8591Z" fill="#008989"/>
<path d="M61.9507 57.296C61.9409 57.2884 61.9299 57.2807 61.9201 57.2731C61.5055 56.9548 60.9619 56.8618 60.4632 57.0237L59.7194 57.2917L49.0755 61.2308C49.0733 61.2319 49.0711 61.233 49.0679 61.233C48.5057 61.4485 47.9172 61.5589 47.3168 61.5589C46.561 61.5589 45.8052 61.3796 45.1336 61.0416L37.1328 57.0363C36.3224 56.6305 35.9943 55.645 36.4 54.8346C36.8047 54.0241 37.7913 53.696 38.6007 54.1017L45.0718 57.2254C45.8715 57.5826 46.7249 57.3868 47.2101 56.5123C47.6128 55.7481 47.2767 54.7341 46.4981 54.363C46.4795 54.3532 39.3543 50.4705 39.3543 50.4705C37.0114 49.181 34.3602 48.5247 31.6816 48.5685C30.3122 48.5925 28.9505 48.8003 27.6347 49.1853L25.1246 49.9203C24.9747 49.9641 24.8205 49.986 24.6641 49.986H23.0049V61.268H24.6641C24.9189 61.268 25.1705 61.3271 25.398 61.4419L36.1058 66.8024C37.671 67.5855 39.4177 68 41.1568 68C42.6935 68 44.193 67.6905 45.6138 67.0791L61.5821 59.9976C62.3893 59.6498 62.7644 58.7081 62.4177 57.8965C62.3116 57.6493 62.1498 57.4416 61.9507 57.296Z" fill="#008989"/>
<path d="M18.0834 47.4766H13.6406C12.7346 47.4766 12 48.2111 12 49.1172V61.8364C12 62.7425 12.7346 63.477 13.6406 63.477H18.0834C18.9895 63.477 19.7241 62.7425 19.7241 61.8364V49.1172C19.7241 48.2111 18.9895 47.4766 18.0834 47.4766Z" fill="#008989"/>
</g>
<defs>
<clipPath id="clip0_1775_5234">
<rect width="56" height="56" fill="white" transform="translate(12 12)"/>
</clipPath>
</defs>
</svg>
