<svg width="429" height="246" viewBox="0 0 429 246" fill="none" xmlns="http://www.w3.org/2000/svg">
<g opacity="0.3">
<path d="M205.896 117.522L132.1 35.5269C130.526 33.7886 128.329 32.8047 126 32.8047H76.8025C73.5719 32.8047 70.6365 34.707 69.3081 37.6588C67.9962 40.6271 68.5374 44.0873 70.7021 46.4815L139.562 123L70.7021 199.502C68.5374 201.912 67.9798 205.373 69.3081 208.324C70.6365 211.293 73.5719 213.195 76.8025 213.195H126C128.329 213.195 130.526 212.195 132.1 210.489L205.896 128.493C208.701 125.378 208.701 120.622 205.896 117.522Z" fill="url(#paint0_linear_1660_13173)"/>
<path d="M99.3026 117.522L25.5066 35.5269C23.9323 33.7886 21.7348 32.8047 19.4061 32.8047H-29.7912C-33.0218 32.8047 -35.9573 34.707 -37.2856 37.6588C-38.5975 40.6271 -38.0564 44.0873 -35.8917 46.4815L32.9682 123L-35.8917 199.502C-38.0564 201.912 -38.6139 205.373 -37.2856 208.324C-35.9573 211.293 -33.0218 213.195 -29.7912 213.195H19.4061C21.7348 213.195 23.9323 212.195 25.5066 210.489L99.3026 128.493C102.107 125.378 102.107 120.622 99.3026 117.522Z" fill="url(#paint1_linear_1660_13173)"/>
<path d="M426.896 117.522L353.1 35.5269C351.526 33.7886 349.329 32.8047 347 32.8047H297.803C294.572 32.8047 291.636 34.707 290.308 37.6588C288.996 40.6271 289.537 44.0873 291.702 46.4815L360.562 123L291.702 199.502C289.537 201.912 288.98 205.373 290.308 208.324C291.636 211.293 294.572 213.195 297.803 213.195H347C349.329 213.195 351.526 212.195 353.1 210.489L426.896 128.493C429.701 125.378 429.701 120.622 426.896 117.522Z" fill="url(#paint2_linear_1660_13173)"/>
<path d="M320.303 117.522L246.507 35.5269C244.932 33.7886 242.735 32.8047 240.406 32.8047H191.209C187.978 32.8047 185.043 34.707 183.714 37.6588C182.402 40.6271 182.944 44.0873 185.108 46.4815L253.968 123L185.108 199.502C182.944 201.912 182.386 205.373 183.714 208.324C185.043 211.293 187.978 213.195 191.209 213.195H240.406C242.735 213.195 244.932 212.195 246.507 210.489L320.303 128.493C323.107 125.378 323.107 120.622 320.303 117.522Z" fill="url(#paint3_linear_1660_13173)"/>
</g>
<defs>
<linearGradient id="paint0_linear_1660_13173" x1="138.297" y1="32.8047" x2="138.297" y2="213.195" gradientUnits="userSpaceOnUse">
<stop stop-color="#26554F"/>
<stop offset="1" stop-color="#008989"/>
</linearGradient>
<linearGradient id="paint1_linear_1660_13173" x1="31.7029" y1="32.8047" x2="31.7029" y2="213.195" gradientUnits="userSpaceOnUse">
<stop stop-color="#26554F"/>
<stop offset="1" stop-color="#008989"/>
</linearGradient>
<linearGradient id="paint2_linear_1660_13173" x1="359.297" y1="32.8047" x2="359.297" y2="213.195" gradientUnits="userSpaceOnUse">
<stop stop-color="#26554F"/>
<stop offset="1" stop-color="#008989"/>
</linearGradient>
<linearGradient id="paint3_linear_1660_13173" x1="252.703" y1="32.8047" x2="252.703" y2="213.195" gradientUnits="userSpaceOnUse">
<stop stop-color="#26554F"/>
<stop offset="1" stop-color="#008989"/>
</linearGradient>
</defs>
</svg>
