<svg width="92" height="92" viewBox="0 0 92 92" fill="none" xmlns="http://www.w3.org/2000/svg">
<path d="M91.2133 43.9514L63.6148 13.2864C63.026 12.6363 62.2042 12.2683 61.3333 12.2683H42.9343C41.7261 12.2683 40.6283 12.9797 40.1315 14.0837C39.6409 15.1938 39.8433 16.4878 40.6529 17.3832L66.4053 45.9998L40.6529 74.6103C39.8433 75.5118 39.6348 76.8059 40.1315 77.9098C40.6283 79.0199 41.7261 79.7313 42.9343 79.7313H61.3333C62.2042 79.7313 63.026 79.3572 63.6148 78.7194L91.2133 48.0544C92.2621 46.8891 92.2621 45.1105 91.2133 43.9514Z" fill="url(#paint0_linear_2306_3063)"/>
<path d="M51.3489 43.9516L23.7504 13.2866C23.1617 12.6365 22.3398 12.2686 21.469 12.2686H3.06995C1.86175 12.2686 0.763941 12.98 0.267167 14.0839C-0.223473 15.194 -0.0210836 16.4881 0.788473 17.3835L26.5409 46.0001L0.788473 74.6105C-0.0210836 75.5121 -0.229606 76.8061 0.267167 77.9101C0.763941 79.0201 1.86175 79.7316 3.06995 79.7316H21.469C22.3398 79.7316 23.1617 79.3575 23.7504 78.7196L51.3489 48.0546C52.3977 46.8893 52.3977 45.1108 51.3489 43.9516Z" fill="url(#paint1_linear_2306_3063)"/>
<defs>
<linearGradient id="paint0_linear_2306_3063" x1="65.9321" y1="12.2683" x2="65.9321" y2="79.7313" gradientUnits="userSpaceOnUse">
<stop stop-color="#26554F"/>
<stop offset="1" stop-color="#008989"/>
</linearGradient>
<linearGradient id="paint1_linear_2306_3063" x1="26.0677" y1="12.2686" x2="26.0677" y2="79.7316" gradientUnits="userSpaceOnUse">
<stop stop-color="#26554F"/>
<stop offset="1" stop-color="#008989"/>
</linearGradient>
</defs>
</svg>
