<svg width="92" height="92" viewBox="0 0 92 92" fill="none" xmlns="http://www.w3.org/2000/svg">
<path d="M0.786682 43.9514L28.3852 13.2864C28.974 12.6363 29.7958 12.2683 30.6667 12.2683H49.0657C50.2739 12.2683 51.3717 12.9797 51.8685 14.0837C52.3591 15.1938 52.1567 16.4878 51.3471 17.3832L25.5947 45.9998L51.3471 74.6103C52.1567 75.5118 52.3652 76.8059 51.8685 77.9098C51.3717 79.0199 50.2739 79.7313 49.0657 79.7313H30.6667C29.7958 79.7313 28.974 79.3572 28.3852 78.7194L0.786682 48.0544C-0.262058 46.8891 -0.262058 45.1105 0.786682 43.9514Z" fill="url(#paint0_linear_2306_3070)"/>
<path d="M40.6511 43.9516L68.2496 13.2866C68.8383 12.6365 69.6602 12.2686 70.531 12.2686H88.9301C90.1383 12.2686 91.2361 12.98 91.7328 14.0839C92.2235 15.194 92.0211 16.4881 91.2115 17.3835L65.4591 46.0001L91.2115 74.6105C92.0211 75.5121 92.2296 76.8061 91.7328 77.9101C91.2361 79.0201 90.1383 79.7316 88.9301 79.7316H70.531C69.6602 79.7316 68.8383 79.3575 68.2496 78.7196L40.6511 48.0546C39.6023 46.8893 39.6023 45.1108 40.6511 43.9516Z" fill="url(#paint1_linear_2306_3070)"/>
<defs>
<linearGradient id="paint0_linear_2306_3070" x1="26.0679" y1="12.2683" x2="26.0679" y2="79.7313" gradientUnits="userSpaceOnUse">
<stop stop-color="#26554F"/>
<stop offset="1" stop-color="#008989"/>
</linearGradient>
<linearGradient id="paint1_linear_2306_3070" x1="65.9323" y1="12.2686" x2="65.9323" y2="79.7316" gradientUnits="userSpaceOnUse">
<stop stop-color="#26554F"/>
<stop offset="1" stop-color="#008989"/>
</linearGradient>
</defs>
</svg>
