<svg width="1441" height="467" viewBox="0 0 1441 467" fill="none" xmlns="http://www.w3.org/2000/svg">
<g clip-path="url(#clip0_2473_1796)">
<rect width="1441" height="467" rx="20" fill="white"/>
<g filter="url(#filter0_f_2473_1796)">
<path d="M1335.95 138.837C1456.2 271.434 1646.82 294.46 1477.91 447.641C1309 600.822 1074.59 617.509 954.339 484.912C834.088 352.315 873.533 120.646 1042.44 -32.5347C1211.35 -185.716 1215.69 6.23995 1335.95 138.837Z" fill="#2CA1A1" fill-opacity="0.5"/>
</g>
<g filter="url(#filter1_f_2473_1796)">
<ellipse cx="248.5" cy="212" rx="290.5" ry="291" fill="#56D0AB" fill-opacity="0.4"/>
</g>
<g opacity="0.6" filter="url(#filter2_f_2473_1796)">
<path d="M553 470.5C553 599.458 747.041 704 986.404 704C1225.77 704 940.195 599.458 940.195 470.5C940.195 341.542 1225.77 237 986.404 237C747.041 237 553 341.542 553 470.5Z" fill="#FEFEE3"/>
</g>
</g>
<defs>
<filter id="filter0_f_2473_1796" x="264.721" y="-709.135" width="1899.95" height="1903.53" filterUnits="userSpaceOnUse" color-interpolation-filters="sRGB">
<feFlood flood-opacity="0" result="BackgroundImageFix"/>
<feBlend mode="normal" in="SourceGraphic" in2="BackgroundImageFix" result="shape"/>
<feGaussianBlur stdDeviation="310" result="effect1_foregroundBlur_2473_1796"/>
</filter>
<filter id="filter1_f_2473_1796" x="-462" y="-499" width="1421" height="1422" filterUnits="userSpaceOnUse" color-interpolation-filters="sRGB">
<feFlood flood-opacity="0" result="BackgroundImageFix"/>
<feBlend mode="normal" in="SourceGraphic" in2="BackgroundImageFix" result="shape"/>
<feGaussianBlur stdDeviation="210" result="effect1_foregroundBlur_2473_1796"/>
</filter>
<filter id="filter2_f_2473_1796" x="233" y="-83" width="1169" height="1107" filterUnits="userSpaceOnUse" color-interpolation-filters="sRGB">
<feFlood flood-opacity="0" result="BackgroundImageFix"/>
<feBlend mode="normal" in="SourceGraphic" in2="BackgroundImageFix" result="shape"/>
<feGaussianBlur stdDeviation="160" result="effect1_foregroundBlur_2473_1796"/>
</filter>
<clipPath id="clip0_2473_1796">
<rect width="1441" height="467" rx="20" fill="white"/>
</clipPath>
</defs>
</svg>
