<svg width="80" height="80" viewBox="0 0 80 80" fill="none" xmlns="http://www.w3.org/2000/svg">
<rect width="80" height="80" rx="24" fill="#DBF0F0"/>
<path d="M39.125 47V48.8638C37.9315 46.7095 35.6372 45.25 33 45.25H27.75C27.75 49.1158 30.8842 52.25 34.75 52.25H39.125V56.625H40.875V47H44.375C48.2407 47 51.375 43.8658 51.375 40H46.125C42.2592 40 39.125 43.1342 39.125 47Z" fill="#008989"/>
<path d="M35.625 39.125H44.375V22.5H47.875L41.4219 14.4334C41.0763 14.0011 40.553 13.75 40 13.75C39.447 13.75 38.9237 14.0011 38.5781 14.4334L32.125 22.5H35.625V39.125Z" fill="#008989"/>
<path d="M23.9219 22.3084C23.5763 21.8761 23.053 21.625 22.5 21.625C21.947 21.625 21.4237 21.8761 21.0781 22.3084L14.625 30.375H18.125V47H21.625V48.75C20.1778 48.75 19 49.9277 19 51.375C19 52.8223 20.1778 54 21.625 54H23.375C23.858 54 24.25 54.392 24.25 54.875C24.25 55.358 23.858 55.75 23.375 55.75H21.625C21.142 55.75 20.75 55.358 20.75 54.875H19C19 56.3223 20.1778 57.5 21.625 57.5V59.25H23.375V57.5C24.8223 57.5 26 56.3223 26 54.875C26 53.4277 24.8223 52.25 23.375 52.25H21.625C21.142 52.25 20.75 51.858 20.75 51.375C20.75 50.892 21.142 50.5 21.625 50.5H23.375C23.858 50.5 24.25 50.892 24.25 51.375H26C26 49.9277 24.8223 48.75 23.375 48.75V47H26.875V30.375H30.375L23.9219 22.3084ZM22.5 38.25H20.75V36.5H22.5V38.25ZM22.5 34.75H20.75V33H22.5V34.75ZM22.5 31.25H20.75V29.5H22.5V31.25Z" fill="#008989"/>
<path d="M58.9219 17.9334C58.5763 17.5011 58.053 17.25 57.5 17.25C56.947 17.25 56.4237 17.5011 56.0781 17.9334L49.625 26H53.125V47H56.625V48.75C55.1778 48.75 54 49.9277 54 51.375C54 52.8223 55.1778 54 56.625 54H58.375C58.858 54 59.25 54.392 59.25 54.875C59.25 55.358 58.858 55.75 58.375 55.75H56.625C56.142 55.75 55.75 55.358 55.75 54.875H54C54 56.3223 55.1778 57.5 56.625 57.5V59.25H58.375V57.5C59.8223 57.5 61 56.3223 61 54.875C61 53.4277 59.8223 52.25 58.375 52.25H56.625C56.142 52.25 55.75 51.858 55.75 51.375C55.75 50.892 56.142 50.5 56.625 50.5H58.375C58.858 50.5 59.25 50.892 59.25 51.375H61C61 49.9277 59.8223 48.75 58.375 48.75V47H61.875V26H65.375L58.9219 17.9334ZM59.25 33.875H57.5V32.125H59.25V33.875ZM59.25 30.375H57.5V28.625H59.25V30.375ZM59.25 26.875H57.5V25.125H59.25V26.875Z" fill="#008989"/>
<path d="M48.75 61.876H47.875V63.626H46.125V61.876H44.375V63.626H42.625V61.876H40.875L40.8759 63.626H39.1259L39.125 61.876H37.375V63.626H35.625V61.876H33.875V63.626H32.125V61.876H31.25C30.767 61.876 30.375 62.268 30.375 62.751V64.501C30.375 64.984 30.767 65.376 31.25 65.376H48.75C49.233 65.376 49.625 64.984 49.625 64.501V62.751C49.625 62.268 49.233 61.876 48.75 61.876Z" fill="#008989"/>
<path d="M48.75 56.626H47.875V58.376H46.125V56.626H44.375V58.376H42.625V56.626H40.875L40.8759 58.376H39.1259L39.125 56.626H37.375V58.376H35.625V56.626H33.875V58.376H32.125V56.626H31.25C30.767 56.626 30.375 57.018 30.375 57.501V59.251C30.375 59.734 30.767 60.126 31.25 60.126H48.75C49.233 60.126 49.625 59.734 49.625 59.251V57.501C49.625 57.018 49.233 56.626 48.75 56.626Z" fill="#008989"/>
</svg>
