<svg width="80" height="80" viewBox="0 0 80 80" fill="none" xmlns="http://www.w3.org/2000/svg">
<rect width="80" height="80" rx="24" fill="#DBF0F0"/>
<path fill-rule="evenodd" clip-rule="evenodd" d="M29.8142 46.4801C29.3222 45.8895 28.8957 45.2662 28.502 44.5773C27.3538 42.5433 26.7305 40.2141 26.7305 37.852C26.7305 30.4051 32.7996 24.3359 40.2466 24.3359C47.7264 24.3359 53.7955 30.4051 53.7955 37.852C53.7955 40.2141 53.1722 42.5433 52.024 44.5773C51.6303 45.2662 51.2038 45.8895 50.7117 46.4801H29.8142ZM39.492 45.135C37.3596 44.7741 35.7521 42.9042 35.7521 40.6734C35.7521 40.2469 36.0802 39.9188 36.5067 39.9188C36.9332 39.9188 37.2612 40.2469 37.2612 40.6734C37.2612 42.0512 38.2126 43.2322 39.492 43.5603V37.6224C37.3596 37.2615 35.7521 35.4244 35.7521 33.1936C35.7521 30.9628 37.3596 29.0928 39.492 28.732V28.2727C39.492 27.879 39.8529 27.5181 40.2466 27.5181C40.6731 27.5181 41.0339 27.879 41.0339 28.2727V28.732C43.1663 29.0928 44.7738 30.9628 44.7738 33.1936C44.7738 33.6201 44.4458 33.9481 44.0193 33.9481C43.5928 33.9481 43.2319 33.6201 43.2319 33.1936C43.2319 31.8157 42.3134 30.6347 41.0339 30.3066V36.2445C43.1663 36.6054 44.7738 38.4426 44.7738 40.6734C44.7738 42.9042 43.1663 44.7741 41.0339 45.135V45.5943C41.0339 46.0208 40.6731 46.3488 40.2466 46.3488C39.8529 46.3488 39.492 46.0208 39.492 45.5943V45.135ZM41.0339 43.5603C42.3134 43.2322 43.2319 42.0512 43.2319 40.6734C43.2319 39.2955 42.3134 38.1473 41.0339 37.7864V43.5603ZM39.492 30.3066C38.2126 30.6347 37.2612 31.8157 37.2612 33.1936C37.2612 34.5714 38.2126 35.7197 39.492 36.0805V30.3066Z" fill="#008989"/>
<path fill-rule="evenodd" clip-rule="evenodd" d="M56.5512 61.6032H23.4499C23.0234 61.6032 22.6953 61.2751 22.6953 60.8487V48.776C22.6953 48.3495 23.0234 48.0215 23.4499 48.0215H56.5512C56.9777 48.0215 57.3057 48.3495 57.3057 48.776V60.8487C57.3057 61.2751 56.9777 61.6032 56.5512 61.6032ZM49.2026 53.861H30.7656C30.3391 53.861 30.0111 53.5329 30.0111 53.1064C30.0111 52.6799 30.3391 52.3519 30.7656 52.3519H49.2026C49.6291 52.3519 49.99 52.6799 49.99 53.1064C49.99 53.5329 49.6291 53.861 49.2026 53.861ZM46.8734 57.2728H33.0948C32.7012 57.2728 32.3403 56.9447 32.3403 56.5183C32.3403 56.0918 32.7012 55.7637 33.0948 55.7637H46.8734C47.2999 55.7637 47.6279 56.0918 47.6279 56.5183C47.6279 56.9447 47.2999 57.2728 46.8734 57.2728Z" fill="#008989"/>
<path fill-rule="evenodd" clip-rule="evenodd" d="M30.404 65.5725H12.9184C12.6231 65.5725 12.3606 65.4413 12.2294 65.1789C12.0982 64.9492 12.131 64.654 12.2622 64.3915L15.7725 58.8801L12.2622 53.139C12.0982 52.9094 12.0982 52.6141 12.2294 52.3517C12.3935 52.122 12.6231 51.958 12.9184 51.958H23.4491C23.8756 51.958 24.2036 52.3189 24.2036 52.7454V60.0939H30.404C30.8305 60.0939 31.1913 60.422 31.1913 60.8485V64.818C31.1913 65.2445 30.8305 65.5725 30.404 65.5725Z" fill="#008989"/>
<path fill-rule="evenodd" clip-rule="evenodd" d="M40.0495 22.2034C39.623 22.2034 39.2949 21.8753 39.2949 21.4488V15.1829C39.2949 14.7564 39.623 14.3955 40.0495 14.3955C40.4759 14.3955 40.804 14.7564 40.804 15.1829V21.4488C40.804 21.8753 40.4759 22.2034 40.0495 22.2034Z" fill="#008989"/>
<path fill-rule="evenodd" clip-rule="evenodd" d="M48.284 24.3027C48.1528 24.3027 48.0216 24.2699 47.8904 24.2043C47.5295 24.0075 47.3983 23.5154 47.6279 23.1545L50.7445 17.7087C50.9741 17.3479 51.4334 17.2166 51.7943 17.4463C52.1552 17.6431 52.2864 18.1352 52.0895 18.4961L48.9402 23.9419C48.8089 24.1715 48.5465 24.3027 48.284 24.3027Z" fill="#008989"/>
<path fill-rule="evenodd" clip-rule="evenodd" d="M54.3858 30.2407C54.0906 30.2407 53.8609 30.1095 53.6969 29.847C53.5001 29.4862 53.6313 29.0269 53.9922 28.7972L59.438 25.6807C59.7988 25.451 60.2581 25.5822 60.455 25.9431C60.6846 26.304 60.5534 26.7961 60.1925 26.9929L54.7467 30.1423C54.6155 30.2079 54.4842 30.2407 54.3858 30.2407Z" fill="#008989"/>
<path fill-rule="evenodd" clip-rule="evenodd" d="M25.9427 30.6018C25.8115 30.6018 25.6803 30.569 25.5491 30.5034L20.1033 27.354C19.7424 27.1572 19.6112 26.6979 19.8408 26.337C20.0376 25.9434 20.5297 25.8449 20.8906 26.0418L26.3036 29.1912C26.6973 29.388 26.7957 29.8473 26.5989 30.241C26.4676 30.4706 26.2052 30.6018 25.9427 30.6018Z" fill="#008989"/>
<path fill-rule="evenodd" clip-rule="evenodd" d="M31.8807 24.5325C31.6182 24.5325 31.3558 24.4012 31.1918 24.1388L28.0752 18.693C27.8455 18.3321 27.9768 17.8728 28.3376 17.6432C28.6985 17.4464 29.1906 17.5776 29.3874 17.9384L32.5368 23.3843C32.7336 23.7451 32.6024 24.2044 32.2416 24.434C32.1431 24.4997 32.0119 24.5325 31.8807 24.5325Z" fill="#008989"/>
<path fill-rule="evenodd" clip-rule="evenodd" d="M15.0839 50.449V40.1479H12.7875C12.4922 40.1479 12.2298 39.9839 12.0985 39.7214C11.9673 39.4918 12.0001 39.1637 12.1642 38.9341L17.5772 31.6839C17.7084 31.4871 17.938 31.3887 18.1677 31.3887C18.4301 31.3887 18.6598 31.4871 18.791 31.6839L24.1384 38.9013C24.2696 39.0325 24.3352 39.1965 24.3352 39.3934C24.3352 39.8198 24.0072 40.1479 23.5807 40.1479H21.2843V50.449H15.0839Z" fill="#008989"/>
<path fill-rule="evenodd" clip-rule="evenodd" d="M67.0816 65.5725H49.5631C49.1367 65.5725 48.8086 65.2445 48.8086 64.818V60.8485C48.8086 60.422 49.1367 60.0939 49.5631 60.0939H55.7635V52.7454C55.7635 52.3189 56.1244 51.958 56.5508 51.958H67.0816C67.344 51.958 67.6065 52.122 67.7377 52.3517C67.8689 52.6141 67.8689 52.9094 67.7377 53.139L64.1947 58.8801L67.7049 64.3915C67.8689 64.654 67.8689 64.9492 67.7377 65.1789C67.6065 65.4413 67.344 65.5725 67.0816 65.5725Z" fill="#008989"/>
<path fill-rule="evenodd" clip-rule="evenodd" d="M58.7157 50.449V40.1479H56.4193C56.1241 40.1479 55.8616 39.9839 55.7304 39.7214C55.5992 39.4918 55.632 39.1637 55.796 38.9341L61.209 31.6839C61.3402 31.4871 61.5699 31.3887 61.7995 31.3887C62.062 31.3887 62.2916 31.4871 62.4228 31.6839L67.7702 38.9013C67.9014 39.0325 67.9671 39.1965 67.9671 39.3934C67.9671 39.8198 67.6062 40.1479 67.2125 40.1479C67.1797 40.1479 67.1797 40.1479 67.1797 40.1479H64.9161V50.449H58.7157Z" fill="#008989"/>
</svg>
