<svg width="80" height="80" viewBox="0 0 80 80" fill="none" xmlns="http://www.w3.org/2000/svg">
<rect width="80" height="80" rx="24" fill="#B9E4E4"/>
<g clip-path="url(#clip0_1775_5125)">
<path d="M39.9415 57.2138L41.3557 55.7285L39.9929 54.2158L38.5371 55.8783L39.9415 57.2138Z" fill="#008989"/>
<path d="M44.1117 50.2646L41.5195 52.6414L43.0945 54.3914C43.2128 52.9706 43.5561 51.5776 44.1117 50.2646Z" fill="#008989"/>
<path d="M31.6148 49.8235C31.3293 50.0619 31.0285 50.2872 30.7168 50.5016L35.7776 55.7035L38.4518 52.6475L33.3418 47.9619C32.8492 48.6546 32.2687 49.2804 31.6148 49.8235Z" fill="#008989"/>
<path d="M29.1556 25.4145C29.2683 24.6029 29.455 23.8034 29.7134 23.0258C30.9877 19.2359 33.5273 19.423 34.9284 19.8714C37.0295 20.5452 43.1895 20.357 45.0861 19.8561C46.8011 19.4022 49.0892 19.5848 50.2464 23.028C50.3 23.1888 50.3492 23.3495 50.3962 23.5103C50.6314 21.7833 50.6741 19.7259 50.2573 17.0572C49.892 14.7253 49.3441 12.7916 47.9473 11.082C46.3975 12.0577 44.677 11.8706 43.2606 11.7175C43.0998 11.7 42.9413 11.6825 42.7838 11.6672C37.7941 11.1772 34.2175 12.3748 31.528 15.433C31.2698 15.725 31.0292 15.9897 30.7962 16.2456C29.2552 17.9398 28.5519 18.712 28.6591 21.3491C28.7293 22.7142 28.8952 24.0727 29.1556 25.4145Z" fill="#008989"/>
<path d="M30.9017 38.0068C31.3206 39.6102 32.6582 40.8156 34.0736 42.092L34.4848 42.4638C34.4919 42.472 34.4996 42.4797 34.5078 42.4868L34.5362 42.5163C34.5524 42.5323 34.5677 42.5491 34.5821 42.5667L34.6051 42.5951C34.6193 42.6137 34.6346 42.6323 34.6478 42.652C34.6609 42.6717 34.6598 42.6717 34.6664 42.6804L34.7036 42.7417L34.72 42.7745C34.7309 42.7943 34.7408 42.8148 34.7495 42.8357C34.7556 42.8482 34.7611 42.861 34.7659 42.874C34.7736 42.8937 34.7812 42.9134 34.7878 42.9331C34.7943 42.9527 34.7965 42.9626 34.7998 42.9779C34.8031 42.9932 34.8107 43.0162 34.8151 43.0359C34.8195 43.0556 34.8217 43.0665 34.8239 43.0829C34.8261 43.0993 34.8304 43.1223 34.8337 43.142C34.837 43.1617 34.8337 43.1726 34.8337 43.1879V43.2513V43.2743C34.8359 44.1876 34.6824 45.0945 34.3798 45.9562L39.97 51.0826L45.5601 45.9573C45.2571 45.0954 45.104 44.1879 45.1073 43.2743C45.1073 43.2656 45.1073 43.2579 45.1073 43.2502V43.1901C45.1073 43.1737 45.1073 43.1573 45.1073 43.1409C45.1073 43.1245 45.1128 43.1037 45.1161 43.0851L45.1259 43.0348C45.1259 43.0162 45.1346 42.9976 45.1401 42.9801C45.1456 42.9626 45.1489 42.9484 45.1543 42.932C45.1598 42.9156 45.1675 42.8948 45.174 42.8762C45.1806 42.8576 45.185 42.8477 45.1915 42.8346C45.1981 42.8215 45.2101 42.7952 45.22 42.7756L45.2375 42.7406L45.2736 42.6826L45.2943 42.6509C45.3064 42.6323 45.3206 42.6148 45.3348 42.5962L45.36 42.5667C45.3736 42.5495 45.3883 42.533 45.4037 42.5174L45.4343 42.4868L45.4562 42.4638L45.8675 42.092C47.2828 40.8156 48.6204 39.6102 49.0393 38.0068C49.4543 36.3464 50.2522 34.8062 51.369 33.5093C52.5054 32.1542 52.5164 31.5198 52.4682 31.3109C52.3971 30.9992 52.0045 30.7476 51.6545 30.5802C51.5451 30.6688 51.3504 30.9696 51.217 31.1731C51.1021 31.3492 50.9709 31.5482 50.8221 31.7484L50.8046 31.7735C50.7959 31.7856 50.785 31.7976 50.7762 31.8085C50.7675 31.8195 50.7631 31.826 50.7554 31.8337C50.7135 31.8825 50.667 31.9272 50.6165 31.9671L50.599 31.9813L50.54 32.024L50.5137 32.0404L50.4579 32.0743L50.4284 32.0896C50.4085 32.1002 50.3881 32.1097 50.3671 32.1181L50.3409 32.1301C50.3125 32.1421 50.2829 32.152 50.2534 32.1618L50.225 32.1695L50.1593 32.1859L50.1254 32.1924C50.1025 32.1924 50.0806 32.2001 50.0576 32.2023H50.0292C49.9927 32.2043 49.9562 32.2043 49.9198 32.2023H49.8826C49.8564 32.2023 49.8301 32.2001 49.8039 32.1957H49.7754C49.7492 32.1957 49.7229 32.187 49.6967 32.1815L49.6704 32.176C49.6431 32.1695 49.6168 32.1618 49.5906 32.1531H49.5851L49.5425 32.1367L49.4932 32.117L49.4528 32.0984L49.4036 32.0721L49.3686 32.0524L49.3095 32.0142L49.2887 31.9999C49.2635 31.9813 49.2384 31.9606 49.2143 31.9398L49.1968 31.9234C49.1782 31.907 49.1607 31.8906 49.1443 31.8731L49.1225 31.849L49.0798 31.7987L49.059 31.7724C49.0448 31.7538 49.0317 31.7342 49.0196 31.7156L49.0043 31.6926C48.9879 31.6663 48.9726 31.639 48.9584 31.6117C48.953 31.6014 48.9483 31.5908 48.9442 31.5799C48.9354 31.5613 48.9267 31.5427 48.919 31.5242C48.9114 31.5056 48.9092 31.499 48.9048 31.4859L48.8862 31.4312C48.8862 31.4181 48.8786 31.4049 48.8753 31.3918C48.872 31.3787 48.8643 31.3459 48.86 31.3218C48.8575 31.3136 48.8557 31.3052 48.8545 31.2967C48.8492 31.2644 48.8455 31.2319 48.8435 31.1993C48.8435 31.1895 48.8435 31.1796 48.8435 31.1698C48.8435 31.1599 48.8435 31.1381 48.8435 31.1217C48.8435 30.8209 48.8435 30.5245 48.8435 30.2302C48.8435 27.8032 48.8348 25.7076 48.1665 23.7235C47.542 21.8642 46.7676 21.6727 45.64 21.9735C43.4186 22.5631 36.8276 22.7818 34.2595 21.956C33.402 21.6815 32.504 21.5918 31.7876 23.7235C31.1193 25.7065 31.1161 27.7999 31.1106 30.2237V31.1052V31.1173C31.1111 31.3442 31.0411 31.5656 30.9102 31.751C30.7793 31.9363 30.5941 32.0763 30.38 32.1517C30.166 32.227 29.9339 32.2339 29.7157 32.1715C29.4976 32.109 29.3043 31.9803 29.1626 31.8031L29.1254 31.7538L29.1101 31.7342C28.9668 31.5406 28.8411 31.347 28.7295 31.1763C28.5961 30.9729 28.4014 30.6732 28.292 30.5846C28.2121 30.6229 28.14 30.6612 28.0732 30.694L28.0361 30.7148C27.6981 30.9149 27.5067 31.1249 27.4695 31.3393C27.4323 31.5537 27.4695 32.1881 28.5753 33.5115C29.6902 34.8084 30.4868 36.3477 30.9017 38.0068Z" fill="#008989"/>
<path d="M28.4297 51.7516C28.4505 51.7418 28.4647 51.733 28.4745 51.7275C28.4603 51.7363 28.445 51.7439 28.4297 51.7516Z" fill="#008989"/>
<path d="M67.9999 55.539C67.9999 53.2875 67.3323 51.0866 66.0814 49.2146C64.8306 47.3425 63.0527 45.8834 60.9726 45.0218C58.8924 44.1602 56.6035 43.9348 54.3953 44.374C52.1871 44.8133 50.1587 45.8975 48.5667 47.4895C46.9746 49.0815 45.8904 51.1099 45.4512 53.3182C45.0119 55.5264 45.2374 57.8153 46.099 59.8954C46.9606 61.9755 48.4197 63.7534 50.2917 65.0043C52.1638 66.2551 54.3647 66.9228 56.6162 66.9228C59.6343 66.9193 62.5278 65.7188 64.6619 63.5847C66.796 61.4506 67.9965 58.5571 67.9999 55.539ZM56.4291 62.1136C54.7003 62.1114 53.0417 61.4291 51.8119 60.214C50.5821 58.9989 49.8798 57.3487 49.8568 55.62L49.6665 55.8136C49.4611 56.0188 49.1826 56.134 48.8923 56.1339C48.6019 56.1338 48.3235 56.0184 48.1183 55.813C47.9131 55.6076 47.7978 55.3291 47.7979 55.0388C47.798 54.7485 47.9135 54.47 48.1188 54.2648L50.1281 52.2556C50.2327 52.1512 50.3573 52.069 50.4946 52.0141C50.6318 51.9593 50.7787 51.9327 50.9265 51.9362H50.9495C51.1383 51.9364 51.3239 51.9854 51.4881 52.0786C51.6524 52.1717 51.7897 52.3058 51.8868 52.4678L53.686 54.2659C53.7906 54.3667 53.874 54.4874 53.9314 54.6208C53.9888 54.7542 54.0191 54.8977 54.0204 55.0429C54.0218 55.1881 53.9942 55.3322 53.9393 55.4666C53.8844 55.6011 53.8033 55.7232 53.7007 55.826C53.5981 55.9288 53.476 56.0101 53.3416 56.0652C53.2072 56.1202 53.0632 56.148 52.918 56.1469C52.7728 56.1457 52.6292 56.1156 52.4958 56.0584C52.3623 56.0012 52.2415 55.9179 52.1406 55.8136L52.0509 55.7239C52.099 56.8528 52.5807 57.9197 53.3956 58.7024C54.2105 59.4851 55.2959 59.9234 56.4259 59.9261C56.7159 59.9261 56.9941 60.0413 57.1993 60.2464C57.4044 60.4515 57.5196 60.7297 57.5196 61.0198C57.5196 61.3099 57.4044 61.5881 57.1993 61.7932C56.9941 61.9983 56.7159 62.1136 56.4259 62.1136H56.4291ZM62.3354 59.1462H62.2884C62.0995 59.1461 61.9139 59.097 61.7497 59.0039C61.5854 58.9107 61.4481 58.7766 61.351 58.6147L59.5518 56.8165C59.3521 56.6107 59.2412 56.3346 59.2431 56.0478C59.2449 55.761 59.3594 55.4864 59.5618 55.2832C59.7642 55.0799 60.0383 54.9643 60.3251 54.9612C60.6119 54.9581 60.8884 55.0678 61.0951 55.2667L61.1848 55.3564C61.1366 54.2265 60.6542 53.1588 59.8381 52.376C59.022 51.5931 57.9352 51.1554 56.8043 51.1542C56.5142 51.1542 56.236 51.0389 56.0309 50.8338C55.8258 50.6287 55.7106 50.3505 55.7106 50.0604C55.7106 49.7704 55.8258 49.4922 56.0309 49.287C56.236 49.0819 56.5142 48.9667 56.8043 48.9667C58.5331 48.9688 60.1917 49.6512 61.4215 50.8663C62.6514 52.0814 63.3537 53.7316 63.3766 55.4603L63.567 55.2689C63.6687 55.1672 63.7894 55.0867 63.9222 55.0317C64.055 54.9767 64.1974 54.9485 64.3412 54.9485C64.4849 54.9486 64.6273 54.9769 64.7601 55.032C64.8929 55.087 65.0135 55.1677 65.1152 55.2694C65.2168 55.3711 65.2974 55.4918 65.3523 55.6247C65.4073 55.7575 65.4356 55.8999 65.4355 56.0436C65.4355 56.1874 65.4071 56.3297 65.352 56.4625C65.297 56.5953 65.2163 56.716 65.1146 56.8176L63.1054 58.8268C63.0036 58.9283 62.8829 59.0088 62.75 59.0636C62.6171 59.1184 62.4748 59.1465 62.331 59.1462H62.3354Z" fill="#008989"/>
<path d="M37.0939 57.528L36.6444 58.0421C36.5449 58.1561 36.4229 58.2481 36.286 58.3125C36.1492 58.3769 36.0004 58.4122 35.8492 58.4162H35.8208C35.6746 58.4167 35.5298 58.388 35.3949 58.3316C35.26 58.2753 35.1378 58.1924 35.0355 58.088L28.7431 51.6152C28.6513 51.6568 28.5605 51.6995 28.4675 51.7388L28.4194 51.7596H28.4095L27.5345 52.1752C26.7952 52.5252 26.0295 52.8884 25.2814 53.2482C23.8256 53.9537 22.0505 54.5005 20.3333 55.0387C18.7594 55.5287 17.1319 56.0318 15.8642 56.6279C14.9728 57.0446 14.2542 57.6943 13.668 58.6141C13.0019 59.6587 12.5611 60.911 12.2461 62.672C12.1706 63.0624 12.07 65.1198 12 66.9223H35.4773L38.6361 58.9948L37.0939 57.528Z" fill="#008989"/>
<path d="M43.2364 57.8145L42.8252 57.3584L41.2031 59.0614L44.3356 66.9221H49.2312C47.6577 65.8998 46.3127 64.5629 45.281 62.9955C44.2493 61.428 43.5532 59.6641 43.2364 57.8145Z" fill="#008989"/>
<path d="M64 66.9222H67.9605C67.908 65.5747 67.838 64.0839 67.7767 63.2549C66.7673 64.7104 65.4846 65.956 64 66.9222Z" fill="#008989"/>
<path d="M37.834 66.9227H41.9804L39.9077 61.7197L37.834 66.9227Z" fill="#008989"/>
</g>
<defs>
<clipPath id="clip0_1775_5125">
<rect width="56" height="56" fill="white" transform="translate(12 11)"/>
</clipPath>
</defs>
</svg>
