<svg width="80" height="80" viewBox="0 0 80 80" fill="none" xmlns="http://www.w3.org/2000/svg">
<rect width="80" height="80" rx="24" fill="#B9E4E4"/>
<path fill-rule="evenodd" clip-rule="evenodd" d="M26.4931 13.75H54C57.866 13.75 61 16.884 61 20.75V36.2162C58.426 34.7272 55.4375 33.875 52.25 33.875C45.4176 33.875 39.4997 37.7905 36.6178 43.5H27.75C25.817 43.5 24.25 45.067 24.25 47V59.25H36.6178C37.2548 60.5119 38.04 61.6863 38.9507 62.75H20.75C16.884 62.75 13.75 59.616 13.75 55.75V27.0835C13.75 25.3452 14.3968 23.6692 15.5644 22.3814L21.3076 16.0479C22.6344 14.5846 24.5177 13.75 26.4931 13.75ZM47 24.25V17.25H27.75V24.25C27.75 26.183 29.317 27.75 31.25 27.75H43.5C45.433 27.75 47 26.183 47 24.25Z" fill="#008989"/>
<path d="M66.25 53.1253C66.25 52.1588 65.4665 51.3753 64.5 51.3753C63.5335 51.3753 62.75 52.1588 62.75 53.1253C62.75 58.4411 58.4407 62.7503 53.125 62.7503C47.8093 62.7503 43.5 58.4411 43.5 53.1253C43.5 47.8096 47.8093 43.5003 53.125 43.5003C54.7858 43.5003 56.3478 43.9203 57.7114 44.6608L56.7402 44.8428C55.7902 45.0208 55.1644 45.9352 55.3424 46.8852C55.5205 47.8351 56.4349 48.4609 57.3848 48.2829L62.0542 47.4079C62.5156 47.3215 62.923 47.0532 63.1847 46.6635C63.4464 46.2737 63.5406 45.7952 63.4461 45.3354L62.2766 39.6479C62.082 38.7012 61.1568 38.0915 60.21 38.2862C59.2634 38.4808 58.6537 39.406 58.8484 40.3528L59.0678 41.4201C57.2837 40.5126 55.2639 40.0003 53.125 40.0003C45.8762 40.0003 40 45.8766 40 53.1253C40 60.3741 45.8762 66.2503 53.125 66.2503C60.3738 66.2503 66.25 60.3741 66.25 53.1253Z" fill="#008989"/>
</svg>
