<svg width="80" height="80" viewBox="0 0 80 80" fill="none" xmlns="http://www.w3.org/2000/svg">
<rect width="80" height="80" rx="24" fill="#B2DADA"/>
<g clip-path="url(#clip0_1782_6271)">
<path d="M33.9665 15.0357H46.5907C46.9671 15.0357 47.273 14.7293 47.273 14.3534V12.3333H33.2841V14.3534C33.2841 14.7293 33.5901 15.0357 33.9665 15.0357Z" fill="#008989"/>
<path d="M54.5359 12.3333H50.5544V14.3534C50.5544 16.5387 48.7762 18.3174 46.5909 18.3174H33.9666C31.7812 18.3174 30.003 16.5387 30.003 14.3534V12.3333H26.0215C22.877 12.3333 20.3178 14.8896 20.3178 18.0307V56.7712C20.3178 59.7923 22.6847 62.2716 25.6631 62.4566C24.8231 60.5216 24.3582 58.3879 24.3582 56.1444C24.3582 47.3662 31.486 40.25 40.2787 40.25C49.0714 40.25 56.1992 47.3662 56.1992 56.1444C56.1992 58.3879 55.7343 60.5216 54.8944 62.4566C57.8727 62.2716 60.2397 59.7923 60.2397 56.7712V18.0307C60.2397 14.8896 57.6813 12.3333 54.5359 12.3333ZM36.445 33.3718C36.445 34.2784 35.7102 35.0124 34.8044 35.0124C33.8978 35.0124 33.1638 34.2784 33.1638 33.3718V25.8826C33.1638 24.976 33.8978 24.242 34.8044 24.242C35.7102 24.242 36.445 24.976 36.445 25.8826V33.3718ZM41.9193 33.3564C41.9193 34.2617 41.1845 34.997 40.2787 34.997C39.373 34.997 38.6381 34.2617 38.6381 33.3564V29.4014C38.6381 28.4948 39.373 27.7608 40.2787 27.7608C41.1845 27.7608 41.9193 28.4948 41.9193 29.4014V33.3564ZM47.3642 33.3564C47.3642 34.2617 46.6302 34.997 45.7235 34.997C44.8178 34.997 44.0829 34.2617 44.0829 33.3564V25.8664C44.0829 24.9606 44.8178 24.2257 45.7235 24.2257C46.6302 24.2257 47.3642 24.9606 47.3642 25.8664V33.3564Z" fill="#008989"/>
<path d="M40.2787 43.9547C33.5359 43.9547 28.0692 49.4128 28.0692 56.1444C28.0692 62.8766 33.5359 68.3333 40.2787 68.3333C47.0215 68.3333 52.4881 62.8766 52.4881 56.1444C52.4881 49.4128 47.0215 43.9547 40.2787 43.9547ZM43.9974 58.9643H41.4087C39.8809 58.9643 38.638 57.721 38.638 56.1931V51.2589C38.638 50.3527 39.3725 49.6183 40.2787 49.6183C41.1848 49.6183 41.9193 50.3527 41.9193 51.2589V55.683H43.9974C44.9036 55.683 45.638 56.4174 45.638 57.3236C45.638 58.2294 44.9036 58.9643 43.9974 58.9643Z" fill="#008989"/>
</g>
<defs>
<clipPath id="clip0_1782_6271">
<rect width="56" height="56" fill="white" transform="translate(12.334 12.3335)"/>
</clipPath>
</defs>
</svg>
