<svg width="80" height="80" viewBox="0 0 80 80" fill="none" xmlns="http://www.w3.org/2000/svg">
<rect width="80" height="80" rx="24" fill="#DBF0F0"/>
<path d="M19 52.25V19H22.5V22.5C22.5 23.4673 23.2836 24.25 24.25 24.25H33C33.9664 24.25 34.75 23.4673 34.75 22.5V19H38.25V48.75H41.75V17.25C41.75 16.2827 40.9664 15.5 40 15.5H17.25C16.2836 15.5 15.5 16.2827 15.5 17.25V54C15.5 54.9673 16.2836 55.75 17.25 55.75H29.6769C29.9421 54.4489 30.5208 53.2724 31.2948 52.25H19ZM31.25 19V20.75H26V19H31.25Z" fill="#008989"/>
<path d="M28.9873 26.5127C28.3037 25.8291 27.1963 25.8291 26.5127 26.5127L24.25 28.7754L23.7373 28.2627C23.0537 27.5791 21.9463 27.5791 21.2627 28.2627C20.5791 28.9463 20.5791 30.0537 21.2627 30.7373L23.0127 32.4873C23.3545 32.8291 23.8022 33 24.25 33C24.6978 33 25.1455 32.8291 25.4873 32.4873L28.9873 28.9873C29.6709 28.3037 29.6709 27.1963 28.9873 26.5127Z" fill="#008989"/>
<path d="M28.9873 35.2627C28.3037 34.5791 27.1963 34.5791 26.5127 35.2627L24.25 37.5254L23.7373 37.0127C23.0537 36.3291 21.9463 36.3291 21.2627 37.0127C20.5791 37.6963 20.5791 38.8037 21.2627 39.4873L23.0127 41.2373C23.3545 41.5791 23.8022 41.75 24.25 41.75C24.6978 41.75 25.1455 41.5791 25.4873 41.2373L28.9873 37.7373C29.6709 37.0537 29.6709 35.9463 28.9873 35.2627Z" fill="#008989"/>
<path d="M26.5127 44.0127L24.25 46.2754L23.7373 45.7627C23.0537 45.0791 21.9463 45.0791 21.2627 45.7627C20.5791 46.4463 20.5791 47.5537 21.2627 48.2373L23.0127 49.9873C23.3545 50.3291 23.8022 50.5 24.25 50.5C24.6978 50.5 25.1455 50.3291 25.4873 49.9873L28.9873 46.4873C29.6709 45.8037 29.6709 44.6963 28.9873 44.0127C28.3037 43.3291 27.1963 43.3291 26.5127 44.0127Z" fill="#008989"/>
<path d="M57.5 45.25H48.75C45.4979 45.25 42.7811 47.4891 41.9984 50.5H38.25C34.3903 50.5 31.25 53.6394 31.25 57.5C31.25 61.3606 34.3903 64.5 38.25 64.5H47C50.2521 64.5 52.9689 62.2609 53.7516 59.25H57.5C61.3597 59.25 64.5 56.1106 64.5 52.25C64.5 48.3894 61.3597 45.25 57.5 45.25ZM47 61H38.25C36.3197 61 34.75 59.4294 34.75 57.5C34.75 55.5706 36.3197 54 38.25 54H41.9984C42.7811 57.0109 45.4979 59.25 48.75 59.25H50.013C49.4059 60.2909 48.2897 61 47 61ZM45.737 54H47C48.2897 54 49.4059 54.7091 50.013 55.75H48.75C47.4603 55.75 46.3441 55.0409 45.737 54ZM57.5 55.75H53.7516C52.9689 52.7391 50.2521 50.5 47 50.5H45.737C46.3441 49.4591 47.4603 48.75 48.75 48.75H57.5C59.4303 48.75 61 50.3206 61 52.25C61 54.1794 59.4303 55.75 57.5 55.75Z" fill="#008989"/>
<path d="M62.75 24.25H45.25C44.2836 24.25 43.5 25.0327 43.5 26V40C43.5 40.9673 44.2836 41.75 45.25 41.75H62.75C63.7164 41.75 64.5 40.9673 64.5 40V26C64.5 25.0327 63.7164 24.25 62.75 24.25ZM55.75 27.75V30.5254L55.2373 30.0127C54.5537 29.3291 53.4463 29.3291 52.7627 30.0127L52.25 30.5254V27.75H55.75ZM61 38.25H47V27.75H48.75V34.75C48.75 35.4575 49.1764 36.0967 49.8301 36.3667C50.4846 36.6401 51.2366 36.488 51.7373 35.9873L54 33.7246L56.2627 35.9873C56.5977 36.3223 57.0446 36.5 57.5 36.5C57.7256 36.5 57.9529 36.4573 58.1699 36.3667C58.8236 36.0967 59.25 35.4575 59.25 34.75V27.75H61V38.25Z" fill="#008989"/>
</svg>
