<svg width="128" height="128" viewBox="0 0 128 128" fill="none" xmlns="http://www.w3.org/2000/svg">
<path opacity="0.2" d="M104 0H24C10.7452 0 0 10.7452 0 24V104C0 117.255 10.7452 128 24 128H104C117.255 128 128 117.255 128 104V24C128 10.7452 117.255 0 104 0Z" fill="#FCAA2F"/>
<path d="M111.224 64.2879C110.224 63.2879 108.624 63.1879 107.524 64.0879C104.924 18.4879 42.6245 7.08788 24.1245 49.0879C23.5245 50.4879 24.1245 52.1879 25.6245 52.7879C27.0245 53.3879 28.7245 52.7879 29.3245 51.2879C45.3245 14.8879 99.2245 24.4879 101.924 63.9879C100.824 63.1879 99.3245 63.2879 98.3245 64.2879C97.2245 65.3879 97.2245 67.1879 98.3245 68.2879L102.824 72.7879C103.824 73.8879 105.724 73.8879 106.824 72.7879L111.324 68.2879C112.424 67.1879 112.424 65.3879 111.324 64.2879H111.224Z" fill="#FCAA2F"/>
<path d="M102.525 79.7879C101.125 79.1879 99.425 79.7879 98.825 81.2879C82.825 117.688 28.925 108.088 26.225 68.5879C27.325 69.3879 28.825 69.2879 29.825 68.2879C30.925 67.1879 30.925 65.3879 29.825 64.2879L25.325 59.7879C24.325 58.6879 22.425 58.6879 21.325 59.7879L16.825 64.2879C15.725 65.3879 15.725 67.1879 16.825 68.2879C17.825 69.2879 19.425 69.3879 20.525 68.4879C23.125 114.088 85.425 125.488 103.925 83.4879C104.525 82.0879 103.925 80.3879 102.425 79.7879H102.525Z" fill="#FCAA2F"/>
<path d="M64.025 93.1883C78.825 93.1883 90.925 81.0883 90.925 66.2883C89.525 30.5883 38.425 30.6883 37.125 66.2883C37.125 81.0883 49.225 93.1883 64.025 93.1883ZM61.225 53.3883V52.6883C61.325 48.9883 66.725 48.9883 66.825 52.6883V53.2883C68.525 53.7883 69.825 54.4883 70.525 55.2883C73.125 57.9883 69.425 61.7883 66.625 59.2883C64.825 57.8883 60.925 58.2883 60.825 61.7883C60.825 62.0883 60.825 62.1883 61.325 62.4883C62.125 62.9883 63.425 63.2883 64.725 63.5883C66.425 63.9883 68.125 64.4883 69.625 65.2883C75.925 69.0883 72.325 77.4883 66.925 79.1883V79.8883C66.825 83.5883 61.425 83.5883 61.325 79.8883V79.2883C59.625 78.7883 58.325 78.0883 57.625 77.2883C55.025 74.5883 58.725 70.7883 61.525 73.2883C63.325 74.6883 67.225 74.2883 67.325 70.7883C67.325 70.4883 67.325 70.3883 66.825 70.0883C66.025 69.5883 64.725 69.2883 63.425 68.9883C61.725 68.5883 60.025 68.0883 58.525 67.2883C52.225 63.4883 55.825 55.0883 61.225 53.3883Z" fill="#FCAA2F"/>
</svg>
