<svg width="129" height="129" viewBox="0 0 129 129" fill="none" xmlns="http://www.w3.org/2000/svg">
<rect x="0.5" y="0.5" width="128" height="128" rx="24" fill="#FCAA2F" fill-opacity="0.2"/>
<path d="M106.318 97.0234H77.8975C75.4905 97.0234 73.5322 98.7406 73.5322 100.851C73.5322 102.961 75.4905 104.679 77.8975 104.679H106.318C108.725 104.679 110.683 102.961 110.683 100.851C110.683 98.7406 108.725 97.0234 106.318 97.0234Z" fill="#FCAA2F"/>
<path d="M106.318 85.499H77.8975C75.4905 85.499 73.5322 87.216 73.5322 89.3264C73.5322 91.4371 75.4905 93.154 77.8975 93.154H106.318C108.725 93.154 110.683 91.4371 110.683 89.3265C110.683 87.2162 108.725 85.499 106.318 85.499Z" fill="#FCAA2F"/>
<path d="M79.0389 81.6241C73.6852 78.1165 70.213 72.5132 70.213 66.2107C70.213 58.8956 74.9524 52.273 82.2551 49.0411C79.0248 44.9773 75.4309 41.1572 70.7798 38.2815H81.9428C83.1616 38.2815 84.1495 37.4152 84.1495 36.3466C84.1495 35.2779 83.1616 34.4116 81.9428 34.4116H69.7339L73.3886 24H41.191C42.5667 27.8378 44.1315 32.1956 44.933 34.4116H32.6181C31.3993 34.4116 30.4114 35.2779 30.4114 36.3466C30.4114 37.4152 31.3993 38.2815 32.6181 38.2815H43.9745C40.9673 40.1465 38.0203 42.6321 35.6192 45.3364C22.2664 60.3012 16.0431 77.6333 18.5416 92.8919C18.5438 92.9057 18.546 92.9195 18.5478 92.9334C19.4364 99.3449 25.3135 104.02 33.5209 104.845C46.2739 106.113 58.5382 107.142 71.3967 106.018C68.1614 102.891 68.4603 97.9027 72.0838 95.0883C65.1198 89.6796 71.1848 81.6543 79.0389 81.6241ZM66.5209 50.2592L58.2837 39.8732L50.0465 50.2592C49.3508 51.1369 47.9756 51.3533 46.9748 50.7431C45.9743 50.1329 45.7272 48.9272 46.423 48.0497L54.1704 38.2815H62.3969L70.1443 48.0497C70.8402 48.927 70.593 50.1329 69.5924 50.7431C68.4929 51.3317 67.4689 51.1704 66.5209 50.2592Z" fill="#FCAA2F"/>
<path d="M74.626 66.2098C74.626 74.6752 82.4683 81.5623 92.1078 81.5623C101.747 81.5623 109.59 74.6752 109.59 66.2098C109.59 57.7447 101.747 50.8574 92.1078 50.8574C82.4683 50.8574 74.626 57.7447 74.626 66.2098ZM89.9011 56.6875V54.1087H94.3147V56.5575H97.7467V60.4274H91.2878C88.4732 60.4274 88.4732 64.2551 91.2878 64.2551H92.9281C96.8297 64.2551 99.1899 66.9193 99.5181 70.0771C99.5181 72.8487 97.2846 75.1702 94.3145 75.7307V78.3109H89.9009V75.8606H86.469V71.9907H92.9279C95.6697 71.9907 95.7973 68.1248 92.9279 68.1248H91.2876C83.7616 68.125 82.3913 58.1049 89.9011 56.6875Z" fill="#FCAA2F"/>
</svg>
