<svg width="24" height="24" viewBox="0 0 24 24" fill="none" xmlns="http://www.w3.org/2000/svg">
<g clip-path="url(#clip0_7591_32057)">
<g clip-path="url(#clip1_7591_32057)">
<g clip-path="url(#clip2_7591_32057)">
<path d="M11.9998 24.0001C18.6271 24.0001 23.9996 18.6276 23.9996 12.0003C23.9996 5.37298 18.6271 0.000488281 11.9998 0.000488281C5.37249 0.000488281 0 5.37298 0 12.0003C0 18.6276 5.37249 24.0001 11.9998 24.0001Z" fill="#CB2027"/>
<path d="M12.9684 16.0692C12.0612 15.9991 11.68 15.5492 10.9685 15.1173C10.5775 17.1689 10.0997 19.1356 8.68423 20.163C8.24679 17.0622 9.32552 14.7331 9.8265 12.261C8.97258 10.8236 9.92917 7.93024 11.7303 8.6432C13.947 9.51979 9.8111 13.9881 12.5876 14.5462C15.4863 15.1289 16.6696 9.51658 14.8719 7.6911C12.2747 5.05554 7.3118 7.6312 7.92208 11.4041C8.07074 12.3265 9.02392 12.6065 8.30283 13.8792C6.64056 13.5111 6.14472 12.2001 6.20846 10.4522C6.31135 7.5912 8.77921 5.58796 11.2545 5.31073C14.3851 4.96035 17.3233 6.46027 17.7289 9.40492C18.1851 12.7284 16.3156 16.3276 12.9684 16.0692Z" fill="#F1F2F2"/>
</g>
</g>
</g>
<defs>
<clipPath id="clip0_7591_32057">
<rect width="24" height="24" fill="white"/>
</clipPath>
<clipPath id="clip1_7591_32057">
<rect width="24" height="24" fill="white"/>
</clipPath>
<clipPath id="clip2_7591_32057">
<rect width="24" height="24" fill="white"/>
</clipPath>
</defs>
</svg>
