<svg width="64" height="64" viewBox="0 0 64 64" fill="none" xmlns="http://www.w3.org/2000/svg">
<path d="M61.3789 55.3054C59.6502 53.6339 57.9358 51.9338 56.2214 50.248C53.5498 47.6193 50.8639 44.9763 48.1924 42.3476C47.9923 42.1475 47.7352 42.0047 48.0066 41.6332C49.0924 40.076 49.9782 38.4187 50.6782 36.6472C51.364 34.9185 51.864 33.1613 52.1497 31.3326C52.1926 31.1754 52.2497 31.0183 52.264 30.8468C52.7212 27.7181 52.564 24.6179 51.8497 21.5463C50.5639 16.0889 47.7923 11.5171 43.4921 7.95978C37.1917 2.74519 29.9341 0.930792 21.9479 2.60232C14.9761 4.05955 9.57578 7.9455 5.78984 13.9887C2.83252 18.7176 1.61816 23.8893 2.1039 29.461C2.6325 35.39 4.94692 40.5046 9.06145 44.8048C17.3191 53.4339 30.6199 55.0626 40.6919 48.6765C41.1348 48.3908 41.3491 48.4479 41.7063 48.7908C46.0637 53.1053 50.4496 57.4056 54.807 61.7201C55.1785 62.0916 55.3785 62.0773 55.7214 61.7058C56.35 60.9915 56.9786 60.2486 57.6929 59.6343C59.0073 58.5056 60.1502 57.1913 61.4074 56.0198C61.6932 55.7626 61.6646 55.5912 61.3789 55.3054ZM35.0487 43.4047C30.5199 45.5192 25.8482 45.7049 21.205 43.8619C14.9618 41.3761 11.2473 36.7043 10.0186 30.0897C9.97579 29.8896 9.94721 29.6754 9.90435 29.4753C9.73291 27.5467 9.77579 25.6465 10.1615 23.7464C10.6044 21.6034 11.4473 19.6176 12.576 17.7461C13.6046 16.046 14.9761 14.6602 16.4905 13.4173C22.1337 8.8027 30.177 8.30266 36.2202 11.8029C41.7063 14.9888 44.735 19.7748 45.2779 26.1323C45.4351 27.9038 45.1922 29.6182 44.8922 31.3469C43.4635 36.8758 40.2347 40.976 35.0487 43.4047Z" fill="#FEE376"/>
<path d="M29.5199 12.9884H24.8624V33.9896H29.5199V12.9884Z" fill="#F5F5F5"/>
<path d="M29.5199 37.5312H24.8625V42.0173H29.5199V37.5312Z" fill="#F5F5F5"/>
</svg>
