<svg width="24" height="24" viewBox="0 0 24 24" fill="none" xmlns="http://www.w3.org/2000/svg">
<g clip-path="url(#clip0_286_18760)">
<path d="M12 24C18.6274 24 24 18.6274 24 12C24 5.37258 18.6274 0 12 0C5.37258 0 0 5.37258 0 12C0 18.6274 5.37258 24 12 24Z" fill="url(#paint0_linear_286_18760)"/>
<path d="M14.4253 6H9.57474C8.62704 6.00125 7.71852 6.37828 7.0484 7.0484C6.37828 7.71852 6.00125 8.62704 6 9.57474V14.4253C6.00125 15.373 6.37828 16.2815 7.0484 16.9516C7.71852 17.6217 8.62704 17.9987 9.57474 18H14.4253C15.3731 17.9992 16.2818 17.6223 16.9521 16.9521C17.6223 16.2818 17.9992 15.3731 18 14.4253V9.57474C17.9987 8.62704 17.6217 7.71852 16.9516 7.0484C16.2815 6.37828 15.373 6.00125 14.4253 6ZM16.7937 14.4253C16.7937 15.0534 16.5442 15.6558 16.1 16.1C15.6558 16.5442 15.0534 16.7937 14.4253 16.7937H9.57474C8.94659 16.7937 8.34418 16.5442 7.90001 16.1C7.45584 15.6558 7.20632 15.0534 7.20632 14.4253V9.57474C7.20632 8.94659 7.45584 8.34418 7.90001 7.90001C8.34418 7.45584 8.94659 7.20632 9.57474 7.20632H14.4253C15.0534 7.20632 15.6558 7.45584 16.1 7.90001C16.5442 8.34418 16.7937 8.94659 16.7937 9.57474V14.4253Z" fill="white"/>
<path d="M12 8.89746C11.3859 8.89715 10.7855 9.07898 10.2748 9.41996C9.76409 9.76093 9.36597 10.2457 9.13082 10.813C8.89568 11.3803 8.83407 12.0046 8.9538 12.6069C9.07352 13.2092 9.3692 13.7625 9.80343 14.1967C10.2377 14.6309 10.7909 14.9266 11.3932 15.0463C11.9955 15.166 12.6198 15.1044 13.1871 14.8693C13.7544 14.6341 14.2392 14.236 14.5802 13.7253C14.9211 13.2146 15.103 12.6142 15.1026 12.0001C15.1018 11.1775 14.7747 10.3888 14.193 9.80712C13.6113 9.22545 12.8226 8.8983 12 8.89746ZM12 13.8948C11.6253 13.8948 11.2589 13.7837 10.9474 13.5755C10.6358 13.3673 10.3929 13.0714 10.2495 12.7252C10.1061 12.379 10.0686 11.998 10.1417 11.6304C10.2148 11.2629 10.3953 10.9253 10.6602 10.6603C10.9252 10.3953 11.2628 10.2149 11.6304 10.1418C11.9979 10.0687 12.3789 10.1062 12.7251 10.2496C13.0713 10.393 13.3672 10.6358 13.5754 10.9474C13.7836 11.259 13.8948 11.6253 13.8948 12.0001C13.8948 12.5026 13.6951 12.9845 13.3398 13.3399C12.9845 13.6952 12.5025 13.8948 12 13.8948Z" fill="white"/>
<path d="M15.1216 9.66462C15.5454 9.66462 15.8889 9.32106 15.8889 8.89725C15.8889 8.47344 15.5454 8.12988 15.1216 8.12988C14.6977 8.12988 14.3542 8.47344 14.3542 8.89725C14.3542 9.32106 14.6977 9.66462 15.1216 9.66462Z" fill="white"/>
</g>
<defs>
<linearGradient id="paint0_linear_286_18760" x1="12" y1="23.8895" x2="12" y2="1.62632" gradientUnits="userSpaceOnUse">
<stop stop-color="#E09B3D"/>
<stop offset="0.24" stop-color="#C74C4D"/>
<stop offset="0.65" stop-color="#C21975"/>
<stop offset="1" stop-color="#7024C4"/>
</linearGradient>
<clipPath id="clip0_286_18760">
<rect width="24" height="24" fill="white"/>
</clipPath>
</defs>
</svg>
