<svg width="62" height="60" viewBox="0 0 62 60" fill="none" xmlns="http://www.w3.org/2000/svg">
<path d="M58.1781 19.6856C57.2565 21.6601 56.335 23.6345 55.4157 25.609C54.9231 26.6707 54.4389 27.7366 53.9463 28.7984C53.5408 29.6686 52.9866 29.8005 52.2817 29.1792C49.8399 27.0324 47.4087 24.8749 44.9648 22.7324C44.6294 22.4366 44.4128 22.1218 44.5444 21.6686C44.6633 21.2537 45.0009 21.1196 45.3916 21.0515C45.88 20.9664 46.3641 20.8494 46.8482 20.7409C47.602 20.5728 47.7357 20.2749 47.345 19.6218C45.6273 16.7537 43.3193 14.4877 40.4274 12.826C37.1214 10.926 33.5522 10.1047 29.7557 10.3154C21.9059 10.7515 14.9139 16.2409 12.5974 23.7579C12.3384 24.5941 12.1006 24.7473 11.247 24.6132C9.65457 24.3622 8.0621 24.1111 6.46964 23.8558C5.74772 23.7409 5.4632 23.3175 5.66703 22.6026C7.62683 15.7388 11.6632 10.4601 17.7995 6.83665C22.4453 4.09197 27.505 2.98133 32.8621 3.3792C38.7691 3.8175 43.9499 6.0558 48.3748 10.0132C51.0183 12.3771 53.0673 15.1877 54.6067 18.3771C54.8126 18.8026 55.0526 19.0196 55.5622 18.8515C55.9783 18.7132 56.4348 18.6962 56.8552 18.5728C57.4285 18.4047 57.8596 18.543 58.1781 19.0473C58.1781 19.2579 58.1781 19.4707 58.1781 19.6856Z" fill="#FEE376"/>
<path d="M30.7813 48.7263C39.2681 48.7135 46.759 43.1901 49.2157 35.2263C49.462 34.4263 49.7146 34.2731 50.5364 34.4008C52.1607 34.6518 53.7892 34.8901 55.4114 35.1561C56.1036 35.2689 56.369 35.705 56.1609 36.3901C53.1883 46.1774 46.8079 52.5029 36.8985 55.0072C30.1422 56.7157 23.6577 55.6476 17.6509 52.1157C13.1007 49.4412 9.65457 45.6774 7.34443 40.9008C6.90916 39.9987 6.91128 39.9965 5.93033 40.2008C5.58423 40.2731 5.23176 40.3284 4.89204 40.4284C4.48224 40.5476 4.11491 40.537 3.82615 40.188C3.53313 39.837 3.62019 39.4774 3.79854 39.0944C5.10437 36.2731 6.43354 33.4646 7.67991 30.6178C8.28717 29.2306 8.84348 29.2221 9.903 30.1816C12.1685 32.2306 14.4872 34.2221 16.7824 36.2391C16.9544 36.3901 17.1477 36.5284 17.2411 36.7497C17.4577 37.271 17.1837 37.7838 16.5892 37.9306C16.0223 38.0689 15.4448 38.1667 14.8736 38.2965C14.2324 38.4412 14.0774 38.7752 14.4214 39.3348C17.4407 44.2476 21.7679 47.2838 27.4201 48.4093C27.8724 48.4987 28.3289 48.5752 28.7875 48.6135C29.4903 48.671 30.1953 48.771 30.7813 48.7263Z" fill="#FEE376"/>
<path d="M32.792 27.5053C33.6159 27.7564 34.4312 28.0351 35.2444 28.3393C36.0555 28.6436 36.7838 29.0351 37.4293 29.5159C38.0748 29.9968 38.5971 30.5947 38.9984 31.3117C39.3976 32.0266 39.5993 32.9245 39.5993 34.001C39.5993 35.067 39.4231 36.0649 39.0685 36.9989C38.7139 37.933 38.1937 38.7564 37.5079 39.4734C36.822 40.1883 35.9812 40.7734 34.9875 41.2266C33.9938 41.6798 32.8557 41.9457 31.5754 42.0245L31.3694 44.55C31.3588 44.8138 31.2463 45.0564 31.0361 45.2798C30.8238 45.5032 30.5583 45.6138 30.2398 45.6138H28.6792L28.9871 41.9372C27.6494 41.7542 26.3925 41.3883 25.2161 40.8372C24.0398 40.2883 23.0398 39.6053 22.2159 38.7925L23.5196 36.8521C23.6343 36.6798 23.7851 36.5393 23.974 36.4308C24.163 36.3223 24.3647 36.267 24.5834 36.267C24.834 36.267 25.1036 36.3564 25.3881 36.533C25.6727 36.7117 25.9996 36.9159 26.3648 37.1521C26.7301 37.3862 27.1483 37.6245 27.6155 37.8649C28.0847 38.1053 28.6389 38.284 29.278 38.3968L29.9129 30.7181C29.1018 30.4883 28.2992 30.2202 27.5051 29.9096C26.7109 29.5989 25.9954 29.1904 25.3627 28.6819C24.7278 28.1734 24.2161 27.5287 23.8275 26.75C23.439 25.9713 23.2436 24.9968 23.2436 23.8287C23.2436 22.9585 23.4156 22.1074 23.7574 21.2776C24.1014 20.4479 24.6068 19.7053 25.2756 19.0521C25.9444 18.3989 26.764 17.8606 27.7365 17.4372C28.7068 17.0138 29.8216 16.7734 31.0807 16.7159L31.2696 14.5521C31.293 14.2776 31.4077 14.0308 31.6136 13.8138C31.8196 13.5968 32.0871 13.4883 32.4183 13.4883H33.979L33.7051 16.8564C34.9175 17.0521 35.9621 17.3968 36.8433 17.8968C37.7223 18.3947 38.4824 18.9542 39.1237 19.5713L38.096 21.1351C37.9474 21.3649 37.7924 21.5372 37.6331 21.65C37.4739 21.7649 37.2785 21.8223 37.0492 21.8223C36.8772 21.8223 36.6713 21.7691 36.4314 21.6585C36.1914 21.55 35.9218 21.4181 35.6266 21.2627C35.3294 21.1074 34.996 20.95 34.6244 20.7904C34.2529 20.6308 33.8452 20.4989 33.3993 20.3947L32.792 27.5053ZM30.7855 20.3074C30.1464 20.3883 29.6029 20.5223 29.157 20.7117C28.7111 20.901 28.3459 21.133 28.0592 21.4074C27.7726 21.6819 27.5645 21.9925 27.4329 22.3351C27.3012 22.6776 27.2354 23.0393 27.2354 23.4181C27.2354 23.8542 27.3118 24.2351 27.4668 24.5606C27.6218 24.8862 27.832 25.1798 28.1017 25.4372C28.3714 25.6947 28.6877 25.9245 29.0529 26.1245C29.4181 26.3245 29.8194 26.5117 30.2526 26.6819L30.7855 20.3074ZM31.8833 38.4649C33.0957 38.3053 34.0129 37.8947 34.6351 37.2372C35.2572 36.5798 35.5693 35.7159 35.5693 34.6521C35.5693 34.2159 35.4929 33.8351 35.3379 33.5096C35.1829 33.184 34.9663 32.8947 34.686 32.6415C34.4057 32.3904 34.0766 32.1713 33.7008 31.9883C33.3229 31.8053 32.9131 31.633 32.4672 31.4734L31.8833 38.4649Z" fill="#F5F5F5"/>
</svg>
