<svg width="128" height="128" viewBox="0 0 128 128" fill="none" xmlns="http://www.w3.org/2000/svg">
<g clip-path="url(#clip0_1988_55)">
<path opacity="0.2" d="M104 0H24C10.7452 0 0 10.7452 0 24V104C0 117.255 10.7452 128 24 128H104C117.255 128 128 117.255 128 104V24C128 10.7452 117.255 0 104 0Z" fill="#23BD61"/>
<path d="M50.4996 44.2998H99.7996C101.5 44.2998 103.7 44.0998 105.4 44.5998V37.7998C105.4 35.5998 103.6 33.7998 101.4 33.7998H52.6996L48.0996 29.3998C47.6996 28.9998 47.0996 28.7998 46.4996 28.7998H27.0996C24.8996 28.7998 23.0996 30.5998 23.0996 32.7998V42.1998V44.5998C23.8996 44.3998 24.7996 44.3998 25.8996 44.3998H50.6996L50.4996 44.2998Z" fill="#23BD61"/>
<path d="M86.8989 55.1996C93.8989 55.2996 100.199 57.8996 105.099 62.0996V50.5996C105.099 48.9996 105.399 48.0996 103.199 48.0996H25.1989C22.8989 48.0996 23.2989 48.8996 23.2989 50.5996V89.4996C23.2989 90.9996 22.1989 98.0996 25.2989 98.0996H63.2989C60.4989 93.7996 58.7989 88.6996 58.9989 83.1996C59.2989 68.1996 71.4989 54.8996 86.9989 55.1996H86.8989Z" fill="#23BD61"/>
<path d="M86.8987 59.0995C73.9987 59.3995 62.4987 69.8995 62.7987 83.1995C63.0987 96.0995 73.5987 107.599 86.8987 107.299C100.199 106.999 110.699 96.4995 110.999 83.1995C110.699 70.2995 100.199 58.7995 86.8987 59.0995ZM101.099 77.8995C95.7987 83.1995 90.4987 88.4995 85.0987 93.8995C84.3987 94.5995 83.5987 94.7995 82.7987 94.6995C82.1987 94.6995 81.5987 94.3995 80.9987 93.8995C78.2987 91.2995 75.5987 88.6995 72.8987 85.9995C70.1987 83.3995 74.2987 79.2995 76.9987 81.8995C78.9987 83.7995 80.9987 85.7995 82.9987 87.6995C87.5987 83.0995 92.2987 78.3995 96.8987 73.7995C99.5987 71.0995 103.699 75.2995 100.999 77.8995H101.099Z" fill="#23BD61"/>
</g>
<defs>
<clipPath id="clip0_1988_55">
<rect width="128" height="128" fill="white"/>
</clipPath>
</defs>
</svg>
