<svg width="48" height="48" viewBox="0 0 48 48" fill="none" xmlns="http://www.w3.org/2000/svg">
<path d="M37.4501 22.6728L37.4484 22.671L27.6511 12.921C26.9172 12.1906 25.73 12.1933 24.9994 12.9274C24.2689 13.6613 24.2717 14.8485 25.0057 15.579L31.5836 22.125H11.875C10.8394 22.125 10 22.9644 10 24C10 25.0356 10.8394 25.875 11.875 25.875H31.5835L25.0058 32.421C24.2718 33.1515 24.269 34.3386 24.9995 35.0726C25.7301 35.8068 26.9173 35.8093 27.6512 35.079L37.4485 25.329L37.4502 25.3272C38.1845 24.5943 38.1822 23.4033 37.4501 22.6728Z" fill="#008989"/>
</svg>
