<svg width="24" height="24" viewBox="0 0 24 24" fill="none" xmlns="http://www.w3.org/2000/svg">
<g clip-path="url(#clip0_286_18762)">
<path d="M12 24C18.6274 24 24 18.6274 24 12C24 5.37258 18.6274 0 12 0C5.37258 0 0 5.37258 0 12C0 18.6274 5.37258 24 12 24Z" fill="#FF0000"/>
<path d="M15.9268 7.48584H8.07315C7.7593 7.48584 7.44852 7.54768 7.15858 7.66784C6.86863 7.78799 6.60521 7.9641 6.38335 8.1861C6.1615 8.40811 5.98556 8.67165 5.8656 8.96167C5.74564 9.25169 5.684 9.56251 5.6842 9.87637V14.1237C5.684 14.4376 5.74564 14.7484 5.8656 15.0384C5.98556 15.3285 6.1615 15.592 6.38335 15.814C6.60521 16.036 6.86863 16.2121 7.15858 16.3323C7.44852 16.4524 7.7593 16.5143 8.07315 16.5143H15.9268C16.2407 16.5143 16.5515 16.4524 16.8414 16.3323C17.1314 16.2121 17.3948 16.036 17.6166 15.814C17.8385 15.592 18.0144 15.3285 18.1344 15.0384C18.2544 14.7484 18.316 14.4376 18.3158 14.1237V9.87637C18.316 9.56251 18.2544 9.25169 18.1344 8.96167C18.0144 8.67165 17.8385 8.40811 17.6166 8.1861C17.3948 7.9641 17.1314 7.78799 16.8414 7.66784C16.5515 7.54768 16.2407 7.48584 15.9268 7.48584ZM10.3358 13.9358V10.0643L13.6642 12.0001L10.3358 13.9358Z" fill="white"/>
</g>
<defs>
<clipPath id="clip0_286_18762">
<rect width="24" height="24" fill="white"/>
</clipPath>
</defs>
</svg>
