<svg width="64" height="64" viewBox="0 0 64 64" fill="none" xmlns="http://www.w3.org/2000/svg">
<path d="M61.2675 21.4921C60.2809 23.5986 59.2943 25.7052 58.321 27.8117C57.7877 28.945 57.281 30.0782 56.7477 31.2115C56.3211 32.1448 55.7212 32.2781 54.9746 31.6248C52.3614 29.3316 49.7616 27.0384 47.1617 24.7452C46.8017 24.4252 46.5751 24.0919 46.7084 23.612C46.8417 23.172 47.2017 23.0253 47.615 22.9587C48.135 22.8653 48.6549 22.7453 49.1749 22.6253C49.9748 22.4387 50.1215 22.132 49.7082 21.4254C47.8683 18.3723 45.4018 15.9458 42.3087 14.1725C38.7755 12.146 34.9625 11.266 30.9094 11.4927C22.5232 11.9593 15.0437 17.8123 12.5771 25.8251C12.2972 26.7184 12.0438 26.8784 11.1372 26.7318C9.43064 26.4651 7.73739 26.1985 6.03083 25.9185C5.25754 25.7985 4.95087 25.3452 5.17753 24.5852C7.27073 17.2657 11.5905 11.6394 18.1501 7.77293C23.1098 4.8531 28.5228 3.66648 34.2425 4.07979C40.5488 4.54643 46.0951 6.93295 50.8282 11.1594C53.6547 13.6792 55.8412 16.679 57.4811 20.0788C57.6944 20.5321 57.961 20.7588 58.5076 20.5855C58.9476 20.4388 59.441 20.4255 59.8943 20.2922C60.5076 20.1055 60.9742 20.2655 61.3075 20.7988C61.2675 21.0388 61.2675 21.2654 61.2675 21.4921Z" fill="#FEE376"/>
<path d="M31.9894 52.464C41.0555 52.4507 49.0684 46.5577 51.6949 38.0649C51.9615 37.2116 52.2282 37.0516 53.1081 37.1849C54.8413 37.4516 56.5879 37.7049 58.3212 37.9849C59.0545 38.1049 59.3477 38.5715 59.1211 39.3048C55.9479 49.7442 49.1217 56.4904 38.5357 59.1569C31.3094 60.9835 24.3899 59.8369 17.9636 56.0771C13.0972 53.2239 9.41742 49.2108 6.9509 44.1178C6.48426 43.1579 6.48426 43.1579 5.44432 43.3712C5.07101 43.4512 4.69768 43.5045 4.3377 43.6112C3.89772 43.7445 3.51111 43.7312 3.20447 43.3579C2.88449 42.9846 2.99112 42.5979 3.17777 42.198C4.57769 39.1848 5.991 36.1983 7.32425 33.1585C7.97755 31.6786 8.56414 31.6653 9.6974 32.6919C12.1239 34.8784 14.5905 36.9982 17.0436 39.1581C17.2303 39.3181 17.4303 39.4648 17.5369 39.7047C17.7636 40.2647 17.4702 40.8113 16.8436 40.958C16.2303 41.1047 15.617 41.2113 15.0037 41.3447C14.3238 41.5047 14.1505 41.8513 14.5238 42.4512C17.7502 47.6909 22.3766 50.9307 28.4162 52.1307C28.8962 52.224 29.3896 52.304 29.8829 52.344C30.6028 52.3973 31.3628 52.504 31.9894 52.464Z" fill="#FEE376"/>
<path d="M23.4032 29.3722C23.5099 29.4655 23.6032 29.5456 23.6965 29.6389C25.2431 31.1721 26.7897 32.692 28.3229 34.2253C28.5762 34.4786 28.7095 34.4786 28.9629 34.2253C32.8026 30.3722 36.6558 26.5191 40.4955 22.666C40.7755 22.386 40.9221 22.3993 41.1888 22.666C42.162 23.6526 43.162 24.6258 44.162 25.5858C44.362 25.7858 44.4286 25.8924 44.1886 26.1324C39.0822 31.2254 33.9892 36.3185 28.8829 41.4248C28.6829 41.6248 28.5762 41.6248 28.3762 41.4248C25.6031 38.665 22.8299 35.9051 20.0567 33.1586C19.8434 32.9453 19.8167 32.8387 20.0434 32.6121C21.0833 31.6121 22.11 30.5855 23.1499 29.5722C23.2299 29.5056 23.3099 29.4522 23.4032 29.3722Z" fill="#F5F5F5"/>
</svg>
