<svg width="344" height="34" viewBox="0 0 344 34" fill="none" xmlns="http://www.w3.org/2000/svg">
<path d="M-0.167501 32.5289C-0.427688 32.6214 -0.563617 32.9073 -0.471109 33.1675C-0.3786 33.4277 -0.0926846 33.5636 0.167501 33.4711L-0.167501 32.5289ZM344 28L340.241 23.6175L338.325 29.0637L344 28ZM0.167501 33.4711C1.10775 33.1368 2.05388 32.8035 3.00573 32.4713L2.67621 31.5272C1.72254 31.86 0.774583 32.1939 -0.167501 32.5289L0.167501 33.4711ZM8.72179 30.5127C10.6148 29.8759 12.5281 29.2439 14.4608 28.6171L14.1522 27.6658C12.2162 28.2938 10.2994 28.927 8.40296 29.5649L8.72179 30.5127ZM20.2153 26.7842C22.1223 26.1878 24.0463 25.5969 25.9862 25.0119L25.6975 24.0545C23.7544 24.6404 21.8271 25.2324 19.9168 25.8298L20.2153 26.7842ZM31.7762 23.2977C33.6984 22.7391 35.6347 22.1867 37.584 21.6409L37.3144 20.6779C35.3619 21.2246 33.4225 21.7779 31.4972 22.3375L31.7762 23.2977ZM43.4084 20.041C45.3437 19.5194 47.2907 19.0048 49.2484 18.4976L48.9975 17.5295C47.0367 18.0376 45.0866 18.5531 43.1482 19.0754L43.4084 20.041ZM55.1031 17.0105C57.0503 16.526 59.0068 16.049 60.972 15.58L60.7399 14.6073C58.7716 15.077 56.8119 15.5548 54.8616 16.0401L55.1031 17.0105ZM66.8543 14.2061C68.8122 13.7587 70.7776 13.3196 72.7496 12.8892L72.5364 11.9122C70.5612 12.3433 68.5926 12.7831 66.6316 13.2312L66.8543 14.2061ZM78.6573 11.63C80.6252 11.2207 82.5987 10.8203 84.577 10.4292L84.3831 9.44818C82.4015 9.8399 80.4247 10.241 78.4537 10.651L78.6573 11.63ZM90.5083 9.28766C92.4854 8.9175 94.4664 8.55698 96.4506 8.20651L96.2767 7.22175C94.2891 7.57282 92.3047 7.93395 90.3242 8.30474L90.5083 9.28766ZM102.404 7.187C104.389 6.85766 106.377 6.53872 108.367 6.2306L108.214 5.24238C106.221 5.55106 104.229 5.87056 102.24 6.20048L102.404 7.187ZM114.34 5.33895C116.334 5.05255 118.328 4.77739 120.322 4.51388L120.191 3.5225C118.193 3.78651 116.195 4.06218 114.198 4.34911L114.34 5.33895ZM126.314 3.75746C128.315 3.51669 130.316 3.28806 132.314 3.07199L132.206 2.07779C130.204 2.29429 128.2 2.52337 126.195 2.76462L126.314 3.75746ZM138.322 2.46005C140.33 2.26823 142.335 2.08956 144.337 1.92445L144.255 0.927837C142.249 1.0933 140.239 1.27236 138.227 1.46458L138.322 2.46005ZM150.358 1.46832C152.372 1.3295 154.381 1.20495 156.385 1.0951L156.33 0.0966008C154.322 0.206715 152.308 0.331556 150.29 0.470691L150.358 1.46832ZM162.416 0.808577C164.435 0.72768 166.447 0.662314 168.451 0.612924L168.426 -0.386772C166.417 -0.337253 164.4 -0.271719 162.376 -0.19062L162.416 0.808577ZM174.487 0.512735C175.494 0.504264 176.498 0.5 177.5 0.5V-0.5C176.495 -0.5 175.488 -0.495724 174.479 -0.48723L174.487 0.512735ZM177.5 0.5C178.511 0.5 179.52 0.502894 180.529 0.508673L180.535 -0.491311C179.524 -0.4971 178.512 -0.5 177.5 -0.5V0.5ZM186.582 0.578062C188.603 0.612838 190.62 0.659191 192.633 0.717037L192.662 -0.282551C190.645 -0.340506 188.624 -0.386948 186.599 -0.42179L186.582 0.578062ZM198.683 0.925822C200.702 1.00722 202.718 1.10019 204.729 1.20464L204.781 0.205986C202.766 0.101334 200.746 0.00818751 198.723 -0.0733669L198.683 0.925822ZM210.772 1.55374C212.789 1.6821 214.803 1.82203 216.811 1.97343L216.887 0.976262C214.874 0.824565 212.857 0.684368 210.835 0.555761L210.772 1.55374ZM222.845 2.46386C224.859 2.63946 226.869 2.82661 228.873 3.02522L228.972 2.0301C226.963 1.83109 224.95 1.64358 222.932 1.46764L222.845 2.46386ZM234.893 3.65775C236.902 3.88087 238.906 4.11553 240.905 4.36164L241.027 3.36913C239.025 3.12254 237.017 2.88742 235.004 2.66386L234.893 3.65775ZM246.908 5.13709C248.911 5.40802 250.909 5.69047 252.901 5.98433L253.047 4.99504C251.051 4.70059 249.049 4.41758 247.042 4.14612L246.908 5.13709ZM258.883 6.90358C260.88 7.22272 262.87 7.55336 264.855 7.8954L265.025 6.90993C263.036 6.5672 261.041 6.23589 259.041 5.91612L258.883 6.90358ZM270.815 8.95968C272.803 9.32722 274.785 9.70624 276.761 10.0966L276.954 9.11559C274.975 8.72441 272.989 8.34463 270.997 7.97635L270.815 8.95968ZM282.691 11.3064C284.669 11.7227 286.641 12.1503 288.606 12.5893L288.824 11.6134C286.855 11.1735 284.879 10.7449 282.897 10.3279L282.691 11.3064ZM294.504 13.9455C296.472 14.4108 298.432 14.8875 300.386 15.3755L300.628 14.4053C298.671 13.9163 296.706 13.4386 294.734 12.9723L294.504 13.9455ZM306.25 16.8796C308.205 17.3943 310.153 17.9203 312.094 18.4577L312.361 17.494C310.416 16.9555 308.464 16.4283 306.505 15.9126L306.25 16.8796ZM317.917 20.11C319.858 20.6742 321.791 21.2498 323.717 21.8366L324.009 20.8801C322.079 20.292 320.141 19.7152 318.196 19.1497L317.917 20.11ZM329.494 23.6379C331.421 24.2524 333.339 24.8781 335.25 25.5151L335.566 24.5664C333.651 23.9281 331.729 23.301 329.798 22.6852L329.494 23.6379ZM-0.167501 32.5289C-0.427688 32.6214 -0.563617 32.9073 -0.471109 33.1675C-0.3786 33.4277 -0.0926846 33.5636 0.167501 33.4711L-0.167501 32.5289ZM344 28L340.241 23.6175L338.325 29.0637L344 28ZM0.167501 33.4711C1.10775 33.1368 2.05388 32.8035 3.00573 32.4713L2.67621 31.5272C1.72254 31.86 0.774583 32.1939 -0.167501 32.5289L0.167501 33.4711ZM8.72179 30.5127C10.6148 29.8759 12.5281 29.2439 14.4608 28.6171L14.1522 27.6658C12.2162 28.2938 10.2994 28.927 8.40296 29.5649L8.72179 30.5127ZM20.2153 26.7842C22.1223 26.1878 24.0463 25.5969 25.9862 25.0119L25.6975 24.0545C23.7544 24.6404 21.8271 25.2324 19.9168 25.8298L20.2153 26.7842ZM31.7762 23.2977C33.6984 22.7391 35.6347 22.1867 37.584 21.6409L37.3144 20.6779C35.3619 21.2246 33.4225 21.7779 31.4972 22.3375L31.7762 23.2977ZM43.4084 20.041C45.3437 19.5194 47.2907 19.0048 49.2484 18.4976L48.9975 17.5295C47.0367 18.0376 45.0866 18.5531 43.1482 19.0754L43.4084 20.041ZM55.1031 17.0105C57.0503 16.526 59.0068 16.049 60.972 15.58L60.7399 14.6073C58.7716 15.077 56.8119 15.5548 54.8616 16.0401L55.1031 17.0105ZM66.8543 14.2061C68.8122 13.7587 70.7776 13.3196 72.7496 12.8892L72.5364 11.9122C70.5612 12.3433 68.5926 12.7831 66.6316 13.2312L66.8543 14.2061ZM78.6573 11.63C80.6252 11.2207 82.5987 10.8203 84.577 10.4292L84.3831 9.44818C82.4015 9.8399 80.4247 10.241 78.4537 10.651L78.6573 11.63ZM90.5083 9.28766C92.4854 8.9175 94.4664 8.55698 96.4506 8.20651L96.2767 7.22175C94.2891 7.57282 92.3047 7.93395 90.3242 8.30474L90.5083 9.28766ZM102.404 7.187C104.389 6.85766 106.377 6.53872 108.367 6.2306L108.214 5.24238C106.221 5.55106 104.229 5.87056 102.24 6.20048L102.404 7.187ZM114.34 5.33895C116.334 5.05255 118.328 4.77739 120.322 4.51388L120.191 3.5225C118.193 3.78651 116.195 4.06218 114.198 4.34911L114.34 5.33895ZM126.314 3.75746C128.315 3.51669 130.316 3.28806 132.314 3.07199L132.206 2.07779C130.204 2.29429 128.2 2.52337 126.195 2.76462L126.314 3.75746ZM138.322 2.46005C140.33 2.26823 142.335 2.08956 144.337 1.92445L144.255 0.927837C142.249 1.0933 140.239 1.27236 138.227 1.46458L138.322 2.46005ZM150.358 1.46832C152.372 1.3295 154.381 1.20495 156.385 1.0951L156.33 0.0966008C154.322 0.206715 152.308 0.331556 150.29 0.470691L150.358 1.46832ZM162.416 0.808577C164.435 0.72768 166.447 0.662314 168.451 0.612924L168.426 -0.386772C166.417 -0.337253 164.4 -0.271719 162.376 -0.19062L162.416 0.808577ZM174.487 0.512735C175.494 0.504264 176.498 0.5 177.5 0.5V-0.5C176.495 -0.5 175.488 -0.495724 174.479 -0.48723L174.487 0.512735ZM177.5 0.5C178.511 0.5 179.52 0.502894 180.529 0.508673L180.535 -0.491311C179.524 -0.4971 178.512 -0.5 177.5 -0.5V0.5ZM186.582 0.578062C188.603 0.612838 190.62 0.659191 192.633 0.717037L192.662 -0.282551C190.645 -0.340506 188.624 -0.386948 186.599 -0.42179L186.582 0.578062ZM198.683 0.925822C200.702 1.00722 202.718 1.10019 204.729 1.20464L204.781 0.205986C202.766 0.101334 200.746 0.00818751 198.723 -0.0733669L198.683 0.925822ZM210.772 1.55374C212.789 1.6821 214.803 1.82203 216.811 1.97343L216.887 0.976262C214.874 0.824565 212.857 0.684368 210.835 0.555761L210.772 1.55374ZM222.845 2.46386C224.859 2.63946 226.869 2.82661 228.873 3.02522L228.972 2.0301C226.963 1.83109 224.95 1.64358 222.932 1.46764L222.845 2.46386ZM234.893 3.65775C236.902 3.88087 238.906 4.11553 240.905 4.36164L241.027 3.36913C239.025 3.12254 237.017 2.88742 235.004 2.66386L234.893 3.65775ZM246.908 5.13709C248.911 5.40802 250.909 5.69047 252.901 5.98433L253.047 4.99504C251.051 4.70059 249.049 4.41758 247.042 4.14612L246.908 5.13709ZM258.883 6.90358C260.88 7.22272 262.87 7.55336 264.855 7.8954L265.025 6.90993C263.036 6.5672 261.041 6.23589 259.041 5.91612L258.883 6.90358ZM270.815 8.95968C272.803 9.32722 274.785 9.70624 276.761 10.0966L276.954 9.11559C274.975 8.72441 272.989 8.34463 270.997 7.97635L270.815 8.95968ZM282.691 11.3064C284.669 11.7227 286.641 12.1503 288.606 12.5893L288.824 11.6134C286.855 11.1735 284.879 10.7449 282.897 10.3279L282.691 11.3064ZM294.504 13.9455C296.472 14.4108 298.432 14.8875 300.386 15.3755L300.628 14.4053C298.671 13.9163 296.706 13.4386 294.734 12.9723L294.504 13.9455ZM306.25 16.8796C308.205 17.3943 310.153 17.9203 312.094 18.4577L312.361 17.494C310.416 16.9555 308.464 16.4283 306.505 15.9126L306.25 16.8796ZM317.917 20.11C319.858 20.6742 321.791 21.2498 323.717 21.8366L324.009 20.8801C322.079 20.292 320.141 19.7152 318.196 19.1497L317.917 20.11ZM329.494 23.6379C331.421 24.2524 333.339 24.8781 335.25 25.5151L335.566 24.5664C333.651 23.9281 331.729 23.301 329.798 22.6852L329.494 23.6379Z" fill="#008989"/>
</svg>
