<svg width="337" height="40" viewBox="0 0 337 40" fill="none" xmlns="http://www.w3.org/2000/svg">
<path d="M0.920685 10.8999C0.662955 10.8007 0.534397 10.5114 0.633543 10.2537C0.732689 9.99597 1.02199 9.86741 1.27972 9.96656L0.920685 10.8999ZM336.082 1.27619L332.685 5.94481L330.34 0.668906L336.082 1.27619ZM1.27972 9.96656C2.23244 10.3331 3.18712 10.6963 4.14375 11.0562L3.79158 11.9922C2.83266 11.6314 1.87569 11.2673 0.920685 10.8999L1.27972 9.96656ZM9.89836 13.1735C11.8193 13.8642 13.7478 14.5419 15.6838 15.2063L15.3592 16.1521C13.4186 15.4862 11.4855 14.8069 9.55996 14.1145L9.89836 13.1735ZM21.497 17.154C23.4368 17.7883 25.3839 18.4094 27.3379 19.017L27.041 19.9719C25.0823 19.3628 23.1306 18.7403 21.1862 18.1045L21.497 17.154ZM33.2056 20.7953C35.1632 21.3731 37.1277 21.9376 39.0988 22.4886L38.8296 23.4517C36.8538 22.8994 34.8847 22.3335 32.9225 21.7543L33.2056 20.7953ZM45.0161 24.097C46.9897 24.6182 48.9698 25.126 50.9563 25.6203L50.7148 26.5907C48.7237 26.0953 46.739 25.5863 44.7608 25.0638L45.0161 24.097ZM56.916 27.058C58.9032 27.5224 60.8966 27.9733 62.8959 28.4106L62.6823 29.3875C60.6783 28.9492 58.6803 28.4972 56.6884 28.0318L56.916 27.058ZM68.8949 29.678C70.8946 30.0857 72.9002 30.4798 74.9115 30.8602L74.7256 31.8428C72.7097 31.4615 70.6995 31.0665 68.6951 30.6578L68.8949 29.678ZM80.9445 31.9573C82.9552 32.3083 84.9713 32.6456 86.9928 32.9692L86.8347 33.9566C84.8086 33.6323 82.7879 33.2942 80.7726 32.9424L80.9445 31.9573ZM93.0543 33.8958C95.0735 34.19 97.0978 34.4705 99.1272 34.7373L98.9968 35.7287C96.9629 35.4614 94.9339 35.1803 92.9101 34.8854L93.0543 33.8958ZM105.212 35.4938C107.238 35.7314 109.27 35.9553 111.306 36.1654L111.203 37.1601C109.163 36.9496 107.126 36.7251 105.095 36.487L105.212 35.4938ZM117.41 36.7523C119.442 36.9335 121.48 37.1009 123.521 37.2545L123.446 38.2517C121.4 38.0978 119.358 37.9299 117.321 37.7483L117.41 36.7523ZM129.639 37.6723C131.676 37.7973 133.717 37.9085 135.763 38.0058L135.715 39.0047C133.665 38.9071 131.619 38.7957 129.578 38.6704L129.639 37.6723ZM141.889 38.2551C143.929 38.3241 145.972 38.3793 148.018 38.4205L147.998 39.4203C145.947 39.379 143.899 39.3237 141.856 39.2545L141.889 38.2551ZM154.149 38.5023C156.189 38.5157 158.233 38.5152 160.281 38.5008L160.288 39.5007C158.236 39.5152 156.187 39.5157 154.143 39.5023L154.149 38.5023ZM166.412 38.4161C167.433 38.395 168.456 38.3705 169.479 38.3426L169.506 39.3422C168.481 39.3702 167.456 39.3948 166.432 39.4158L166.412 38.4161ZM169.479 38.3426C170.502 38.3146 171.525 38.2832 172.546 38.2484L172.58 39.2478C171.556 39.2827 170.532 39.3142 169.506 39.3422L169.479 38.3426ZM178.672 37.998C180.718 37.9005 182.758 37.7894 184.795 37.6646L184.856 38.6627C182.815 38.7878 180.77 38.8992 178.72 38.9969L178.672 37.998ZM190.912 37.248C192.954 37.095 194.99 36.9283 197.023 36.748L197.111 37.7441C195.074 37.9248 193.033 38.0918 190.987 38.2452L190.912 37.248ZM203.127 36.1643C205.164 35.9554 207.196 35.7329 209.223 35.4968L209.339 36.4901C207.307 36.7267 205.27 36.9497 203.229 37.1591L203.127 36.1643ZM215.309 34.7454C217.339 34.4805 219.364 34.202 221.384 33.91L221.527 34.8997C219.503 35.1924 217.473 35.4715 215.438 35.737L215.309 34.7454ZM227.446 32.9906C229.468 32.6696 231.484 32.335 233.495 31.987L233.666 32.9724C231.65 33.3212 229.629 33.6565 227.603 33.9782L227.446 32.9906ZM239.529 30.8993C241.541 30.5221 243.547 30.1314 245.547 29.7273L245.745 30.7075C243.74 31.1125 241.73 31.5041 239.713 31.8821L239.529 30.8993ZM251.549 28.4709C253.549 28.0373 255.544 27.5904 257.533 27.1301L257.758 28.1043C255.765 28.5657 253.766 29.0137 251.76 29.4482L251.549 28.4709ZM263.497 25.7051C265.484 25.2153 267.465 24.7122 269.44 24.1959L269.693 25.1634C267.714 25.6809 265.728 26.1852 263.736 26.676L263.497 25.7051ZM275.36 22.6027C277.333 22.0568 279.299 21.4977 281.258 20.9254L281.538 21.8853C279.575 22.4589 277.604 23.0193 275.627 23.5664L275.36 22.6027ZM287.13 19.1642C289.086 18.5622 291.036 17.947 292.978 17.3187L293.286 18.2702C291.339 18.8999 289.385 19.5166 287.424 20.12L287.13 19.1642ZM298.799 15.3895C300.737 14.7316 302.667 14.0606 304.59 13.3767L304.925 14.3189C302.998 15.0044 301.063 15.6769 299.12 16.3364L298.799 15.3895ZM310.352 11.2806C312.27 10.567 314.18 9.84056 316.083 9.10125L316.445 10.0333C314.538 10.7744 312.623 11.5026 310.701 12.2178L310.352 11.2806ZM321.781 6.83882C323.678 6.06966 325.566 5.28766 327.446 4.49296L327.836 5.41407C325.951 6.21068 324.058 6.99453 322.157 7.76552L321.781 6.83882ZM0.920685 10.8999C0.662955 10.8007 0.534397 10.5114 0.633543 10.2537C0.732689 9.99597 1.02199 9.86741 1.27972 9.96656L0.920685 10.8999ZM336.082 1.27619L332.685 5.94481L330.34 0.668906L336.082 1.27619ZM1.27972 9.96656C2.23244 10.3331 3.18712 10.6963 4.14375 11.0562L3.79158 11.9922C2.83266 11.6314 1.87569 11.2673 0.920685 10.8999L1.27972 9.96656ZM9.89836 13.1735C11.8193 13.8642 13.7478 14.5419 15.6838 15.2063L15.3592 16.1521C13.4186 15.4862 11.4855 14.8069 9.55996 14.1145L9.89836 13.1735ZM21.497 17.154C23.4368 17.7883 25.3839 18.4094 27.3379 19.017L27.041 19.9719C25.0823 19.3628 23.1306 18.7403 21.1862 18.1045L21.497 17.154ZM33.2056 20.7953C35.1632 21.3731 37.1277 21.9376 39.0988 22.4886L38.8296 23.4517C36.8538 22.8994 34.8847 22.3335 32.9225 21.7543L33.2056 20.7953ZM45.0161 24.097C46.9897 24.6182 48.9698 25.126 50.9563 25.6203L50.7148 26.5907C48.7237 26.0953 46.739 25.5863 44.7608 25.0638L45.0161 24.097ZM56.916 27.058C58.9032 27.5224 60.8966 27.9733 62.8959 28.4106L62.6823 29.3875C60.6783 28.9492 58.6803 28.4972 56.6884 28.0318L56.916 27.058ZM68.8949 29.678C70.8946 30.0857 72.9002 30.4798 74.9115 30.8602L74.7256 31.8428C72.7097 31.4615 70.6995 31.0665 68.6951 30.6578L68.8949 29.678ZM80.9445 31.9573C82.9552 32.3083 84.9713 32.6456 86.9928 32.9692L86.8347 33.9566C84.8086 33.6323 82.7879 33.2942 80.7726 32.9424L80.9445 31.9573ZM93.0543 33.8958C95.0735 34.19 97.0978 34.4705 99.1272 34.7373L98.9968 35.7287C96.9629 35.4614 94.9339 35.1803 92.9101 34.8854L93.0543 33.8958ZM105.212 35.4938C107.238 35.7314 109.27 35.9553 111.306 36.1654L111.203 37.1601C109.163 36.9496 107.126 36.7251 105.095 36.487L105.212 35.4938ZM117.41 36.7523C119.442 36.9335 121.48 37.1009 123.521 37.2545L123.446 38.2517C121.4 38.0978 119.358 37.9299 117.321 37.7483L117.41 36.7523ZM129.639 37.6723C131.676 37.7973 133.717 37.9085 135.763 38.0058L135.715 39.0047C133.665 38.9071 131.619 38.7957 129.578 38.6704L129.639 37.6723ZM141.889 38.2551C143.929 38.3241 145.972 38.3793 148.018 38.4205L147.998 39.4203C145.947 39.379 143.899 39.3237 141.856 39.2545L141.889 38.2551ZM154.149 38.5023C156.189 38.5157 158.233 38.5152 160.281 38.5008L160.288 39.5007C158.236 39.5152 156.187 39.5157 154.143 39.5023L154.149 38.5023ZM166.412 38.4161C167.433 38.395 168.456 38.3705 169.479 38.3426L169.506 39.3422C168.481 39.3702 167.456 39.3948 166.432 39.4158L166.412 38.4161ZM169.479 38.3426C170.502 38.3146 171.525 38.2832 172.546 38.2484L172.58 39.2478C171.556 39.2827 170.532 39.3142 169.506 39.3422L169.479 38.3426ZM178.672 37.998C180.718 37.9005 182.758 37.7894 184.795 37.6646L184.856 38.6627C182.815 38.7878 180.77 38.8992 178.72 38.9969L178.672 37.998ZM190.912 37.248C192.954 37.095 194.99 36.9283 197.023 36.748L197.111 37.7441C195.074 37.9248 193.033 38.0918 190.987 38.2452L190.912 37.248ZM203.127 36.1643C205.164 35.9554 207.196 35.7329 209.223 35.4968L209.339 36.4901C207.307 36.7267 205.27 36.9497 203.229 37.1591L203.127 36.1643ZM215.309 34.7454C217.339 34.4805 219.364 34.202 221.384 33.91L221.527 34.8997C219.503 35.1924 217.473 35.4715 215.438 35.737L215.309 34.7454ZM227.446 32.9906C229.468 32.6696 231.484 32.335 233.495 31.987L233.666 32.9724C231.65 33.3212 229.629 33.6565 227.603 33.9782L227.446 32.9906ZM239.529 30.8993C241.541 30.5221 243.547 30.1314 245.547 29.7273L245.745 30.7075C243.74 31.1125 241.73 31.5041 239.713 31.8821L239.529 30.8993ZM251.549 28.4709C253.549 28.0373 255.544 27.5904 257.533 27.1301L257.758 28.1043C255.765 28.5657 253.766 29.0137 251.76 29.4482L251.549 28.4709ZM263.497 25.7051C265.484 25.2153 267.465 24.7122 269.44 24.1959L269.693 25.1634C267.714 25.6809 265.728 26.1852 263.736 26.676L263.497 25.7051ZM275.36 22.6027C277.333 22.0568 279.299 21.4977 281.258 20.9254L281.538 21.8853C279.575 22.4589 277.604 23.0193 275.627 23.5664L275.36 22.6027ZM287.13 19.1642C289.086 18.5622 291.036 17.947 292.978 17.3187L293.286 18.2702C291.339 18.8999 289.385 19.5166 287.424 20.12L287.13 19.1642ZM298.799 15.3895C300.737 14.7316 302.667 14.0606 304.59 13.3767L304.925 14.3189C302.998 15.0044 301.063 15.6769 299.12 16.3364L298.799 15.3895ZM310.352 11.2806C312.27 10.567 314.18 9.84056 316.083 9.10125L316.445 10.0333C314.538 10.7744 312.623 11.5026 310.701 12.2178L310.352 11.2806ZM321.781 6.83882C323.678 6.06966 325.566 5.28766 327.446 4.49296L327.836 5.41407C325.951 6.21068 324.058 6.99453 322.157 7.76552L321.781 6.83882Z" fill="#008989"/>
</svg>
