<svg width="24" height="24" viewBox="0 0 24 24" fill="none" xmlns="http://www.w3.org/2000/svg">
<g clip-path="url(#clip0_1660_13245)">
<path d="M12 24C5.3736 24 0 18.6264 0 12C0 5.3736 5.3736 0 12 0C18.6264 0 24 5.3736 24 12C24 18.6264 18.6264 24 12 24Z" fill="#0CB0B0"/>
<path d="M12.0002 5.28459C14.1866 5.28459 14.4458 5.29179 15.3098 5.33259C16.109 5.36859 16.5434 5.50299 16.8314 5.61579C17.213 5.76459 17.4866 5.94219 17.7722 6.22779C18.0578 6.51339 18.2354 6.78699 18.3842 7.16859C18.497 7.45659 18.629 7.89099 18.6674 8.69019C18.7058 9.55419 18.7154 9.81339 18.7154 11.9998C18.7154 14.1862 18.7082 14.4454 18.6674 15.3094C18.6314 16.1086 18.497 16.543 18.3842 16.831C18.2354 17.2126 18.0578 17.4862 17.7722 17.7718C17.4866 18.0574 17.213 18.235 16.8314 18.3838C16.5434 18.4966 16.109 18.6286 15.3098 18.667C14.4458 18.7054 14.1866 18.715 12.0002 18.715C9.81384 18.715 9.55464 18.7078 8.69064 18.667C7.89144 18.631 7.45704 18.4966 7.16904 18.3838C6.78744 18.235 6.51384 18.0574 6.22824 17.7718C5.94264 17.4862 5.76504 17.2126 5.61624 16.831C5.50344 16.543 5.37144 16.1086 5.33304 15.3094C5.29464 14.4454 5.28504 14.1862 5.28504 11.9998C5.28504 9.81339 5.29224 9.55419 5.33304 8.69019C5.36904 7.89099 5.50344 7.45659 5.61624 7.16859C5.76504 6.78699 5.94264 6.51339 6.22824 6.22779C6.51384 5.94219 6.78744 5.76459 7.16904 5.61579C7.45704 5.50299 7.89144 5.37099 8.69064 5.33259C9.55464 5.29179 9.81384 5.28459 12.0002 5.28459ZM12.0002 3.80859C9.77544 3.80859 9.49704 3.81819 8.62344 3.85899C7.75224 3.89979 7.15704 4.03659 6.63384 4.24059C6.09624 4.44699 5.63784 4.72779 5.18424 5.18379C4.72824 5.63979 4.44984 6.09579 4.23864 6.63579C4.03704 7.15659 3.89784 7.75179 3.85704 8.62539C3.81624 9.49899 3.80664 9.77739 3.80664 12.0022C3.80664 14.227 3.81624 14.5054 3.85704 15.379C3.89784 16.2502 4.03464 16.8454 4.23864 17.3686C4.44744 17.9038 4.72824 18.3622 5.18424 18.8158C5.64024 19.2718 6.09624 19.5502 6.63624 19.7614C7.15704 19.963 7.75224 20.1022 8.62584 20.143C9.49944 20.1838 9.77784 20.1934 12.0026 20.1934C14.2274 20.1934 14.5058 20.1838 15.3794 20.143C16.2506 20.1022 16.8458 19.9654 17.369 19.7614C17.9042 19.5526 18.3626 19.2718 18.8162 18.8158C19.2722 18.3598 19.5506 17.9038 19.7618 17.3638C19.9634 16.843 20.1026 16.2478 20.1434 15.3742C20.1842 14.5006 20.1938 14.2222 20.1938 11.9974C20.1938 9.77259 20.1842 9.49419 20.1434 8.62059C20.1026 7.74939 19.9658 7.15419 19.7618 6.63099C19.553 6.09579 19.2722 5.63739 18.8162 5.18379C18.3602 4.72779 17.9042 4.44939 17.3642 4.23819C16.8434 4.03659 16.2482 3.89739 15.3746 3.85659C14.5034 3.81819 14.225 3.80859 12.0002 3.80859Z" fill="white"/>
<path d="M12.0002 7.79297C9.67697 7.79297 7.79297 9.67697 7.79297 12.0002C7.79297 14.3234 9.67697 16.2074 12.0002 16.2074C14.3234 16.2074 16.2074 14.3234 16.2074 12.0002C16.2074 9.67697 14.3234 7.79297 12.0002 7.79297ZM12.0002 14.7314C10.493 14.7314 9.26897 13.5098 9.26897 12.0002C9.26897 10.4906 10.493 9.26897 12.0002 9.26897C13.5074 9.26897 14.7314 10.4906 14.7314 12.0002C14.7314 13.5098 13.5074 14.7314 12.0002 14.7314Z" fill="white"/>
<path d="M16.3727 8.61058C16.9161 8.61058 17.3567 8.17003 17.3567 7.62658C17.3567 7.08313 16.9161 6.64258 16.3727 6.64258C15.8292 6.64258 15.3887 7.08313 15.3887 7.62658C15.3887 8.17003 15.8292 8.61058 16.3727 8.61058Z" fill="white"/>
</g>
<defs>
<clipPath id="clip0_1660_13245">
<rect width="24" height="24" fill="white"/>
</clipPath>
</defs>
</svg>
