<svg width="22" height="22" viewBox="0 0 22 22" fill="none" xmlns="http://www.w3.org/2000/svg">
<path d="M11 21.5469C16.8249 21.5469 21.5469 16.8249 21.5469 11C21.5469 5.17512 16.8249 0.453125 11 0.453125C5.17512 0.453125 0.453125 5.17512 0.453125 11C0.453125 16.8249 5.17512 21.5469 11 21.5469Z" fill="#0CB0B0"/>
<path d="M5.20703 9.02148H8.01016V16.859H5.20703V9.02148Z" fill="white"/>
<path d="M13.959 9.01172C11.9574 9.01172 11.6246 10.1086 11.6246 10.1086V9.02109H9.45898V16.8586H11.648C11.648 16.8586 11.648 12.9773 11.648 12.3398C11.648 11.6977 12.0184 10.8539 13.1996 10.8539C14.3762 10.8539 14.5168 12.007 14.5074 12.1477C14.4934 12.2883 14.484 16.8586 14.484 16.8586H16.7949C16.7949 16.8586 16.7949 12.4008 16.7949 11.4211C16.7949 9.65391 15.6137 9.01172 13.959 9.01172Z" fill="white"/>
<path d="M6.6125 7.94375C7.38656 7.94375 8.01406 7.31625 8.01406 6.54219C8.01406 5.76813 7.38656 5.14062 6.6125 5.14062C5.83844 5.14062 5.21094 5.76813 5.21094 6.54219C5.21094 7.31625 5.83844 7.94375 6.6125 7.94375Z" fill="white"/>
</svg>
