<svg width="24" height="24" viewBox="0 0 24 24" fill="none" xmlns="http://www.w3.org/2000/svg">
<g clip-path="url(#clip0_1660_13258)">
<path d="M12 0C5.37281 0 0 5.37281 0 12C0 18.6272 5.37281 24 12 24C18.6272 24 24 18.6272 24 12C24 5.37281 18.6272 0 12 0Z" fill="#0CB0B0"/>
<path d="M13.312 10.9128L18.449 4.94141H17.2317L12.7712 10.1263L9.20864 4.94141H5.09961L10.4869 12.7819L5.09961 19.0438H6.317L11.0274 13.5684L14.7898 19.0438H18.8988L13.3117 10.9128H13.312ZM6.75563 5.85785H8.62546L17.2323 18.1691H15.3625L6.75563 5.85785Z" fill="white"/>
</g>
<defs>
<clipPath id="clip0_1660_13258">
<rect width="24" height="24" fill="white"/>
</clipPath>
</defs>
</svg>
