<svg width="24" height="24" viewBox="0 0 24 24" fill="none" xmlns="http://www.w3.org/2000/svg">
<g clip-path="url(#clip0_1660_13262)">
<path d="M12 24C5.3736 24 0 18.6264 0 12C0 5.3736 5.3736 0 12 0C18.6264 0 24 5.3736 24 12C24 18.6264 18.6264 24 12 24Z" fill="#0CB0B0"/>
<path d="M19.6361 8.13917C19.4537 7.44797 18.9137 6.90557 18.2273 6.72077C16.984 6.38477 12.0017 6.38477 12.0017 6.38477C12.0017 6.38477 7.01685 6.38477 5.77605 6.72077C5.08965 6.90557 4.54965 7.44797 4.36725 8.13917C4.03125 9.38957 4.03125 12.0008 4.03125 12.0008C4.03125 12.0008 4.03125 14.612 4.36485 15.8624C4.54725 16.5536 5.08725 17.096 5.77365 17.2808C7.01685 17.6168 11.9992 17.6168 11.9992 17.6168C11.9992 17.6168 16.9841 17.6168 18.2249 17.2808C18.9113 17.096 19.4512 16.5536 19.6336 15.8624C19.9672 14.612 19.9672 12.0008 19.9672 12.0008C19.9672 12.0008 19.9673 9.38957 19.6361 8.13917ZM10.3697 14.3696V9.63197L14.5336 12.0008L10.3697 14.3696Z" fill="white"/>
</g>
<defs>
<clipPath id="clip0_1660_13262">
<rect width="24" height="24" fill="white"/>
</clipPath>
</defs>
</svg>
