<svg width="100" height="100" viewBox="0 0 100 100" fill="none" xmlns="http://www.w3.org/2000/svg">
<g filter="url(#filter0_ii_2534_1670)">
<path d="M0 20C0 8.9543 8.95431 0 20 0H80C91.0457 0 100 8.95431 100 20V80C100 91.0457 91.0457 100 80 100H20C8.9543 100 0 91.0457 0 80V20Z" fill="#008989"/>
</g>
<path d="M0.5 20C0.5 9.23045 9.23045 0.5 20 0.5H80C90.7695 0.5 99.5 9.23045 99.5 20V80C99.5 90.7695 90.7695 99.5 80 99.5H20C9.23045 99.5 0.5 90.7695 0.5 80V20Z" stroke="#008989"/>
<path d="M75.7054 62.24C76.3814 62.24 76.9294 61.692 76.9294 61.016C76.9294 60.34 76.3814 59.792 75.7054 59.792C75.0294 59.792 74.4814 60.34 74.4814 61.016C74.4814 61.692 75.0294 62.24 75.7054 62.24Z" fill="white"/>
<path d="M73.2572 78.1531C73.9332 78.1531 74.4812 77.6051 74.4812 76.9291C74.4812 76.2531 73.9332 75.7051 73.2572 75.7051C72.5812 75.7051 72.0332 76.2531 72.0332 76.9291C72.0332 77.6051 72.5812 78.1531 73.2572 78.1531Z" fill="white"/>
<path d="M53.6722 69.5847C54.3482 69.5847 54.8962 69.0367 54.8962 68.3607C54.8962 67.6847 54.3482 67.1367 53.6722 67.1367C52.9962 67.1367 52.4482 67.6847 52.4482 68.3607C52.4482 69.0367 52.9962 69.5847 53.6722 69.5847Z" fill="white"/>
<path d="M45.1039 78.1531C45.7799 78.1531 46.3279 77.6051 46.3279 76.9291C46.3279 76.2531 45.7799 75.7051 45.1039 75.7051C44.4279 75.7051 43.8799 76.2531 43.8799 76.9291C43.8799 77.6051 44.4279 78.1531 45.1039 78.1531Z" fill="white"/>
<path d="M25.5189 63.4646C26.1949 63.4646 26.7429 62.9166 26.7429 62.2406C26.7429 61.5646 26.1949 61.0166 25.5189 61.0166C24.8429 61.0166 24.2949 61.5646 24.2949 62.2406C24.2949 62.9166 24.8429 63.4646 25.5189 63.4646Z" fill="white"/>
<path d="M38.9838 25.5193C39.6598 25.5193 40.2078 24.9713 40.2078 24.2953C40.2078 23.6193 39.6598 23.0713 38.9838 23.0713C38.3078 23.0713 37.7598 23.6193 37.7598 24.2953C37.7598 24.9713 38.3078 25.5193 38.9838 25.5193Z" fill="white"/>
<path d="M76.9291 29.1912C77.6051 29.1912 78.1531 28.6432 78.1531 27.9672C78.1531 27.2912 77.6051 26.7432 76.9291 26.7432C76.2531 26.7432 75.7051 27.2912 75.7051 27.9672C75.7051 28.6432 76.2531 29.1912 76.9291 29.1912Z" fill="white"/>
<path d="M63.4649 79.3779C62.7889 79.3779 62.2409 78.8298 62.2409 78.1539C62.2409 76.1291 60.5935 74.4818 58.5687 74.4818C57.8927 74.4818 57.3447 73.9337 57.3447 73.2578C57.3447 72.5818 57.8929 72.0338 58.5687 72.0338C60.5936 72.0338 62.2409 70.3864 62.2409 68.3617C62.2409 67.6857 62.789 67.1377 63.4649 67.1377C64.1409 67.1377 64.6889 67.6858 64.6889 68.3617C64.6889 70.3866 66.3362 72.0338 68.361 72.0338C69.037 72.0338 69.585 72.5819 69.585 73.2578C69.585 73.9338 69.0369 74.4818 68.361 74.4818C66.3361 74.4818 64.6889 76.1292 64.6889 78.1539C64.689 78.8298 64.1409 79.3779 63.4649 79.3779ZM62.237 73.2577C62.7019 73.6068 63.1157 74.0207 63.4649 74.4856C63.814 74.0207 64.2279 73.6068 64.6927 73.2577C64.2279 72.9086 63.814 72.4947 63.4649 72.0298C63.1157 72.4947 62.7019 72.9084 62.237 73.2577Z" fill="white"/>
<path d="M26.7432 32.8633C26.0672 32.8633 25.5192 32.3153 25.5192 31.6393C25.5192 29.6144 23.8718 27.9672 21.847 27.9672C21.171 27.9672 20.623 27.4192 20.623 26.7432C20.623 26.0672 21.171 25.5192 21.847 25.5192C23.8719 25.5192 25.5192 23.8718 25.5192 21.847C25.5192 21.171 26.0672 20.623 26.7432 20.623C27.4192 20.623 27.9672 21.171 27.9672 21.847C27.9672 23.8719 29.6145 25.5192 31.6393 25.5192C32.3153 25.5192 32.8633 26.0672 32.8633 26.7432C32.8633 27.4192 32.3153 27.9672 31.6393 27.9672C29.6144 27.9672 27.9672 29.6145 27.9672 31.6393C27.9673 32.3153 27.4193 32.8633 26.7432 32.8633ZM25.5153 26.743C25.9802 27.0923 26.3939 27.506 26.7432 27.9709C27.0924 27.506 27.5062 27.0923 27.971 26.743C27.5062 26.3938 27.0924 25.98 26.7432 25.5152C26.394 25.9802 25.9803 26.3939 25.5153 26.743Z" fill="white"/>
<path d="M31.6394 51.2246H25.8864C22.9842 51.2246 20.623 48.8635 20.623 45.9613V41.7995C20.623 38.8973 22.9842 36.5361 25.8864 36.5361H31.6394C32.3154 36.5361 32.8634 37.0841 32.8634 37.7601V50.0006C32.8634 50.6766 32.3154 51.2246 31.6394 51.2246ZM25.8864 38.9841C24.334 38.9841 23.071 40.2471 23.071 41.7995V45.9613C23.071 47.5136 24.334 48.7766 25.8864 48.7766H30.4154V38.9843H25.8864V38.9841Z" fill="white"/>
<path d="M72.033 51.2246H70.809C70.133 51.2246 69.585 50.6766 69.585 50.0006V37.7601C69.585 37.0841 70.1331 36.5361 70.809 36.5361H72.033C76.0826 36.5361 79.3772 39.8308 79.3772 43.8804C79.3772 47.93 76.0826 51.2246 72.033 51.2246ZM72.033 38.9841V48.7765C74.7327 48.7765 76.9292 46.5801 76.9292 43.8803C76.9292 41.1804 74.7327 38.9841 72.033 38.9841Z" fill="white"/>
<path d="M70.8095 65.9126C70.6988 65.9126 70.5873 65.8975 70.4783 65.867L31.3086 54.8505C30.7808 54.7018 30.416 54.2205 30.416 53.6721V34.0873C30.416 33.539 30.7808 33.0575 31.3086 32.909L70.4783 21.8925C70.8471 21.7886 71.2435 21.8637 71.5488 22.0951C71.8543 22.3265 72.0338 22.6876 72.0338 23.0708V64.6886C72.0338 65.0718 71.8544 65.433 71.5488 65.6642C71.3336 65.8272 71.0734 65.9126 70.8095 65.9126ZM32.864 52.7448L69.5855 63.0727V24.6867L32.864 35.0146V52.7448Z" fill="white"/>
<path d="M43.0322 69.5847H40.931C40.255 69.5847 39.707 69.0366 39.707 68.3607C39.707 67.6847 40.255 67.1367 40.931 67.1367H43.0322C43.7873 67.1367 44.4564 66.6837 44.7369 65.9826C44.9668 65.4077 44.8997 64.784 44.5525 64.2714C44.2054 63.7586 43.6513 63.4646 43.0322 63.4646H42.322C41.646 63.4646 41.098 62.9165 41.098 62.2406C41.098 61.5646 41.646 61.0166 42.322 61.0166H43.0322C44.4555 61.0166 45.7817 61.7204 46.5797 62.899C47.3777 64.0776 47.5385 65.5704 47.0099 66.892C46.3554 68.5277 44.7942 69.5847 43.0322 69.5847Z" fill="white"/>
<path d="M35.6485 78.1531C33.9964 78.1531 32.4576 77.4126 31.4269 76.1214C30.3961 74.8301 30.015 73.1655 30.3811 71.5544L34.263 54.4746C34.4129 53.8153 35.069 53.4023 35.7279 53.5523C36.387 53.702 36.8 54.3579 36.6503 55.017L32.7684 72.0968C32.5681 72.9778 32.7766 73.888 33.3401 74.594C33.9038 75.3 34.7451 75.705 35.6485 75.705C37.0366 75.705 38.221 74.7596 38.5286 73.406L42.3164 56.7396C42.4663 56.0804 43.1221 55.667 43.7813 55.8173C44.4404 55.967 44.8534 56.6229 44.7036 57.282L40.9159 73.9486C40.3531 76.4243 38.1871 78.1531 35.6485 78.1531Z" fill="white"/>
<path d="M53.6729 54.897C53.5811 54.897 53.4888 54.8868 53.3976 54.8656L37.485 51.1935C36.9296 51.0653 36.5361 50.5708 36.5361 50.0008V37.7603C36.5361 37.1903 36.9295 36.6958 37.485 36.5675L53.3976 32.8954C53.7613 32.812 54.1429 32.898 54.435 33.1303C54.7269 33.3625 54.897 33.7151 54.897 34.0881V53.6729C54.897 54.046 54.7269 54.3986 54.435 54.6309C54.2163 54.8048 53.947 54.897 53.6729 54.897ZM38.9843 49.027L52.4488 52.1343V35.6268L38.9843 38.734V49.027Z" fill="white"/>
<defs>
<filter id="filter0_ii_2534_1670" x="-4" y="0" width="108" height="104" filterUnits="userSpaceOnUse" color-interpolation-filters="sRGB">
<feFlood flood-opacity="0" result="BackgroundImageFix"/>
<feBlend mode="normal" in="SourceGraphic" in2="BackgroundImageFix" result="shape"/>
<feColorMatrix in="SourceAlpha" type="matrix" values="0 0 0 0 0 0 0 0 0 0 0 0 0 0 0 0 0 0 127 0" result="hardAlpha"/>
<feOffset dx="4" dy="4"/>
<feGaussianBlur stdDeviation="15"/>
<feComposite in2="hardAlpha" operator="arithmetic" k2="-1" k3="1"/>
<feColorMatrix type="matrix" values="0 0 0 0 0.819608 0 0 0 0 0.85098 0 0 0 0 0.901961 0 0 0 1 0"/>
<feBlend mode="normal" in2="shape" result="effect1_innerShadow_2534_1670"/>
<feColorMatrix in="SourceAlpha" type="matrix" values="0 0 0 0 0 0 0 0 0 0 0 0 0 0 0 0 0 0 127 0" result="hardAlpha"/>
<feOffset dx="-4" dy="4"/>
<feGaussianBlur stdDeviation="15"/>
<feComposite in2="hardAlpha" operator="arithmetic" k2="-1" k3="1"/>
<feColorMatrix type="matrix" values="0 0 0 0 1 0 0 0 0 1 0 0 0 0 1 0 0 0 0.5 0"/>
<feBlend mode="normal" in2="effect1_innerShadow_2534_1670" result="effect2_innerShadow_2534_1670"/>
</filter>
</defs>
</svg>
