<svg width="100" height="100" viewBox="0 0 100 100" fill="none" xmlns="http://www.w3.org/2000/svg">
<g filter="url(#filter0_ii_2534_1668)">
<path d="M0 20C0 8.9543 8.95431 0 20 0H80C91.0457 0 100 8.95431 100 20V80C100 91.0457 91.0457 100 80 100H20C8.9543 100 0 91.0457 0 80V20Z" fill="#008989"/>
</g>
<path d="M0.5 20C0.5 9.23045 9.23045 0.5 20 0.5H80C90.7695 0.5 99.5 9.23045 99.5 20V80C99.5 90.7695 90.7695 99.5 80 99.5H20C9.23045 99.5 0.5 90.7695 0.5 80V20Z" stroke="#008989"/>
<g clip-path="url(#clip0_2534_1668)">
<path d="M38.8004 78.0002H61.2004C65.8395 78.0002 69.6004 74.2393 69.6004 69.6002C69.6004 64.9611 65.8395 61.2002 61.2004 61.2002H38.8004C34.1613 61.2002 30.4004 64.9611 30.4004 69.6002C30.4004 74.2393 34.1613 78.0002 38.8004 78.0002ZM38.8004 63.0669H61.2004C64.8087 63.0669 67.7337 65.992 67.7337 69.6002C67.7337 73.2084 64.8086 76.1335 61.2004 76.1335H38.8004C35.1921 76.1335 32.2671 73.2085 32.2671 69.6002C32.2671 65.9919 35.1921 63.0669 38.8004 63.0669Z" fill="white"/>
<path d="M73.3333 41.5996H26.6667C24.0906 41.6027 22.0031 43.6902 22 46.2663V53.733C22.0031 56.309 24.0906 58.3965 26.6667 58.3997H73.3334C75.9094 58.3967 77.9969 56.3091 78.0001 53.733V46.2663C77.9969 43.6902 75.9094 41.6027 73.3333 41.5996ZM76.1333 53.7329C76.1333 55.2793 74.8796 56.5329 73.3333 56.5329H26.6667C25.1204 56.5329 23.8667 55.2793 23.8667 53.7329V46.2662C23.8667 44.7198 25.1204 43.4662 26.6667 43.4662H73.3334C74.8798 43.4662 76.1334 44.7199 76.1334 46.2662L76.1333 53.7329Z" fill="white"/>
<path d="M73.3333 22H26.6667C24.0906 22.0031 22.0031 24.0906 22 26.6667V34.1334C22.0031 36.7094 24.0906 38.7969 26.6667 38.8001H73.3334C75.9094 38.797 77.9969 36.7095 78.0001 34.1334V26.6667C77.9969 24.0906 75.9094 22.0031 73.3333 22ZM76.1333 34.1333C76.1333 35.6796 74.8796 36.9333 73.3333 36.9333H26.6667C25.1204 36.9333 23.8667 35.6796 23.8667 34.1333V26.6667C23.8667 25.1204 25.1204 23.8667 26.6667 23.8667H73.3334C74.8798 23.8667 76.1334 25.1204 76.1334 26.6667L76.1333 34.1333Z" fill="white"/>
<path d="M36.0001 45.333H28.5334C26.9871 45.333 25.7334 46.5867 25.7334 48.133V51.8663C25.7334 53.4127 26.9871 54.6663 28.5334 54.6663H36.0001C37.5466 54.6663 38.8001 53.4127 38.8001 51.8663V48.133C38.8001 46.5867 37.5466 45.333 36.0001 45.333ZM35.0668 47.1997L32.8389 48.8797C32.4999 49.1319 32.0362 49.1341 31.6947 48.8853L29.4668 47.1997H35.0668ZM36.0001 52.7997H28.5334C28.0179 52.7997 27.6001 52.3819 27.6001 51.8664V48.1331L30.5868 50.3731C31.5888 51.1169 32.9604 51.1147 33.9598 50.3675L36.9334 48.1331V51.8664C36.9334 52.3819 36.5156 52.7997 36.0001 52.7997Z" fill="white"/>
<path d="M34.4888 30.2181C34.8613 29.7353 35.0643 29.1433 35.0665 28.5334C35.0665 26.9871 33.8128 25.7334 32.2665 25.7334C30.7202 25.7334 29.4665 26.9871 29.4665 28.5334C29.4697 29.1416 29.6727 29.7319 30.0442 30.2134C29.0954 30.913 28.5346 32.0211 28.5332 33.2001C28.5332 34.2311 29.3689 35.0668 30.3999 35.0668H34.1332C35.1642 35.0668 35.9999 34.2311 35.9999 33.2001C35.9968 32.0229 35.4363 30.9167 34.4888 30.2181ZM31.3331 28.5334C31.3331 28.0179 31.751 27.6001 32.2664 27.6001C32.7819 27.6001 33.1997 28.018 33.1997 28.5334C33.1997 29.0488 32.7818 29.4667 32.2664 29.4667C31.751 29.4668 31.3331 29.0489 31.3331 28.5334ZM30.3998 33.2001C30.3998 32.1691 31.2355 31.3334 32.2665 31.3334C33.2975 31.3334 34.1332 32.1691 34.1332 33.2001H30.3998Z" fill="white"/>
<path fill-rule="evenodd" clip-rule="evenodd" d="M42.5339 49.0678H47.2006C47.7161 49.0678 48.1339 48.6498 48.1339 48.1345C48.1339 47.619 47.716 47.2012 47.2006 47.2012H42.5339C42.0184 47.2012 41.6006 47.6191 41.6006 48.1345C41.6006 48.6498 42.0185 49.0678 42.5339 49.0678Z" fill="white"/>
<path fill-rule="evenodd" clip-rule="evenodd" d="M71.4673 50.9336H42.5339C42.0184 50.9336 41.6006 51.3514 41.6006 51.8669C41.6006 52.3824 42.0185 52.8002 42.5339 52.8002H71.4672C71.9827 52.8002 72.4005 52.3824 72.4005 51.8669C72.4005 51.3514 71.9828 50.9336 71.4673 50.9336Z" fill="white"/>
<path fill-rule="evenodd" clip-rule="evenodd" d="M42.5339 29.4673H47.2006C47.7161 29.4673 48.1339 29.0494 48.1339 28.534C48.1339 28.0186 47.7161 27.6006 47.2006 27.6006H42.5339C42.0184 27.6006 41.6006 28.0185 41.6006 28.5339C41.6006 29.0493 42.0185 29.4673 42.5339 29.4673Z" fill="white"/>
<path fill-rule="evenodd" clip-rule="evenodd" d="M71.4673 31.334H42.5339C42.0184 31.334 41.6006 31.7519 41.6006 32.2673C41.6006 32.7828 42.0185 33.2006 42.5339 33.2006H71.4672C71.9827 33.2006 72.4005 32.7827 72.4005 32.2673C72.4006 31.7519 71.9828 31.334 71.4673 31.334Z" fill="white"/>
<path fill-rule="evenodd" clip-rule="evenodd" d="M46.5408 73.0604C46.8692 73.3889 47.3891 73.4258 47.7607 73.1473L55.2274 67.5473C55.6397 67.2379 55.7233 66.653 55.4141 66.2406C55.1048 65.8282 54.5198 65.7447 54.1074 66.0539L47.2884 71.1686L45.9938 69.874C45.6277 69.5203 45.0455 69.5253 44.6855 69.8854C44.3254 70.2454 44.3204 70.8275 44.6741 71.1937L46.5408 73.0604Z" fill="white"/>
</g>
<defs>
<filter id="filter0_ii_2534_1668" x="-4" y="0" width="108" height="104" filterUnits="userSpaceOnUse" color-interpolation-filters="sRGB">
<feFlood flood-opacity="0" result="BackgroundImageFix"/>
<feBlend mode="normal" in="SourceGraphic" in2="BackgroundImageFix" result="shape"/>
<feColorMatrix in="SourceAlpha" type="matrix" values="0 0 0 0 0 0 0 0 0 0 0 0 0 0 0 0 0 0 127 0" result="hardAlpha"/>
<feOffset dx="4" dy="4"/>
<feGaussianBlur stdDeviation="15"/>
<feComposite in2="hardAlpha" operator="arithmetic" k2="-1" k3="1"/>
<feColorMatrix type="matrix" values="0 0 0 0 0.819608 0 0 0 0 0.85098 0 0 0 0 0.901961 0 0 0 1 0"/>
<feBlend mode="normal" in2="shape" result="effect1_innerShadow_2534_1668"/>
<feColorMatrix in="SourceAlpha" type="matrix" values="0 0 0 0 0 0 0 0 0 0 0 0 0 0 0 0 0 0 127 0" result="hardAlpha"/>
<feOffset dx="-4" dy="4"/>
<feGaussianBlur stdDeviation="15"/>
<feComposite in2="hardAlpha" operator="arithmetic" k2="-1" k3="1"/>
<feColorMatrix type="matrix" values="0 0 0 0 1 0 0 0 0 1 0 0 0 0 1 0 0 0 0.5 0"/>
<feBlend mode="normal" in2="effect1_innerShadow_2534_1668" result="effect2_innerShadow_2534_1668"/>
</filter>
<clipPath id="clip0_2534_1668">
<rect width="56" height="56" fill="white" transform="translate(22 22)"/>
</clipPath>
</defs>
</svg>
