<svg width="100" height="100" viewBox="0 0 100 100" fill="none" xmlns="http://www.w3.org/2000/svg">
<g filter="url(#filter0_ii_1543_20366)">
<path d="M0 20C0 8.9543 8.95431 0 20 0H80C91.0457 0 100 8.95431 100 20V80C100 91.0457 91.0457 100 80 100H20C8.9543 100 0 91.0457 0 80V20Z" fill="#008989"/>
</g>
<path d="M0.5 20C0.5 9.23045 9.23045 0.5 20 0.5H80C90.7695 0.5 99.5 9.23045 99.5 20V80C99.5 90.7695 90.7695 99.5 80 99.5H20C9.23045 99.5 0.5 90.7695 0.5 80V20Z" stroke="#008989"/>
<g clip-path="url(#clip0_1543_20366)">
<path fill-rule="evenodd" clip-rule="evenodd" d="M69.2059 52.2303H75.3484C75.4797 52.2305 75.6098 52.2047 75.7312 52.1545C75.8526 52.1042 75.9629 52.0306 76.0558 51.9377C76.1486 51.8448 76.2223 51.7345 76.2725 51.6132C76.3227 51.4918 76.3485 51.3617 76.3484 51.2303V37.8521H80.2181C80.4074 37.8517 80.5927 37.7977 80.7526 37.6964C80.9124 37.5951 81.0403 37.4505 81.1214 37.2795C81.2025 37.1085 81.2335 36.918 81.2108 36.73C81.1881 36.5421 81.1126 36.3645 80.9931 36.2177L73.0524 26.4745C72.9582 26.3601 72.8399 26.2679 72.7059 26.2047C72.5719 26.1414 72.4256 26.1086 72.2774 26.1086C72.1292 26.1086 71.9829 26.1414 71.8489 26.2047C71.7149 26.2679 71.5966 26.3601 71.5024 26.4745L63.5613 36.2177C63.4416 36.3644 63.3659 36.5421 63.3431 36.7301C63.3203 36.9181 63.3512 37.1087 63.4324 37.2798C63.5135 37.4509 63.6415 37.5954 63.8015 37.6968C63.9615 37.7981 64.1469 37.8519 64.3363 37.8521H68.2058V51.2302C68.2058 51.4954 68.3111 51.7498 68.4987 51.9373C68.6862 52.1249 68.9405 52.2302 69.2058 52.2302L69.2059 52.2303ZM60.6325 60.8038C60.1035 60.7997 59.5976 60.5866 59.225 60.211C58.8524 59.8355 58.6433 59.3279 58.6433 58.7989C58.6433 58.2699 58.8524 57.7623 59.225 57.3868C59.5976 57.0112 60.1035 56.7981 60.6325 56.794H77.9964C78.5254 56.7981 79.0313 57.0112 79.4039 57.3868C79.7765 57.7623 79.9856 58.2699 79.9856 58.7989C79.9856 59.3279 79.7765 59.8355 79.4039 60.211C79.0313 60.5866 78.5254 60.7997 77.9964 60.8038H60.6325ZM80.0013 64.8047C80.0012 65.3368 79.79 65.8472 79.4142 66.2239C79.0384 66.6005 78.5285 66.8128 77.9964 66.8141H60.6325C60.3692 66.8141 60.1085 66.7622 59.8653 66.6615C59.622 66.5607 59.401 66.413 59.2149 66.2269C59.0287 66.0407 58.881 65.8197 58.7802 65.5764C58.6795 65.3332 58.6276 65.0725 58.6276 64.8092C58.6276 64.5459 58.6795 64.2852 58.7802 64.042C58.881 63.7987 59.0287 63.5777 59.2149 63.3916C59.401 63.2054 59.622 63.0577 59.8653 62.957C60.1085 62.8562 60.3692 62.8043 60.6325 62.8043H77.9964C78.527 62.8051 79.0358 63.0159 79.4115 63.3907C79.7872 63.7654 79.9992 64.2737 80.0013 64.8043V64.8047ZM80.0013 70.8151C80.0012 71.3472 79.79 71.8576 79.4142 72.2342C79.0384 72.6109 78.5285 72.8232 77.9964 72.8245H60.6325C60.1035 72.8203 59.5976 72.6072 59.225 72.2317C58.8524 71.8561 58.6433 71.3485 58.6433 70.8195C58.6433 70.2905 58.8524 69.7829 59.225 69.4074C59.5976 69.0318 60.1035 68.8188 60.6325 68.8146H77.9964C78.527 68.8154 79.0358 69.0262 79.4115 69.401C79.7871 69.7757 79.9992 70.284 80.0013 70.8146V70.8151ZM80.0013 76.8343C79.9992 77.365 79.7871 77.8732 79.4115 78.248C79.0358 78.6227 78.527 78.8335 77.9964 78.8343H60.6325C60.1035 78.8302 59.5976 78.6171 59.225 78.2415C58.8524 77.866 58.6433 77.3584 58.6433 76.8294C58.6433 76.3004 58.8524 75.7928 59.225 75.4173C59.5976 75.0417 60.1035 74.8286 60.6325 74.8245H77.9964C78.5285 74.8258 79.0384 75.038 79.4142 75.4147C79.79 75.7914 80.0012 76.3017 80.0013 76.8338V76.8343ZM50.2338 78.7365C52.4802 78.6882 54.6792 78.0805 56.6316 76.9682C56.628 76.9236 56.6271 76.879 56.6271 76.8343C56.6268 76.2647 56.748 75.7016 56.9827 75.1826C57.2174 74.6636 57.5602 74.2006 57.9881 73.8247C57.5605 73.4495 57.218 72.9873 56.9833 72.469C56.7486 71.9508 56.6272 71.3884 56.6272 70.8195C56.6272 70.2506 56.7486 69.6883 56.9833 69.17C57.218 68.6518 57.5605 68.1896 57.9881 67.8143C57.5605 67.4391 57.218 66.9769 56.9833 66.4587C56.7486 65.9405 56.6272 65.3781 56.6272 64.8092C56.6272 64.2403 56.7486 63.678 56.9833 63.1597C57.218 62.6415 57.5605 62.1793 57.9881 61.8041C57.3767 61.2668 56.9435 60.556 56.7464 59.7662C56.5492 58.9765 56.5975 58.1455 56.8848 57.3839C57.172 56.6223 57.6846 55.9664 58.3542 55.5036C59.0238 55.0407 59.8186 54.793 60.6325 54.7935H62.1245C59.712 47.9616 54.863 41.6118 49.6081 38.4772C49.1216 38.1829 48.7367 37.7467 48.5053 37.2272C44.0838 36.7272 39.3148 36.7183 34.1984 37.2003C34.0881 37.3737 33.9603 37.5353 33.817 37.6826C29.6351 41.8708 26.154 46.1132 24.0151 49.6132C19.6971 56.9993 17.8959 67.4125 23.6061 74.0568C24.8416 75.4893 26.3643 76.6461 28.0756 77.4523C29.7868 78.2585 31.6484 78.696 33.5396 78.7365C39.1598 78.8705 44.6181 78.8705 50.2338 78.7365ZM29.7013 24.7062C32.0875 25.0098 35.984 26.0368 41.3263 27.7693C41.464 27.8157 41.6104 27.831 41.7548 27.814C41.8992 27.7971 42.038 27.7483 42.1613 27.6712C49.6908 23.0272 53.2773 21.7587 54.9795 21.5537C54.399 22.9826 52.8058 26.4655 48.561 34.8603C48.5062 34.9703 48.4585 35.0837 48.4181 35.1997C44.1072 34.7352 39.4901 34.7233 34.5666 35.164C34.5194 34.9449 34.447 34.7321 34.3506 34.5298C32.2295 30.1181 30.672 26.8317 29.7013 24.7062ZM82.0013 58.7945C82.0018 59.3641 81.8806 59.9273 81.6459 60.4463C81.4112 60.9654 81.0683 61.4283 80.6403 61.8041C81.0679 62.1793 81.4104 62.6415 81.6451 63.1597C81.8798 63.678 82.0012 64.2403 82.0012 64.8092C82.0012 65.3781 81.8798 65.9405 81.6451 66.4587C81.4104 66.9769 81.0679 67.4391 80.6403 67.8143C81.0679 68.1896 81.4104 68.6518 81.6451 69.17C81.8798 69.6883 82.0012 70.2506 82.0012 70.8195C82.0012 71.3884 81.8798 71.9508 81.6451 72.469C81.4104 72.9873 81.0679 73.4495 80.6403 73.8247C81.2517 74.3619 81.6849 75.0727 81.882 75.8623C82.0792 76.652 82.031 77.483 81.7438 78.2445C81.4567 79.006 80.9442 79.662 80.2747 80.1248C79.6053 80.5877 78.8106 80.8355 77.9968 80.8352H60.6325C59.9482 80.834 59.2756 80.6577 58.6786 80.3232C58.0817 79.9887 57.5802 79.5071 57.2219 78.9241C55.0811 80.0622 52.7024 80.6802 50.2784 80.7281C47.4571 80.7995 44.6735 80.8352 41.8898 80.8352C39.106 80.8352 36.3198 80.7995 33.4959 80.7281C31.3238 80.6867 29.185 80.1872 27.2193 79.2623C25.2536 78.3374 23.5053 77.0079 22.0888 75.3607C19.1578 71.9492 17.7556 67.4036 18.0361 62.206C18.2799 57.7048 19.791 52.8733 22.2933 48.5956C22.296 48.5867 22.2996 48.5867 22.3023 48.5777C24.5206 44.943 28.1071 40.576 32.401 36.2713C32.4767 36.1909 32.5367 36.097 32.5779 35.9945C32.585 35.9677 32.5939 35.941 32.6038 35.9141C32.6477 35.7404 32.6281 35.5566 32.5484 35.3961C29.8325 29.7431 28.0321 25.9211 27.1984 24.0275C27.133 23.8774 27.1049 23.7138 27.1164 23.5506C27.128 23.3874 27.1788 23.2293 27.2645 23.09C27.3499 22.9523 27.468 22.8379 27.6084 22.7569C27.7487 22.6759 27.9068 22.6308 28.0688 22.6257C30.312 22.5182 34.712 23.5362 41.5049 25.7242C51.7751 19.4371 54.9946 19.2406 56.5245 19.6515C56.6562 19.6874 56.7798 19.748 56.8888 19.8301C57.5746 20.3748 57.2371 21.25 56.9398 22.027C56.6825 22.6968 56.2735 23.6256 55.6913 24.8848C54.7061 27.0098 53.2219 30.0467 51.2724 33.9223C55.1233 33.3687 58.5561 31.7973 61.881 30.2786C62.0008 30.2227 62.1306 30.191 62.2627 30.1855C62.3948 30.18 62.5267 30.2007 62.6508 30.2464C62.7749 30.2922 62.8887 30.362 62.9856 30.452C63.0825 30.5419 63.1607 30.6502 63.2156 30.7705C63.2705 30.8908 63.3009 31.0208 63.3053 31.153C63.3097 31.2851 63.2878 31.4169 63.241 31.5405C63.1942 31.6642 63.1233 31.7774 63.0325 31.8735C62.9417 31.9697 62.8328 32.0469 62.712 32.1007C59.4854 33.5743 56.1631 35.0925 52.3765 35.7712C57.2196 36.6462 61.6234 38.1468 65.5555 40.2633C65.6759 40.3229 65.783 40.406 65.8706 40.5079C65.9581 40.6097 66.0242 40.7281 66.065 40.856C66.1058 40.984 66.1204 41.1188 66.1079 41.2525C66.0954 41.3862 66.0562 41.5161 65.9925 41.6343C65.9287 41.7525 65.8419 41.8566 65.737 41.9405C65.6322 42.0244 65.5115 42.0863 65.3822 42.1226C65.2529 42.1588 65.1176 42.1687 64.9844 42.1515C64.8513 42.1344 64.7229 42.0906 64.607 42.0227C60.9009 40.0311 56.7445 38.6112 52.1685 37.7628C54.5279 39.4503 56.7893 41.7012 58.7834 44.3715C61.1473 47.5312 62.9886 51.05 64.237 54.7935H77.9964C79.0576 54.7942 80.0752 55.2158 80.826 55.9659C81.5767 56.716 81.9992 57.7332 82.0009 58.7945H82.0013ZM41.7326 45.8182C44.4714 45.8188 47.1484 46.6315 49.4253 48.1536C51.7021 49.6757 53.4764 51.8388 54.5239 54.3693C55.5713 56.8998 55.8449 59.6841 55.3099 62.3701C54.7749 65.0561 53.4554 67.5231 51.5183 69.4592C49.5812 71.3952 47.1135 72.7134 44.4272 73.2469C41.7409 73.7805 38.9568 73.5054 36.4268 72.4566C33.8969 71.4078 31.7347 69.6323 30.2139 67.3546C28.693 65.077 27.8817 62.3995 27.8826 59.6607C27.8874 55.9896 29.3484 52.4704 31.9449 49.8752C34.5415 47.28 38.0615 45.821 41.7326 45.8182ZM42.7326 53.5343V58.7593C44.9814 59.1968 46.679 61.0718 46.679 63.305C46.679 65.5466 44.9814 67.4221 42.7326 67.8597V69.1807C42.7326 69.4459 42.6273 69.7003 42.4397 69.8878C42.2522 70.0754 41.9979 70.1807 41.7326 70.1807C41.4674 70.1807 41.2131 70.0754 41.0255 69.8878C40.838 69.7003 40.7326 69.4459 40.7326 69.1807V67.8591C38.4826 67.4216 36.7863 65.5466 36.7863 63.3043C36.7863 63.0391 36.8916 62.7848 37.0792 62.5972C37.2667 62.4097 37.521 62.3043 37.7863 62.3043C38.0515 62.3043 38.3058 62.4097 38.4934 62.5972C38.6809 62.7848 38.7863 63.0391 38.7863 63.3043C38.7863 64.4475 39.5988 65.4293 40.7323 65.7961V60.5711C38.4823 60.1336 36.7859 58.2586 36.7859 56.0165C36.7859 53.7838 38.4826 51.9085 40.7323 51.4708V50.1407C40.7323 49.8755 40.8376 49.6211 41.0252 49.4336C41.2127 49.2461 41.467 49.1407 41.7323 49.1407C41.9975 49.1407 42.2518 49.2461 42.4394 49.4336C42.6269 49.6211 42.7323 49.8755 42.7323 50.1407V51.4713C44.981 51.9088 46.6786 53.7838 46.6786 56.017C46.6786 56.2822 46.5733 56.5365 46.3857 56.7241C46.1982 56.9116 45.9439 57.017 45.6786 57.017C45.4134 57.017 45.1591 56.9116 44.9715 56.7241C44.784 56.5365 44.6786 56.2822 44.6786 56.017C44.6786 54.8738 43.8661 53.9005 42.7318 53.5343H42.7326ZM42.7326 60.8218C43.8668 61.188 44.6795 62.1615 44.6795 63.3045C44.6795 64.4475 43.867 65.4295 42.7326 65.7962V60.8212V60.8218ZM40.7326 53.5343V58.5086C39.5985 58.1425 38.7866 57.1601 38.7866 56.017C38.7866 54.8738 39.5983 53.9007 40.7324 53.5343H40.7326Z" fill="white"/>
</g>
<defs>
<filter id="filter0_ii_1543_20366" x="-4" y="0" width="108" height="104" filterUnits="userSpaceOnUse" color-interpolation-filters="sRGB">
<feFlood flood-opacity="0" result="BackgroundImageFix"/>
<feBlend mode="normal" in="SourceGraphic" in2="BackgroundImageFix" result="shape"/>
<feColorMatrix in="SourceAlpha" type="matrix" values="0 0 0 0 0 0 0 0 0 0 0 0 0 0 0 0 0 0 127 0" result="hardAlpha"/>
<feOffset dx="4" dy="4"/>
<feGaussianBlur stdDeviation="15"/>
<feComposite in2="hardAlpha" operator="arithmetic" k2="-1" k3="1"/>
<feColorMatrix type="matrix" values="0 0 0 0 0.819608 0 0 0 0 0.85098 0 0 0 0 0.901961 0 0 0 1 0"/>
<feBlend mode="normal" in2="shape" result="effect1_innerShadow_1543_20366"/>
<feColorMatrix in="SourceAlpha" type="matrix" values="0 0 0 0 0 0 0 0 0 0 0 0 0 0 0 0 0 0 127 0" result="hardAlpha"/>
<feOffset dx="-4" dy="4"/>
<feGaussianBlur stdDeviation="15"/>
<feComposite in2="hardAlpha" operator="arithmetic" k2="-1" k3="1"/>
<feColorMatrix type="matrix" values="0 0 0 0 1 0 0 0 0 1 0 0 0 0 1 0 0 0 0.5 0"/>
<feBlend mode="normal" in2="effect1_innerShadow_1543_20366" result="effect2_innerShadow_1543_20366"/>
</filter>
<clipPath id="clip0_1543_20366">
<rect width="64" height="64" fill="white" transform="translate(18 18)"/>
</clipPath>
</defs>
</svg>
