<svg width="96" height="96" viewBox="0 0 96 96" fill="none" xmlns="http://www.w3.org/2000/svg">
<path d="M50.994 65.1097C50.984 65.3597 50.694 65.3697 50.604 65.3897C50.154 65.4897 49.7439 65.7497 49.4339 65.9897C48.8639 66.4297 48.114 66.5297 47.584 67.0597C47.334 67.3097 46.904 67.4797 46.534 67.5897C45.924 67.7697 45.4739 68.2097 44.9239 68.4697C44.6539 68.5997 44.364 68.6897 44.104 68.8597C43.654 69.1497 43.184 69.3997 42.704 69.6297C42.514 69.7197 42.584 69.8497 42.574 69.9797C42.524 70.4297 42.734 70.8497 42.744 71.2897C42.764 72.3097 42.744 73.3297 42.754 74.3497C42.754 74.6697 42.624 74.9697 42.574 75.2797C42.514 75.7197 42.7539 75.9597 43.0439 76.0797C43.8039 76.4097 44.434 76.9897 45.194 77.2897C46.034 77.6297 46.714 78.2197 47.484 78.6497C47.794 78.8297 47.974 79.2497 48.204 79.5797C48.614 80.1797 48.554 80.8697 48.444 81.5097C48.3639 81.9597 48.0439 82.3797 47.8039 82.7897C47.2639 83.7297 46.694 84.6697 46.144 85.6097C45.924 85.9997 45.764 86.4297 45.524 86.7997C45.294 87.1397 45.054 87.4897 44.734 87.7597C44.084 88.2997 43.314 88.4897 42.494 88.3597C42.034 88.2897 41.584 88.1697 41.204 87.8197C40.974 87.5997 40.614 87.5197 40.334 87.3597C39.734 87.0097 39.1739 86.5797 38.5439 86.2997C38.0539 86.0797 37.714 85.6797 37.224 85.4897C37.074 85.4297 36.8939 85.3597 36.7939 85.4497C36.1939 85.9897 35.484 86.3897 34.834 86.8597C34.424 87.1597 33.9339 87.4297 33.4239 87.5897C32.9039 87.7497 32.484 88.1197 31.954 88.2497C31.784 88.2897 31.764 88.5097 31.764 88.7097C31.774 89.9797 31.804 91.2597 31.754 92.5297C31.714 93.4697 31.224 94.1697 30.354 94.6097C30.214 94.6797 29.824 94.6097 29.914 94.9997C27.504 94.9997 25.094 94.9997 22.694 94.9997C22.624 94.8797 22.524 94.7997 22.394 94.7297C22.014 94.5297 21.574 94.3597 21.344 94.0097C21.004 93.4797 20.734 92.8997 20.754 92.2197C20.794 91.0197 20.764 89.8097 20.764 88.6097C20.764 88.4697 20.844 88.2597 20.624 88.2297C20.094 88.1497 19.684 87.8397 19.224 87.6097C18.414 87.2197 17.614 86.8197 16.894 86.2697C16.664 86.0997 16.414 85.9797 16.204 85.7597C15.714 85.2397 15.504 85.2297 14.914 85.6097C14.704 85.7397 14.4939 85.8497 14.2939 85.9997C13.7539 86.3997 13.1139 86.6297 12.5539 87.0197C12.0339 87.3897 11.434 87.6697 10.884 87.9897C10.234 88.3797 9.46393 88.5097 8.67393 88.2197C8.10393 88.0097 7.62394 87.7197 7.30394 87.2197C6.94394 86.6597 6.55403 86.0997 6.27403 85.4897C6.03403 84.9497 5.64403 84.5097 5.40403 83.9897C5.20403 83.5497 5.00397 83.0597 4.71397 82.7297C4.34397 82.3097 4.14396 81.8497 4.07396 81.3797C3.90396 80.2297 4.194 79.2297 5.244 78.5297C5.594 78.2997 5.96396 78.0897 6.32396 77.8997C7.29396 77.3697 8.22394 76.7997 9.18394 76.2597C9.66394 75.9897 10.1039 75.6997 9.92393 75.0197C9.71393 74.1897 9.76401 73.3397 9.75401 72.4897C9.74401 71.6297 9.83394 70.7797 10.0539 69.9497C10.0839 69.8197 10.094 69.6797 9.90403 69.6197C9.09403 69.3797 8.46395 68.8097 7.69395 68.4697C7.02395 68.1797 6.46394 67.6497 5.80394 67.3297C5.14394 66.9997 4.61393 66.5797 4.29393 65.9097C3.97393 65.2297 3.92403 64.5297 4.15403 63.7897C4.29403 63.3397 4.54404 62.9597 4.78404 62.5697C5.11404 62.0197 5.32395 61.3797 5.69395 60.8897C6.13395 60.2897 6.35396 59.5797 6.82396 59.0097C7.25396 58.4697 7.48397 57.7797 8.21397 57.4797C8.80397 57.2397 9.40402 57.0897 10.014 57.2297C11.184 57.5097 12.094 58.3297 13.154 58.8297C13.714 59.0997 14.2039 59.5297 14.7939 59.7697C14.9039 59.8197 15.0839 59.8497 15.1839 60.0197C15.3339 60.2697 15.754 60.2797 15.904 60.0297C16.224 59.4997 16.824 59.3497 17.244 58.9497C17.674 58.5497 18.284 58.4097 18.784 58.1097C19.354 57.7697 19.944 57.4697 20.594 57.3197C20.794 57.2697 20.734 57.0997 20.734 56.9697C20.744 56.4097 20.734 55.8497 20.734 55.2897C20.744 52.8397 20.744 50.3897 20.754 47.9397C24.414 47.9397 28.074 47.9297 31.734 47.9297C31.744 48.0797 31.754 48.2397 31.754 48.3897C31.754 51.1997 31.754 54.0097 31.754 56.8197C31.754 57.0997 31.824 57.2797 32.134 57.3497C32.794 57.4997 33.3539 57.8797 33.9239 58.1997C34.4539 58.4997 35.024 58.7097 35.494 59.1497C35.864 59.4897 36.404 59.6397 36.734 60.0797C36.814 60.1897 37.024 60.2497 37.114 60.1097C37.254 59.8997 37.474 59.8697 37.664 59.7697C38.214 59.4497 38.804 59.2097 39.344 58.8397C39.914 58.4497 40.614 58.2597 41.204 57.8597C41.754 57.4897 42.394 57.2597 42.964 56.9197C43.494 56.5997 44.064 56.3697 44.574 56.0297C44.854 55.8497 45.144 55.5997 45.524 55.6497C45.634 55.7997 45.804 55.9497 45.834 56.1197C45.914 56.5597 46.194 56.9297 46.414 57.2597C46.854 57.8997 47.134 58.6197 47.614 59.2297C47.944 59.6497 48.1339 60.1597 48.444 60.6097C48.854 61.1997 49.0639 61.9097 49.5439 62.4797C49.8139 62.7997 49.914 63.2397 50.144 63.5997C50.444 64.0997 50.824 64.5497 50.994 65.1097ZM37.204 67.1997C37.274 66.8797 37.1439 66.5597 37.0439 66.2297C36.9339 65.8497 36.7339 65.4997 36.4339 65.2997C36.0439 65.0497 35.734 64.6797 35.214 64.5797C34.494 64.4397 33.794 64.4397 33.194 64.7897C32.794 65.0197 32.384 65.3097 32.084 65.6897C31.664 66.2297 31.144 66.6697 30.664 67.1397C30.194 67.6097 29.704 68.0597 29.244 68.5397C28.734 69.0797 28.2039 69.6097 27.6839 70.1297C27.1139 70.6897 26.574 71.2797 25.984 71.8197C25.854 71.9297 25.784 72.1097 25.654 72.2197C24.994 72.7697 24.374 73.3597 23.844 74.0397C23.614 74.3297 23.284 74.3497 23.114 74.0197C23.014 73.8297 22.864 73.6697 22.724 73.5597C22.134 73.1297 21.694 72.5397 21.164 72.0497C20.634 71.5697 20.154 71.0297 19.574 70.5897C18.514 69.7797 17.294 69.9097 16.274 70.6097C16.024 70.7797 15.984 71.0597 15.774 71.2197C15.374 71.5297 15.284 71.9897 15.224 72.4297C15.134 73.1797 15.384 73.8097 15.864 74.4497C16.374 75.1297 17.064 75.6297 17.594 76.2897C18.044 76.8397 18.624 77.2897 19.134 77.7897C19.344 77.9897 19.514 78.2297 19.744 78.4297C20.234 78.8497 20.684 79.3297 21.104 79.8197C21.554 80.3497 22.134 80.7397 22.744 80.9697C23.464 81.2397 24.214 81.0097 24.864 80.5997C25.644 80.1197 26.234 79.4097 26.874 78.7597C27.604 78.0297 28.3139 77.2897 29.0639 76.5797C29.5939 76.0697 30.124 75.5497 30.634 75.0297C31.084 74.5797 31.544 74.1297 31.974 73.6697C32.484 73.1297 33.034 72.6097 33.574 72.0897C34.024 71.6497 34.4639 71.1697 34.9239 70.7197C35.4539 70.1997 36.004 69.6797 36.514 69.1497C37.004 68.6697 37.264 67.9897 37.204 67.1997Z" fill="#009A9A"/>
<path d="M31.734 47.97C28.074 47.97 24.414 47.98 20.754 47.98C20.754 46.66 20.744 45.35 20.744 44.03C20.744 42.38 20.744 40.73 20.734 39.08C20.734 38.93 20.824 38.71 20.574 38.67C20.074 38.58 19.664 38.32 19.224 38.09C18.524 37.73 17.784 37.44 17.164 36.95C16.774 36.65 16.284 36.5 15.984 36.06C15.774 35.75 15.394 35.7 15.074 35.93C14.474 36.36 13.8039 36.67 13.1739 37.05C12.3239 37.56 11.494 38.11 10.594 38.54C9.52397 39.06 8.514 38.81 7.624 38.09C7.084 37.65 6.90392 36.97 6.54393 36.42C6.03393 35.66 5.63394 34.82 5.18394 34.02C4.94394 33.6 4.64404 33.22 4.41404 32.81C4.00404 32.08 3.89403 31.29 4.15403 30.43C4.32403 29.85 4.65394 29.45 5.06394 29.1C5.54394 28.68 6.19398 28.52 6.72398 28.14C7.10398 27.87 7.59396 27.74 7.95396 27.45C8.43396 27.07 8.98402 26.83 9.51402 26.55C9.80402 26.4 9.92393 26.27 9.92393 25.95C9.92393 25.09 9.69398 24.25 9.72398 23.38C9.75398 22.37 9.76392 21.37 10.0439 20.38C10.0839 20.25 10.074 20.12 9.88401 20.05C9.02401 19.76 8.32399 19.14 7.48399 18.79C6.85399 18.53 6.344 18.04 5.744 17.74C5.124 17.43 4.67403 16.98 4.27403 16.44C4.14403 16.26 4.20401 16.07 4.13401 15.89C3.93401 15.37 3.98399 14.85 4.11399 14.31C4.23399 13.81 4.54404 13.43 4.78404 13C5.09404 12.43 5.34396 11.81 5.70396 11.3C6.13396 10.69 6.44401 10.02 6.88401 9.42001C7.26401 8.91001 7.45397 8.28002 8.09397 7.99002C8.74397 7.69002 9.38399 7.55002 10.114 7.74002C10.784 7.92002 11.314 8.31002 11.904 8.61002C12.564 8.95002 13.194 9.36001 13.834 9.73001C14.264 9.98001 14.784 10.1 15.124 10.54C15.324 10.8 15.744 10.73 15.894 10.49C16.214 10 16.7439 9.83002 17.1739 9.52002C17.3839 9.37002 17.5139 9.14002 17.8039 9.05002C18.2039 8.92002 18.654 8.77 18.964 8.5C19.374 8.15 19.874 8.02001 20.334 7.85001C20.684 7.73001 20.744 7.60001 20.744 7.29001C20.734 6.02001 20.684 4.74 20.764 3.47C20.804 2.73 21.0939 2.04 21.7939 1.59C22.0639 1.42 22.384 1.29 22.584 1C25.024 1 27.454 1 29.894 1C30.074 1.27 30.384 1.38001 30.634 1.57001C31.284 2.07001 31.744 2.64 31.744 3.5C31.744 4.69 31.744 5.88001 31.744 7.07001C31.744 7.68001 31.834 7.83002 32.404 7.96002C32.604 8.01002 32.804 8.04 32.974 8.16C33.404 8.47 33.904 8.64001 34.354 8.92001C35.054 9.35001 35.744 9.8 36.384 10.31C36.454 10.37 36.514 10.43 36.574 10.49C36.744 10.64 36.9639 10.77 37.1739 10.56C37.5139 10.22 37.964 10.09 38.354 9.84C38.664 9.65 38.9939 9.51002 39.2939 9.27002C39.6339 8.99002 40.074 8.81002 40.484 8.61002C40.694 8.51002 40.854 8.35002 41.034 8.24002C41.664 7.83002 42.314 7.60001 43.074 7.64001C44.024 7.69001 44.7339 8.07 45.2939 8.88C45.7139 9.49 45.964 10.18 46.374 10.78C46.744 11.33 46.954 11.99 47.344 12.49C47.784 13.05 47.964 13.73 48.404 14.29C48.574 14.5 48.474 14.94 48.464 15.27C48.454 16.13 48.034 16.76 47.404 17.32C46.934 17.73 46.344 17.86 45.854 18.21C45.224 18.67 44.4639 18.92 43.8039 19.34C43.4739 19.55 43.1339 19.75 42.7939 19.95C42.5939 20.07 42.5239 20.25 42.5639 20.48C42.7939 21.8 42.734 23.14 42.754 24.48C42.764 25.01 42.504 25.51 42.574 26.04C42.594 26.2 42.5739 26.33 42.7939 26.41C43.3739 26.64 43.984 26.9 44.464 27.27C45.044 27.71 45.7639 27.83 46.3139 28.33C46.6539 28.64 47.224 28.81 47.704 29.01C48.264 29.25 48.7239 29.68 49.2939 29.89C49.7839 30.06 50.164 30.42 50.644 30.6C50.784 30.65 50.964 30.71 50.994 30.9C50.984 31.11 50.884 31.29 50.774 31.47C50.274 32.27 49.764 33.07 49.284 33.89C49.004 34.37 48.814 34.92 48.474 35.35C48.154 35.77 47.944 36.24 47.694 36.68C47.554 36.92 47.364 37.1 47.244 37.36C47.054 37.79 46.8439 38.21 46.5539 38.58C46.3839 38.79 46.264 39 46.144 39.24C45.964 39.62 45.724 39.97 45.514 40.33C45.394 40.31 45.214 40.34 45.154 40.27C44.684 39.71 43.964 39.49 43.364 39.21C42.334 38.72 41.374 38.09 40.324 37.63C39.764 37.39 39.284 36.95 38.694 36.72C38.174 36.51 37.714 36.22 37.244 35.91C37.074 35.8 36.894 35.75 36.644 35.94C35.864 36.54 35.104 37.18 34.214 37.62C33.594 37.93 33.0239 38.36 32.3139 38.51C31.8639 38.6 31.6839 38.88 31.6939 39.4C31.7539 42.26 31.734 45.11 31.734 47.97ZM37.214 17.74C37.254 16.62 36.7239 15.81 35.7939 15.26C35.2039 14.91 34.524 14.87 33.884 15C33.564 15.06 33.194 15.13 32.914 15.37C32.274 15.93 31.694 16.57 31.094 17.17C30.644 17.62 30.184 18.08 29.734 18.52C29.204 19.04 28.694 19.58 28.154 20.1C27.654 20.57 27.1839 21.09 26.6939 21.57C26.1939 22.06 25.774 22.62 25.214 23.05C25.014 23.2 24.914 23.47 24.714 23.61C24.374 23.86 24.074 24.13 23.854 24.48C23.644 24.81 23.284 24.82 23.104 24.48C22.994 24.28 22.8439 24.12 22.6839 24C22.0639 23.51 21.574 22.9 21.024 22.35C20.604 21.93 20.184 21.48 19.734 21.12C18.964 20.52 18.0639 20.33 17.0639 20.65C16.2739 20.9 15.744 21.45 15.464 22.08C15.054 23.01 15.054 24 15.854 24.89C16.364 25.46 16.9039 25.99 17.4239 26.54C18.0839 27.24 18.814 27.89 19.454 28.61C19.524 28.69 19.624 28.76 19.6939 28.83C20.174 29.31 20.684 29.76 21.124 30.27C21.484 30.69 21.934 31.05 22.384 31.26C23.234 31.65 24.1339 31.58 24.9439 30.98C25.6439 30.46 26.224 29.81 26.854 29.22C27.434 28.67 28.024 28.11 28.584 27.54C29.124 26.98 29.684 26.44 30.224 25.89C30.694 25.42 31.184 24.95 31.644 24.47C32.204 23.89 32.774 23.32 33.344 22.76C33.814 22.29 34.294 21.81 34.764 21.35C35.274 20.85 35.7639 20.3 36.2939 19.81C36.9039 19.24 37.184 18.56 37.214 17.74Z" fill="#009A9A"/>
<path d="M92.494 55.8214C92.494 56.4514 92.484 57.0915 92.104 57.5915C91.554 58.3115 91.184 59.1315 90.724 59.9115C90.254 60.7115 89.794 61.5415 89.314 62.3515C89.024 62.8615 88.524 63.3015 87.824 63.4715C87.014 63.6715 86.234 63.6714 85.574 63.2414C84.884 62.7814 84.084 62.5114 83.424 61.9814C83.054 61.6814 82.594 61.4015 82.124 61.2715C81.824 61.1914 81.734 60.9214 81.474 60.8114C80.944 60.5814 80.6341 60.5815 80.2841 61.0215C79.9841 61.3914 79.564 61.5915 79.204 61.8415C78.614 62.2615 77.9741 62.6314 77.2841 62.8914C76.8641 63.0514 76.524 63.3614 76.064 63.4314C75.794 63.4814 75.754 63.7014 75.754 63.9414C75.764 65.1614 75.734 66.3815 75.764 67.6015C75.794 68.4615 74.814 69.5815 73.964 69.8515C72.734 70.2415 71.524 69.9414 70.304 70.0514C69.244 70.0514 68.174 70.1315 67.114 70.0315C66.384 69.9615 65.744 69.5914 65.324 68.8914C65.144 68.5914 64.934 68.3314 64.844 67.9814C64.794 67.8014 64.764 67.6315 64.764 67.4615C64.754 66.2715 64.754 65.0814 64.764 63.8914C64.764 63.6014 64.744 63.4115 64.374 63.4015C64.134 63.3915 63.934 63.1314 63.724 63.0514C63.214 62.8414 62.714 62.5915 62.214 62.3515C61.994 62.2415 61.734 62.1814 61.594 61.9314C61.474 61.7114 61.184 61.7515 60.994 61.6015C60.724 61.3915 60.4539 61.1715 60.174 60.9615C59.6139 60.5315 59.264 60.4714 58.774 60.8914C58.364 61.2414 57.894 61.4215 57.444 61.6515C56.734 62.0015 56.084 62.4715 55.364 62.7815C54.574 63.1215 53.834 63.5814 53.094 63.9914C52.454 64.3514 51.6841 64.5315 51.1541 65.0915C51.1241 65.1215 51.044 65.1114 50.994 65.1214C50.824 64.5514 50.444 64.1014 50.144 63.6214C49.914 63.2514 49.8141 62.8214 49.5341 62.4914C49.0541 61.9314 48.854 61.2214 48.434 60.6314C48.124 60.1814 47.934 59.6714 47.604 59.2514C47.124 58.6414 46.8441 57.9215 46.4041 57.2815C46.1741 56.9515 45.894 56.5914 45.824 56.1414C45.794 55.9814 45.624 55.8314 45.514 55.6814C45.924 55.3014 46.454 55.0714 46.934 54.8214C47.824 54.3614 48.704 53.8715 49.584 53.4015C50.474 52.9315 51.394 52.5315 52.224 51.9615C52.544 51.7515 52.9341 51.6514 53.2841 51.4814C53.7441 51.2614 53.9939 51.1215 53.924 50.5315C53.884 50.1715 53.8039 49.7914 53.7939 49.4414C53.7239 48.0214 53.654 46.5814 54.054 45.1914C54.094 45.0614 54.0841 44.9515 53.9141 44.8515C53.4241 44.5715 52.8941 44.3615 52.4141 44.0215C51.8541 43.6115 51.134 43.4415 50.524 43.0415C49.994 42.7015 49.414 42.4114 48.844 42.1314C48.144 41.7714 47.454 41.3714 46.764 40.9914C46.354 40.7714 45.8741 40.6915 45.5341 40.3415C45.7541 39.9815 45.984 39.6314 46.174 39.2514C46.284 39.0114 46.414 38.8015 46.574 38.5915C46.864 38.2215 47.074 37.8014 47.264 37.3714C47.374 37.1114 47.574 36.9214 47.704 36.6914C47.964 36.2414 48.174 35.7714 48.494 35.3614C48.824 34.9214 49.0139 34.3714 49.2939 33.8914C49.7739 33.0814 50.2841 32.2815 50.7841 31.4715C50.8941 31.3015 50.984 31.1215 51.004 30.9115C51.344 30.9415 51.614 31.1414 51.884 31.3314C52.394 31.7014 53.0339 31.8314 53.5439 32.1814C54.4139 32.7914 55.4241 33.1314 56.2841 33.7514C56.5541 33.9414 56.914 34.0114 57.194 34.1914C57.804 34.6014 58.544 34.7715 59.084 35.2915C59.344 35.5515 59.714 35.4814 59.974 35.1914C60.154 34.9914 60.384 34.8414 60.604 34.6714C61.294 34.1414 62.074 33.7415 62.854 33.3515C63.434 33.0615 63.964 32.7014 64.614 32.5814C64.824 32.5314 64.754 32.3314 64.754 32.1914C64.764 30.9714 64.734 29.7515 64.764 28.5415C64.784 27.6515 65.224 27.0114 65.954 26.4814C66.564 26.0414 67.2041 25.9314 67.9141 25.9514C68.7141 25.9814 69.504 25.9715 70.304 25.9715C71.384 25.9715 72.4641 25.9615 73.5341 25.9715C74.0041 25.9715 74.344 26.2815 74.694 26.5315C75.474 27.0715 75.794 27.8214 75.764 28.7514C75.744 29.7314 75.764 30.7114 75.764 31.6914C75.764 32.4614 75.744 32.5015 76.434 32.7215C76.964 32.8915 77.4241 33.1715 77.9141 33.4015C78.4141 33.6415 78.914 33.9114 79.314 34.2414C79.734 34.5714 80.284 34.7614 80.584 35.2514C80.714 35.4614 80.994 35.5714 81.204 35.3614C81.644 34.9214 82.264 34.8014 82.744 34.4514C83.284 34.0514 83.884 33.7715 84.474 33.4715C84.814 33.3015 85.114 33.0615 85.434 32.8515C86.074 32.4415 86.754 32.3714 87.444 32.4514C88.284 32.5414 88.944 32.9914 89.384 33.7314C89.834 34.5014 90.314 35.2514 90.704 36.0514C91.074 36.8114 91.484 37.5615 91.954 38.2215C92.514 38.9915 92.524 39.7614 92.444 40.5814C92.414 40.9414 92.194 41.3014 91.944 41.6314C91.414 42.3214 90.614 42.5514 89.934 42.9914C89.264 43.4214 88.534 43.7314 87.834 44.1214C87.484 44.3214 87.1939 44.6214 86.7939 44.7614C86.5639 44.8314 86.544 45.0715 86.584 45.2915C86.824 46.5715 86.744 47.8615 86.774 49.1615C86.784 49.6415 86.644 50.0814 86.574 50.5514C86.524 50.9714 86.774 51.1914 87.024 51.3014C87.904 51.6914 88.6939 52.2314 89.5439 52.6714C90.1639 53.0014 90.774 53.3714 91.334 53.7614C91.994 54.2214 92.494 54.8914 92.494 55.8214Z" fill="#006363"/>
<path d="M37.204 67.1992C37.274 67.9892 37.0041 68.6591 36.5141 69.1691C36.0041 69.7091 35.454 70.2192 34.924 70.7392C34.474 71.1892 34.034 71.6691 33.574 72.1091C33.044 72.6291 32.484 73.1492 31.974 73.6892C31.534 74.1592 31.0741 74.5991 30.6341 75.0491C30.1241 75.5691 29.594 76.0892 29.064 76.5992C28.324 77.3092 27.604 78.0492 26.874 78.7792C26.234 79.4192 25.644 80.1292 24.864 80.6192C24.214 81.0192 23.464 81.2592 22.744 80.9892C22.134 80.7592 21.554 80.3692 21.104 79.8392C20.684 79.3492 20.234 78.8692 19.744 78.4492C19.514 78.2492 19.3441 78.0092 19.1341 77.8092C18.6141 77.3092 18.044 76.8592 17.594 76.3092C17.064 75.6592 16.384 75.1592 15.864 74.4692C15.384 73.8292 15.144 73.1992 15.224 72.4492C15.274 72.0092 15.3641 71.5492 15.7741 71.2392C15.9841 71.0792 16.0241 70.7992 16.2741 70.6292C17.2941 69.9292 18.524 69.7991 19.574 70.6091C20.154 71.0491 20.6241 71.5892 21.1641 72.0692C21.7041 72.5592 22.134 73.1492 22.724 73.5792C22.874 73.6892 23.014 73.8392 23.114 74.0392C23.284 74.3692 23.614 74.3492 23.844 74.0592C24.374 73.3792 24.9841 72.7892 25.6541 72.2392C25.7841 72.1292 25.854 71.9492 25.984 71.8392C26.574 71.2992 27.114 70.7092 27.684 70.1492C28.214 69.6392 28.734 69.0992 29.244 68.5592C29.704 68.0792 30.1941 67.6192 30.6641 67.1592C31.1441 66.6792 31.664 66.2392 32.084 65.7092C32.384 65.3192 32.804 65.0392 33.194 64.8092C33.794 64.4592 34.494 64.4592 35.214 64.5992C35.734 64.6992 36.044 65.0692 36.434 65.3192C36.734 65.5192 36.934 65.8692 37.044 66.2492C37.144 66.5692 37.264 66.8892 37.204 67.1992Z" fill="white"/>
<path d="M37.214 17.739C37.184 18.559 36.9141 19.2391 36.2841 19.8391C35.7641 20.3291 35.274 20.8791 34.754 21.3791C34.274 21.8391 33.804 22.3291 33.334 22.7891C32.764 23.3491 32.194 23.9191 31.634 24.4991C31.174 24.9791 30.684 25.439 30.214 25.919C29.674 26.469 29.114 27.0191 28.574 27.5691C28.014 28.1391 27.434 28.6991 26.844 29.2491C26.214 29.8391 25.644 30.4891 24.934 31.0091C24.124 31.6091 23.224 31.6791 22.374 31.2891C21.924 31.0791 21.474 30.719 21.114 30.299C20.674 29.789 20.164 29.339 19.684 28.859C19.604 28.779 19.514 28.7191 19.444 28.6391C18.794 27.9191 18.0741 27.2691 17.4141 26.5691C16.8941 26.0191 16.344 25.489 15.844 24.919C15.054 24.029 15.044 23.039 15.454 22.109C15.734 21.479 16.274 20.9191 17.054 20.6791C18.064 20.3591 18.964 20.5491 19.724 21.1491C20.184 21.5091 20.594 21.9591 21.014 22.3791C21.564 22.9291 22.064 23.5391 22.674 24.0291C22.834 24.1491 22.984 24.3091 23.094 24.5091C23.274 24.8491 23.634 24.8391 23.844 24.5091C24.074 24.1491 24.374 23.8891 24.704 23.6391C24.904 23.4891 25.004 23.2291 25.204 23.0791C25.764 22.6491 26.184 22.0891 26.684 21.5991C27.174 21.1191 27.6441 20.6091 28.1441 20.1291C28.6841 19.6091 29.194 19.069 29.724 18.549C30.184 18.109 30.634 17.6491 31.084 17.1991C31.684 16.5991 32.2641 15.9591 32.9041 15.3991C33.1841 15.1591 33.554 15.0891 33.874 15.0291C34.514 14.8991 35.1941 14.9391 35.7841 15.2891C36.7241 15.8091 37.244 16.619 37.214 17.739Z" fill="white"/>
<path d="M68.324 56.9387C67.444 56.7987 66.614 56.5387 65.814 56.1787C65.014 55.8187 64.3439 55.3787 63.7939 54.8687L64.894 53.2787C64.984 53.1487 65.104 53.0387 65.264 52.9487C65.424 52.8587 65.584 52.8187 65.764 52.8187C65.944 52.8187 66.134 52.8687 66.324 52.9587C66.514 53.0587 66.724 53.1687 66.944 53.3087C67.164 53.4487 67.414 53.5887 67.684 53.7287C67.954 53.8687 68.254 53.9887 68.594 54.0787L69.014 49.7587C68.464 49.6087 67.924 49.4288 67.384 49.2188C66.844 49.0087 66.354 48.7287 65.924 48.3787C65.494 48.0287 65.134 47.5788 64.864 47.0388C64.594 46.4988 64.454 45.8187 64.454 44.9987C64.454 44.3987 64.574 43.8087 64.824 43.2287C65.064 42.6587 65.424 42.1387 65.894 41.6787C66.364 41.2187 66.934 40.8487 67.624 40.5487C68.314 40.2487 69.094 40.1087 69.974 40.1087L70.104 38.8187C70.124 38.5987 70.224 38.4087 70.394 38.2287C70.564 38.0587 70.7739 37.9688 71.0439 37.9688H72.344L72.114 40.2188C72.934 40.3688 73.644 40.6187 74.234 40.9587C74.824 41.2987 75.334 41.6587 75.744 42.0487L74.874 43.3187C74.744 43.5087 74.614 43.6487 74.484 43.7387C74.354 43.8287 74.194 43.8687 74.014 43.8687C73.894 43.8687 73.754 43.8388 73.604 43.7888C73.454 43.7388 73.284 43.6687 73.104 43.5887C72.924 43.5087 72.724 43.4187 72.514 43.3287C72.304 43.2387 72.084 43.1587 71.844 43.0887L71.444 47.1487C71.814 47.2587 72.1739 47.3687 72.5439 47.4987C72.9139 47.6287 73.264 47.7687 73.604 47.9287C73.944 48.0887 74.264 48.2787 74.554 48.4987C74.844 48.7087 75.104 48.9587 75.324 49.2487C75.544 49.5387 75.714 49.8687 75.834 50.2487C75.954 50.6287 76.014 51.0588 76.014 51.5388C76.014 52.2588 75.894 52.9387 75.644 53.5787C75.404 54.2187 75.044 54.7787 74.574 55.2687C74.104 55.7587 73.524 56.1587 72.834 56.4587C72.144 56.7687 71.364 56.9587 70.484 57.0287L70.344 58.4587C70.324 58.6687 70.224 58.8688 70.054 59.0388C69.884 59.2088 69.6741 59.2987 69.4041 59.2987H68.104L68.324 56.9387ZM67.804 44.6887C67.804 45.1387 67.944 45.4987 68.234 45.7787C68.524 46.0587 68.894 46.2887 69.354 46.4787L69.694 43.0287C69.344 43.0787 69.044 43.1587 68.814 43.2587C68.574 43.3587 68.384 43.4887 68.234 43.6287C68.084 43.7787 67.9741 43.9387 67.9041 44.1187C67.8341 44.2987 67.804 44.4887 67.804 44.6887ZM72.644 52.0787C72.644 51.6487 72.504 51.2988 72.224 51.0388C71.944 50.7788 71.574 50.5587 71.124 50.3887L70.754 54.1588C72.014 53.9388 72.644 53.2387 72.644 52.0787Z" fill="white"/>
</svg>
