<svg width="26" height="26" viewBox="0 0 26 26" fill="none" xmlns="http://www.w3.org/2000/svg">
<path className="svg-stroke" d="M13 25C19.6274 25 25 19.6274 25 13C25 6.37258 19.6274 1 13 1C6.37258 1 1 6.37258 1 13C1 19.6274 6.37258 25 13 25Z" stroke="#D2D9DC" stroke-linejoin="round"/>
<path className="svg-fill-primary" d="M13 25C19.6274 25 25 19.6274 25 13C25 6.37258 19.6274 1 13 1C6.37258 1 1 6.37258 1 13C1 19.6274 6.37258 25 13 25Z" fill="white"/>
<path className="svg-fill-secondary" d="M9 12.5001H15.0999L12.3002 9.70022L13.0003 9L17 13L13.0003 17L12.3002 16.2998L15.0999 13.4999H9V12.5001Z" fill="#5F737C"/>
</svg>
