<svg width="80" height="80" viewBox="0 0 80 80" fill="none" xmlns="http://www.w3.org/2000/svg">
<rect width="80" height="80" rx="24" fill="#DBF0F0"/>
<g clip-path="url(#clip0_1775_5276)">
<path d="M68 40C68 37.7427 66.4461 35.7612 64.2538 35.2229C64.2542 35.2224 64.2546 35.222 64.255 35.2214C63.6272 32.0169 62.3564 28.9491 60.53 26.2301C61.7101 24.244 61.3641 21.698 59.7192 20.1248C58.1313 18.6061 55.6852 18.3308 53.77 19.4701C51.051 17.6436 47.9832 16.3728 44.7786 15.745C44.778 15.7454 44.7776 15.7459 44.7771 15.7463C44.2442 13.6061 42.2953 12 40 12C37.7047 12 35.7558 13.6061 35.2229 15.7463C35.2224 15.7459 35.222 15.7454 35.2214 15.745C32.0168 16.3728 28.949 17.6436 26.23 19.4701C24.3322 18.3567 21.9353 18.604 20.356 20.0527C18.6665 21.6027 18.2792 24.1917 19.4699 26.2301C17.6436 28.9491 16.3728 32.0169 15.745 35.2214C15.7453 35.222 15.7455 35.2225 15.7459 35.223C13.6058 35.756 12 37.7048 12 40C12 42.2956 13.6063 44.2444 15.7468 44.7772C15.7462 44.7776 15.7457 44.7782 15.745 44.7786C16.3728 47.9831 17.6436 51.0509 19.47 53.7699C18.3652 55.6615 18.6032 58.0423 20.0294 59.6185C21.5713 61.3223 24.174 61.7236 26.23 60.53C28.949 62.3565 32.0168 63.6273 35.2214 64.2551C35.2218 64.2546 35.2224 64.2541 35.2228 64.2536C35.7557 66.3938 37.7045 68 40 68C42.2953 68 44.2441 66.394 44.7771 64.2539C44.7776 64.2542 44.7782 64.2547 44.7786 64.255C47.9832 63.6272 51.051 62.3564 53.77 60.5299C55.7013 61.6975 58.1992 61.3955 59.7956 59.8023C61.3944 58.2067 61.6995 55.7042 60.53 53.7698C62.3564 51.0508 63.6273 47.9831 64.255 44.7785C64.2545 44.778 64.254 44.7775 64.2535 44.7771C66.4459 44.239 68 42.2575 68 40ZM60.9772 44.4448C60.9762 44.4459 60.975 44.4471 60.9738 44.4483C60.4314 47.0171 59.4111 49.4765 57.9755 51.6834C56.2315 51.0767 54.2957 51.4755 52.9624 52.7199C51.5421 54.0453 51.0381 56.1126 51.6835 57.9753C49.4766 59.4111 47.0172 60.4314 44.4483 60.9738C44.4473 60.9753 44.4463 60.9769 44.4453 60.9785C43.6515 59.3164 41.9508 58.1562 40 58.1562C38.0495 58.1562 36.3492 59.316 35.5551 60.9775C35.554 60.9763 35.5529 60.975 35.5517 60.9738C32.9829 60.4314 30.5234 59.4111 28.3165 57.9753C28.9172 56.2405 28.5289 54.3184 27.3032 52.9871C25.9818 51.5518 23.9023 51.0368 22.0245 51.6834C20.5889 49.4766 19.5686 47.0171 19.0262 44.4483C19.025 44.4472 19.0238 44.446 19.0226 44.4449C20.6842 43.6507 21.8438 41.9504 21.8438 40C21.8438 38.0495 20.684 36.3493 19.0225 35.5551C19.0237 35.554 19.0249 35.5528 19.0262 35.5517C19.5686 32.9829 20.5889 30.5235 22.0245 28.3166C23.8334 28.9575 25.856 28.4922 27.1946 27.1277C28.5097 25.787 28.9462 23.8012 28.3165 22.0245C30.5234 20.5888 32.9828 19.5685 35.5517 19.0261C35.5527 19.0247 35.5538 19.0232 35.5548 19.0217C36.3487 20.6837 38.0493 21.8438 40 21.8438C41.9505 21.8438 43.6508 20.684 44.4449 19.0224C44.446 19.0236 44.4471 19.0249 44.4483 19.0262C47.0171 19.5686 49.4766 20.5889 51.6835 22.0247C51.0401 23.8674 51.5298 25.918 52.9296 27.2484C54.2656 28.5182 56.2193 28.9311 57.9755 28.3166C59.4111 30.5234 60.4314 32.9829 60.9738 35.5517C60.9752 35.5527 60.9766 35.5538 60.978 35.5548C59.3162 36.3488 58.1562 38.0493 58.1562 40C58.1562 41.9504 59.3158 43.6506 60.9772 44.4448Z" fill="#008989"/>
<path d="M38.3594 28.4609H41.6406V38.3047H38.3594V28.4609Z" fill="#008989"/>
<path d="M51.4844 30.1016V49.8984C51.4844 50.8041 50.7494 51.5391 49.8438 51.5391H30.1562C29.2506 51.5391 28.5156 50.8041 28.5156 49.8984V30.1016C28.5156 29.1959 29.2506 28.4609 30.1562 28.4609H35.0781V39.9453C35.0781 40.8509 35.8131 41.5859 36.7188 41.5859H43.2812C44.1869 41.5859 44.9219 40.8509 44.9219 39.9453V28.4609H49.8438C50.7494 28.4609 51.4844 29.1959 51.4844 30.1016Z" fill="#008989"/>
</g>
<defs>
<clipPath id="clip0_1775_5276">
<rect width="56" height="56" fill="white" transform="translate(12 12)"/>
</clipPath>
</defs>
</svg>
