<svg width="80" height="80" viewBox="0 0 80 80" fill="none" xmlns="http://www.w3.org/2000/svg">
<rect width="80" height="80" rx="24" fill="#B9E4E4"/>
<path fill-rule="evenodd" clip-rule="evenodd" d="M60.6359 30.9925C61.1683 32.2108 61.5923 33.4759 61.901 34.7735L66.25 36.4475V43.5525L61.8999 45.2269C61.3484 47.5447 60.4295 49.7582 59.1804 51.7869L61.0736 56.0497L56.0496 61.0738L51.7882 59.1811C49.7593 60.4307 47.5448 61.3496 45.2265 61.9012L43.5526 66.25H36.4476L34.7732 61.9C32.4554 61.3484 30.2419 60.4295 28.2132 59.1805L23.9503 61.0736L18.9264 56.0497L20.8191 51.7883C19.5695 49.7594 18.6508 47.5448 18.0991 45.2266L13.75 43.5525V36.4475L18.0996 34.7732C18.4084 33.4758 18.8322 32.2109 19.3647 30.9929L23.6882 33.6499C22.9213 35.6186 22.5 37.76 22.5 40.0001C22.5 49.6659 30.3342 57.5 40 57.5C49.6658 57.5 57.5 49.6659 57.5 40.0001C57.5 37.76 57.0788 35.6185 56.3116 33.65L60.6359 30.9925ZM21.7531 21.3798C21.5177 21.2739 21.274 21.5176 21.3799 21.753L22.9455 25.2349C22.9925 25.3396 22.9742 25.4553 22.8971 25.5403L20.3322 28.3681C20.1577 28.5604 20.3137 28.8665 20.5718 28.8384L24.3671 28.4255C24.4812 28.413 24.5856 28.4663 24.6427 28.566L26.5394 31.8791C26.6685 32.1045 27.0077 32.0507 27.0607 31.7966L27.8408 28.0594C27.8642 27.9471 27.9471 27.8642 28.0594 27.8408L31.7967 27.0607C32.0508 27.0077 32.1045 26.6684 31.8792 26.5395L28.566 24.6427C28.4665 24.5857 28.4132 24.4812 28.4257 24.3672L28.8386 20.5718C28.8667 20.3137 28.5606 20.1577 28.3683 20.3322L25.5405 22.897C25.4555 22.9742 25.3397 22.9925 25.235 22.9455L21.7531 21.3798ZM58.6202 21.7531C58.7261 21.5177 58.4824 21.274 58.247 21.3799L54.7651 22.9455C54.6604 22.9925 54.5447 22.9742 54.4597 22.897L51.6319 20.3322C51.4396 20.1577 51.1335 20.3137 51.1616 20.5718L51.5745 24.3672C51.587 24.4812 51.5337 24.5857 51.4342 24.6427L48.121 26.5395C47.8957 26.6685 47.9494 27.0077 48.2036 27.0607L51.9407 27.8408C52.053 27.8642 52.1359 27.9471 52.1593 28.0594L52.9395 31.7967C52.9925 32.0509 53.3318 32.1046 53.4608 31.8792L55.3575 28.5661C55.4144 28.4664 55.5189 28.4133 55.633 28.4256L59.4283 28.8385C59.6864 28.8666 59.8424 28.5605 59.6679 28.3682L57.1031 25.5404C57.026 25.4554 57.0077 25.3396 57.0546 25.2349L58.6202 21.7531ZM40.2639 13.931L41.619 17.5002C41.6597 17.6075 41.7545 17.6764 41.8691 17.6819L45.6822 17.8678C45.9416 17.8803 46.0478 18.2072 45.8453 18.3698L42.8697 20.7615C42.7802 20.8334 42.744 20.9448 42.7741 21.0556L43.7756 24.7396C43.8438 24.9902 43.5658 25.1921 43.3486 25.0499L40.1544 22.9588C40.0584 22.896 39.9413 22.896 39.8452 22.9588L36.651 25.0499C36.4338 25.1921 36.1559 24.9902 36.224 24.7397L37.2256 21.0557C37.2557 20.945 37.2195 20.8335 37.13 20.7616L34.1543 18.3699C33.952 18.2073 34.0581 17.8806 34.3174 17.8679L38.1307 17.682C38.2453 17.6765 38.3401 17.6076 38.3808 17.5003L39.7359 13.9311C39.8276 13.6896 40.1724 13.6896 40.2639 13.931ZM40 27.654C37.1053 27.654 34.7588 30.0006 34.7588 32.8952C34.7588 35.7898 37.1054 38.1365 40 38.1365C42.8946 38.1365 45.2413 35.7898 45.2413 32.8952C45.2413 30.0006 42.8947 27.654 40 27.654ZM30.8541 48.4813L49.1458 48.4812C49.4557 48.4812 49.7223 48.3528 49.9155 48.1104C50.1087 47.8681 50.1745 47.5796 50.1055 47.2775C49.0522 42.6689 44.9278 39.2302 40 39.2302C35.0721 39.2302 30.9477 42.6689 29.8944 47.2775C29.8254 47.5796 29.8911 47.8681 30.0843 48.1104C30.2775 48.3528 30.5443 48.4813 30.8541 48.4813Z" fill="#008989"/>
</svg>
