<svg width="429" height="246" viewBox="0 0 429 246" fill="none" xmlns="http://www.w3.org/2000/svg">
<g opacity="0.3">
<path d="M223.104 117.522L296.9 35.5269C298.474 33.7886 300.671 32.8047 303 32.8047H352.197C355.428 32.8047 358.364 34.707 359.692 37.6588C361.004 40.6271 360.463 44.0873 358.298 46.4815L289.438 123L358.298 199.502C360.463 201.912 361.02 205.373 359.692 208.324C358.364 211.293 355.428 213.195 352.197 213.195H303C300.671 213.195 298.474 212.195 296.9 210.489L223.104 128.493C220.299 125.378 220.299 120.622 223.104 117.522Z" fill="url(#paint0_linear_1660_13195)"/>
<path d="M329.697 117.522L403.493 35.5269C405.068 33.7886 407.265 32.8047 409.594 32.8047H458.791C462.022 32.8047 464.957 34.707 466.286 37.6588C467.598 40.6271 467.056 44.0873 464.892 46.4815L396.032 123L464.892 199.502C467.056 201.912 467.614 205.373 466.286 208.324C464.957 211.293 462.022 213.195 458.791 213.195H409.594C407.265 213.195 405.068 212.195 403.493 210.489L329.697 128.493C326.893 125.378 326.893 120.622 329.697 117.522Z" fill="url(#paint1_linear_1660_13195)"/>
<path d="M2.10365 117.522L75.8997 35.5269C77.474 33.7886 79.6715 32.8047 82.0001 32.8047H131.197C134.428 32.8047 137.364 34.707 138.692 37.6588C140.004 40.6271 139.463 44.0873 137.298 46.4815L68.4381 123L137.298 199.502C139.463 201.912 140.02 205.373 138.692 208.324C137.364 211.293 134.428 213.195 131.197 213.195H82.0001C79.6715 213.195 77.474 212.195 75.8997 210.489L2.10365 128.493C-0.700592 125.378 -0.700592 120.622 2.10365 117.522Z" fill="url(#paint2_linear_1660_13195)"/>
<path d="M108.697 117.522L182.493 35.5269C184.068 33.7886 186.265 32.8047 188.594 32.8047H237.791C241.022 32.8047 243.957 34.707 245.286 37.6588C246.598 40.6271 246.056 44.0873 243.892 46.4815L175.032 123L243.892 199.502C246.056 201.912 246.614 205.373 245.286 208.324C243.957 211.293 241.022 213.195 237.791 213.195H188.594C186.265 213.195 184.068 212.195 182.493 210.489L108.697 128.493C105.893 125.378 105.893 120.622 108.697 117.522Z" fill="url(#paint3_linear_1660_13195)"/>
</g>
<defs>
<linearGradient id="paint0_linear_1660_13195" x1="290.703" y1="32.8047" x2="290.703" y2="213.195" gradientUnits="userSpaceOnUse">
<stop stop-color="#26554F"/>
<stop offset="1" stop-color="#008989"/>
</linearGradient>
<linearGradient id="paint1_linear_1660_13195" x1="397.297" y1="32.8047" x2="397.297" y2="213.195" gradientUnits="userSpaceOnUse">
<stop stop-color="#26554F"/>
<stop offset="1" stop-color="#008989"/>
</linearGradient>
<linearGradient id="paint2_linear_1660_13195" x1="69.7034" y1="32.8047" x2="69.7034" y2="213.195" gradientUnits="userSpaceOnUse">
<stop stop-color="#26554F"/>
<stop offset="1" stop-color="#008989"/>
</linearGradient>
<linearGradient id="paint3_linear_1660_13195" x1="176.297" y1="32.8047" x2="176.297" y2="213.195" gradientUnits="userSpaceOnUse">
<stop stop-color="#26554F"/>
<stop offset="1" stop-color="#008989"/>
</linearGradient>
</defs>
</svg>
