<svg width="80" height="80" viewBox="0 0 80 80" fill="none" xmlns="http://www.w3.org/2000/svg">
<rect width="80" height="80" rx="24" fill="#B9E4E4"/>
<path d="M32.2091 28.0385H56.5591C57.3987 28.0385 58.4854 27.9397 59.325 28.1867V24.828C59.325 23.7414 58.436 22.8524 57.3493 22.8524H33.2957L31.0237 20.6792C30.8261 20.4816 30.5297 20.3828 30.2334 20.3828H20.6514C19.5648 20.3828 18.6758 21.2719 18.6758 22.3585V27.0013V28.1867C19.0709 28.0879 19.5154 28.0879 20.0587 28.0879H32.3078L32.2091 28.0385Z" fill="#008989"/>
<path d="M50.1863 33.4228C53.6437 33.4722 56.7554 34.7564 59.1756 36.8308V31.1508C59.1756 30.3605 59.3237 29.916 58.2371 29.916H19.7117C18.5757 29.916 18.7733 30.3111 18.7733 31.1508V50.3641C18.7733 51.105 18.23 54.6118 19.7611 54.6118H38.5299C37.1469 52.4879 36.3073 49.969 36.4061 47.2524C36.5543 39.8437 42.58 33.2746 50.2357 33.4228H50.1863Z" fill="#008989"/>
<path d="M50.1874 35.3485C43.8159 35.4967 38.1359 40.6828 38.2841 47.2519C38.4323 53.6234 43.6184 59.3034 50.1874 59.1553C56.7565 59.0071 61.9426 53.821 62.0908 47.2519C61.9426 40.8804 56.7565 35.2004 50.1874 35.3485ZM57.201 44.6341C54.5833 47.2519 51.9655 49.8696 49.2984 52.5368C48.9527 52.8825 48.5575 52.9813 48.1624 52.9319C47.866 52.9319 47.5697 52.7837 47.2733 52.5368C45.9398 51.2526 44.6062 49.9684 43.2726 48.6349C41.9391 47.3507 43.9641 45.3256 45.2977 46.6098C46.2855 47.5482 47.2733 48.5361 48.2612 49.4745C50.5332 47.2025 52.8546 44.8811 55.1266 42.6091C56.4602 41.2755 58.4852 43.35 57.1516 44.6341H57.201Z" fill="#008989"/>
</svg>
