<svg width="80" height="80" viewBox="0 0 80 80" fill="none" xmlns="http://www.w3.org/2000/svg">
<rect width="80" height="80" rx="24" fill="#B2DADA"/>
<path d="M23.5938 60.7579L28.5156 65.6798V25.125H23.5938V60.7579Z" fill="#008989"/>
<path d="M17.7108 68H26.1955L21.9531 63.7577L17.7108 68Z" fill="#008989"/>
<path d="M20.3125 25.125H17.0312C16.1252 25.125 15.3906 25.8596 15.3906 26.7656V65.6798L20.3125 60.7579V25.125Z" fill="#008989"/>
<path d="M62.9688 25.125H31.7969V68H62.9688C63.8748 68 64.6094 67.2654 64.6094 66.3594V26.7656C64.6094 25.8596 63.8748 25.125 62.9688 25.125ZM42.7344 34.0938H47.1094C50.2833 34.0938 53.4296 33.045 55.9688 31.1406C56.4659 30.7678 57.131 30.7077 57.6868 30.9856C58.2427 31.2637 58.5938 31.8317 58.5938 32.4531V45.5781C58.5938 46.1996 58.2427 46.7676 57.6868 47.0456C57.4547 47.1617 57.2034 47.2188 56.9533 47.2188C56.6047 47.2188 56.2583 47.1077 55.9688 46.8906C53.4296 44.9863 50.2833 43.9375 47.1094 43.9375H45.4688V47.7656C45.4688 48.6717 44.7342 49.4062 43.8281 49.4062C42.9221 49.4062 42.1875 48.6717 42.1875 47.7656V43.9064C39.7301 43.6334 37.8125 41.5447 37.8125 39.0156C37.8125 36.3017 40.0205 34.0938 42.7344 34.0938ZM58.0469 61.4375H38.3594C37.4533 61.4375 36.7188 60.7029 36.7188 59.7969C36.7188 58.8908 37.4533 58.1562 38.3594 58.1562H58.0469C58.9529 58.1562 59.6875 58.8908 59.6875 59.7969C59.6875 60.7029 58.9529 61.4375 58.0469 61.4375ZM58.0469 54.875H38.3594C37.4533 54.875 36.7188 54.1404 36.7188 53.2344C36.7188 52.3283 37.4533 51.5938 38.3594 51.5938H58.0469C58.9529 51.5938 59.6875 52.3283 59.6875 53.2344C59.6875 54.1404 58.9529 54.875 58.0469 54.875Z" fill="#008989"/>
<path d="M42.7344 40.6562H44.375V37.375H42.7344C41.8297 37.375 41.0938 38.111 41.0938 39.0156C41.0938 39.9203 41.8297 40.6562 42.7344 40.6562Z" fill="#008989"/>
<path d="M55.3125 35.3988C52.9449 36.6028 50.3164 37.2842 47.6562 37.3666V40.6648C50.3164 40.7471 52.9449 41.4285 55.3125 42.6325V35.3988Z" fill="#008989"/>
<path d="M59.3294 20.3109C58.3082 19.1328 56.9763 18.2741 55.5007 17.8275C55.0541 16.352 54.1955 15.0202 53.0174 13.9988C51.5304 12.7098 49.6265 12 47.6563 12C45.0176 12 42.5819 13.2558 41.0495 15.3442C40.6966 15.3024 40.346 15.2812 40.0001 15.2812C35.825 15.2812 32.2847 18.0478 31.1141 21.8438H60.378C60.0895 21.2983 59.739 20.7834 59.3294 20.3109Z" fill="#008989"/>
<path d="M20.8581 12.883C17.7205 14.6945 16.6448 18.7056 18.4539 21.8438H27.7221C28.1785 19.7936 29.1363 17.9302 30.4604 16.3899L29.8227 15.2851C28.0104 12.1464 23.9969 11.0709 20.8581 12.883Z" fill="#008989"/>
</svg>
