<svg width="96" height="96" viewBox="0 0 96 96" fill="none" xmlns="http://www.w3.org/2000/svg">
<path d="M21.7386 79.8997C21.6648 79.731 21.6964 79.5518 21.6964 79.3726C21.6964 58.4141 21.6964 37.4556 21.6964 16.4971C21.6964 15.8435 21.6332 15.9384 22.2657 15.9384C29.6666 15.9384 37.0779 15.9384 44.4788 15.9384C44.6369 15.9384 44.8056 15.949 44.9637 15.949C44.9637 20.2819 44.9637 24.6148 44.9637 28.9478C44.6053 29.0427 44.2574 29.1376 43.9095 29.2746C43.3824 29.4749 42.8552 29.6226 42.3492 29.9178C41.938 30.1602 41.4847 30.3922 41.0208 30.5608C40.6308 30.7084 40.3883 31.0668 40.0298 31.2461C39.6292 31.4464 39.313 31.731 38.9545 31.9841C38.5328 32.2898 38.2587 32.7536 37.7632 32.9645C34.3791 32.9645 30.9949 32.975 27.6108 32.9645C27.2207 32.9645 27.1047 33.0805 27.1153 33.4706C27.1364 34.6197 27.1469 35.7794 27.1153 36.9285C27.1047 37.3713 27.2313 37.5083 27.6846 37.4978C29.8985 37.4767 32.1124 37.4978 34.3369 37.4978C34.3158 37.6348 34.2842 37.7613 34.2209 37.8984C34.0522 38.2568 33.8414 38.5942 33.7043 38.9632C33.4302 39.6695 33.2194 40.4075 32.9769 41.1349C31.1847 41.1349 29.403 41.1455 27.6108 41.1349C27.2629 41.1349 27.1153 41.2193 27.1258 41.5988C27.1469 42.769 27.1469 43.9392 27.1258 45.0989C27.1153 45.4784 27.2523 45.5733 27.6108 45.5733C29.1922 45.5628 30.7735 45.5733 32.3549 45.5733C32.3549 46.5538 32.4498 47.5343 32.6395 48.4936C32.513 48.5463 32.5025 48.6518 32.5236 48.7572C32.6396 49.2949 32.3338 49.3159 31.9227 49.3159C30.4783 49.2948 29.0235 49.3159 27.5792 49.3054C27.2313 49.3054 27.1153 49.4002 27.1258 49.7587C27.1469 50.9394 27.1469 52.1203 27.1258 53.301C27.1258 53.6278 27.2102 53.7438 27.5475 53.7438C29.8036 53.7332 32.0703 53.7332 34.3264 53.7332C34.5372 54.0284 34.7586 54.3131 34.9378 54.6188C35.3384 55.2935 35.739 55.9682 36.2662 56.5692C36.4559 56.7906 36.7828 56.9276 36.7933 57.2755C36.709 57.5707 36.4559 57.4652 36.2767 57.4652C33.4197 57.4758 30.5732 57.4652 27.7162 57.4652C27.1258 57.4652 27.1258 57.4653 27.1258 58.0767C27.1258 59.1521 27.1258 60.2379 27.1258 61.3133C27.1258 61.8931 27.1258 61.8931 27.7162 61.8931C32.7239 61.8931 37.7316 61.8931 42.7393 61.8931C42.9923 61.8931 43.2453 61.8826 43.4878 61.8721C44.0044 61.8826 44.4577 62.1356 44.9427 62.2621C44.9427 63.3796 44.9427 64.4971 44.9427 65.6146C44.8056 65.6146 44.6791 65.6252 44.542 65.6252C38.9123 65.6252 33.2932 65.6252 27.6635 65.6146C27.2418 65.6146 27.0942 65.7095 27.1153 66.1523C27.1469 67.2276 27.1258 68.3029 27.1258 69.3888C27.1258 70.053 27.1258 70.053 27.8005 70.053C33.5146 70.053 39.2286 70.053 44.9427 70.0635C44.9427 73.1314 44.9427 76.2098 44.9427 79.2777C44.9427 79.8997 44.9426 79.8997 44.3101 79.8997C36.8038 79.8997 29.266 79.8997 21.7386 79.8997Z" fill="#FEFEFD"/>
<path d="M44.9637 65.614C44.9637 64.4965 44.9637 63.379 44.9637 62.2615C45.027 62.2615 45.0797 62.272 45.143 62.272C45.143 62.641 45.4065 62.5145 45.6068 62.5145C45.7439 62.5251 45.8809 62.4934 45.9969 62.5461C46.6084 62.7675 47.2515 62.7992 47.8735 62.8519C49.1386 62.9573 50.4037 62.9362 51.6688 62.8519C52.1537 62.8203 52.6597 62.7465 53.1342 62.6516C53.851 62.5145 54.5469 62.272 55.2427 62.0401C55.4535 61.9663 55.6327 61.8609 55.8647 61.8925C57.5304 61.8925 59.1961 61.8925 60.8513 61.8925C61.5471 62.2931 62.011 62.9467 62.5697 63.4844C63.0125 63.9061 63.4763 64.3278 63.877 64.8128C64.383 65.4242 65.0155 65.9302 65.5848 66.489C66.0803 66.9845 66.5337 67.5328 67.0608 67.9966C67.6406 68.5027 68.1045 69.1352 68.716 69.6096C68.8214 69.6939 68.7898 69.7888 68.8319 69.8732C68.8319 73.0254 68.8214 76.1671 68.8108 79.3193C68.8108 80.1627 68.9268 80.0783 68.0623 80.0783C60.4823 80.0783 52.9022 80.0783 45.3116 80.0783C37.584 80.0783 29.8563 80.0677 22.1181 80.0677C21.9811 80.0677 21.8546 80.0677 21.7175 80.0783C21.7175 80.0256 21.7175 79.9624 21.7175 79.9096C29.2554 79.9096 36.7828 79.9096 44.3206 79.9096C44.9532 79.9096 44.9532 79.9096 44.9532 79.2876C44.9532 76.2197 44.9532 73.1413 44.9532 70.0735C50.8675 70.0735 56.7713 70.0735 62.6857 70.084C63.1074 70.084 63.2444 69.9786 63.2339 69.5358C63.2023 68.4394 63.2233 67.3535 63.2233 66.2571C63.2233 65.6351 63.2233 65.6351 62.5908 65.6351C56.7291 65.614 50.8464 65.614 44.9637 65.614Z" fill="#F0F3F6"/>
<path d="M44.9637 28.9596C44.9637 24.6267 44.9637 20.2937 44.9637 15.9607C48.0211 15.9607 51.0784 15.9502 54.1357 15.9502C54.9791 15.9502 55.8225 15.9502 56.6554 15.9502C56.7924 15.9502 57.0033 15.8553 57.0349 16.1189C56.7081 16.1189 56.7608 16.3719 56.7608 16.5616C56.7608 20.1356 56.7608 23.7095 56.7502 27.2939C56.7502 27.6418 56.8557 27.7578 57.2036 27.7578C61.02 27.7472 64.8258 27.7472 68.6422 27.7472C68.8214 27.7578 68.7898 27.9159 68.8214 28.0213C68.8109 28.2322 68.8003 28.4325 68.8003 28.6434C68.8003 37.7415 68.8003 46.8397 68.8003 55.9379C68.8003 56.2964 68.7898 56.6442 68.7898 57.0027C68.094 56.602 67.6407 55.9273 67.0714 55.3897C66.5232 54.8731 65.9328 54.3671 65.4689 53.7451C65.3319 53.5658 65.2264 53.4921 65.3529 53.239C65.627 52.7014 65.8484 52.132 66.0382 51.5522C66.1752 51.1305 66.365 50.7193 66.4704 50.3082C66.734 49.3383 66.9343 48.3262 67.0081 47.3246C67.1241 45.6906 67.0819 44.0565 66.8184 42.4435C66.7656 42.1272 66.6391 41.7687 66.5864 41.4525C66.5337 41.0308 66.2912 40.704 66.2174 40.3034C66.1331 39.8606 65.8906 39.4494 65.7535 39.0172C65.5954 38.5111 65.374 38.0367 65.0788 37.5834C64.8575 37.2355 64.7309 36.8349 64.4779 36.5081C64.0035 35.9072 63.5818 35.2641 63.2234 34.5894C63.2234 34.1887 63.2128 33.7987 63.2339 33.3981C63.255 33.0607 63.1179 32.9658 62.8017 32.9763C62.4221 32.9974 62.0426 32.9763 61.6631 32.9763C61.389 32.7655 61.0938 32.5757 60.8513 32.3332C60.1555 31.6374 59.2699 31.2157 58.4898 30.6464C57.9099 30.2247 57.1825 30.1088 56.6027 29.6871C56.2548 29.4235 55.812 29.4024 55.4324 29.2443C54.9369 29.044 54.4204 28.8753 53.9038 28.7382C53.4505 28.6117 52.9655 28.5801 52.5016 28.5063C51.4474 28.3271 50.3826 28.2638 49.3284 28.2428C48.9383 28.2322 48.5166 28.3376 48.1159 28.3587C47.0406 28.4114 45.9758 28.5274 44.9637 28.9596Z" fill="#F0F3F6"/>
<path d="M68.6527 27.7339C64.8363 27.7339 61.0304 27.7338 57.2141 27.7444C56.8662 27.7444 56.7607 27.639 56.7607 27.2806C56.7713 23.7066 56.7713 20.1327 56.7713 16.5482C56.7713 16.3479 56.708 16.1055 57.0454 16.1055C57.5514 16.6642 58.1418 17.1492 58.6689 17.6974C59.1644 18.214 59.7021 18.7095 60.1976 19.2261C60.7353 19.7848 61.3046 20.3225 61.8422 20.8707C62.3166 21.3557 62.77 21.8617 63.2866 22.3045C63.8558 22.8 64.3303 23.4114 64.8996 23.928C65.4688 24.4446 65.9749 25.0139 66.5231 25.5516C67.0397 26.0576 67.6301 26.532 68.0623 27.1329C68.2204 27.3649 68.5789 27.4071 68.6527 27.7339Z" fill="#CCD0DF"/>
<path d="M63.2443 34.5762C63.6028 35.251 64.035 35.8941 64.4989 36.495C64.7519 36.8218 64.8784 37.2224 65.0998 37.5703C65.395 38.0131 65.6164 38.4875 65.7745 39.0041C65.9116 39.4363 66.154 39.8475 66.2384 40.2903C66.3122 40.6909 66.5441 41.0177 66.6074 41.4394C66.6495 41.7557 66.7866 42.1141 66.8393 42.4304C67.1134 44.0434 67.1556 45.688 67.0291 47.3116C66.9553 48.3131 66.755 49.3252 66.4914 50.2951C66.3754 50.7062 66.1962 51.1174 66.0592 51.5391C65.8694 52.1189 65.6375 52.6777 65.3739 53.2259C65.2474 53.4789 65.3634 53.5527 65.4899 53.7319C65.9537 54.3434 66.5441 54.8494 67.0923 55.3766C67.6616 55.9142 68.1149 56.589 68.8107 56.9896C68.8424 57.0739 68.8424 57.1899 68.8951 57.232C69.496 57.7065 69.9493 58.3496 70.5608 58.8134C70.8138 59.0032 70.9614 59.3406 71.2144 59.5409C71.7837 59.9942 72.2265 60.574 72.7747 61.0484C73.3757 61.565 73.8501 62.2292 74.4404 62.7352C74.9359 63.1569 75.326 63.6735 75.8321 64.1058C76.3065 64.5169 76.5068 65.1284 76.7598 65.7082C76.9285 66.0983 76.9706 66.4567 77.0128 66.8574C77.1288 68.0065 76.7492 69.0186 76.0851 69.8936C75.5474 70.5999 74.8305 71.1271 73.9344 71.4012C73.2913 71.6015 72.6588 71.6015 72.0157 71.5488C71.1617 71.4855 70.371 71.2008 69.7279 70.5788C69.4538 70.3153 69.1376 70.1044 68.8318 69.8725C68.7897 69.7882 68.8213 69.6933 68.7159 69.6089C68.1044 69.1345 67.6405 68.5125 67.0607 67.996C66.5336 67.5321 66.0802 66.9838 65.5847 66.4883C65.0154 65.9296 64.3829 65.4236 63.8769 64.8121C63.4762 64.3272 63.0124 63.9054 62.5696 63.4837C62.0109 62.9461 61.547 62.2924 60.8512 61.8918C60.5454 61.4069 60.1343 61.0168 59.6915 60.6584C59.5017 60.5108 59.3963 60.2261 59.196 60.1418C58.9113 60.0153 58.8165 60.4159 58.5951 60.5107C58.5845 60.5213 58.5635 60.5213 58.5529 60.5319C57.8255 60.9325 57.0348 61.2171 56.3284 61.6705C56.1808 61.7653 55.9278 61.6283 55.8435 61.8918C55.6115 61.8602 55.4323 61.9656 55.2215 62.0394C54.5257 62.2714 53.8299 62.5139 53.113 62.6509C52.628 62.7458 52.1325 62.8196 51.6476 62.8512C50.3825 62.925 49.1068 62.9461 47.8523 62.8512C47.2302 62.7985 46.5872 62.7668 45.9757 62.5454C45.8597 62.5033 45.7121 62.5244 45.5856 62.5139C45.5329 62.2503 45.3431 62.2292 45.1218 62.2713C45.0585 62.2713 45.0058 62.2608 44.9425 62.2608C44.4576 62.1343 44.0043 61.8813 43.4877 61.8708C43.1714 61.6072 42.7603 61.5018 42.4124 61.2804C41.9907 61.0063 41.4952 60.8797 41.0629 60.6267C40.3882 60.2366 39.7029 59.8466 39.1125 59.3405C38.6276 58.9294 38.1426 58.5077 37.6999 58.0438C37.4363 57.7697 37.2676 57.3269 36.8037 57.2742C36.7932 56.9158 36.4664 56.7893 36.2766 56.5679C35.76 55.9669 35.3489 55.2923 34.9482 54.6175C34.769 54.3118 34.5371 54.0271 34.3368 53.7319C34.3368 53.6054 34.3368 53.4789 34.2524 53.363C34.0416 53.0467 33.8624 52.6882 33.7359 52.3614C33.3036 51.2017 32.8819 50.0315 32.8081 48.7769C32.7976 48.6715 32.8292 48.5239 32.65 48.5134C32.4602 47.554 32.3654 46.5736 32.3654 45.5932C32.3759 45.3718 32.397 45.1504 32.397 44.929C32.4075 44.1594 32.5129 43.4108 32.6922 42.6729C32.8081 42.1668 32.9452 41.6713 32.9979 41.1547C33.2404 40.4273 33.4512 39.6999 33.7253 38.983C33.8624 38.614 34.0838 38.2766 34.2419 37.9182C34.3052 37.7811 34.3368 37.6546 34.3579 37.5176C34.6214 37.2856 34.7901 36.9694 34.9482 36.6742C35.5492 35.5988 36.2872 34.65 37.1411 33.775C37.373 33.5325 37.7209 33.3638 37.7842 32.9843C38.2691 32.7735 38.5538 32.3096 38.9755 32.0039C39.3234 31.7508 39.6502 31.4662 40.0508 31.2659C40.3987 31.0867 40.6517 30.7282 41.0418 30.5806C41.5057 30.4014 41.959 30.18 42.3702 29.9375C42.8762 29.6423 43.4033 29.4947 43.9304 29.2944C44.2783 29.1574 44.6262 29.0625 44.9847 28.9676C45.9862 28.5354 47.0616 28.4194 48.1369 28.3667C48.5481 28.3456 48.9592 28.2402 49.3493 28.2507C50.4141 28.2718 51.4684 28.3351 52.5226 28.5143C52.9865 28.5881 53.4714 28.6197 53.9247 28.7462C54.4413 28.8833 54.9579 29.052 55.4534 29.2523C55.8435 29.4104 56.2757 29.4315 56.6236 29.6951C57.1929 30.1168 57.9309 30.2327 58.5107 30.6544C59.2909 31.2237 60.1764 31.6454 60.8722 32.3412C61.1147 32.5837 61.4099 32.7735 61.684 32.9843C62.1057 33.5009 62.6223 33.9331 62.9913 34.4919C63.0546 34.5868 63.16 34.5341 63.2443 34.5762ZM52.5015 57.2532C52.7229 57.3059 52.8916 57.2637 52.9549 57.0106C53.0708 57.0001 53.1973 57.0212 53.3027 56.979C54.0302 56.6628 54.7787 56.4519 55.485 56.0513C56.4022 55.5242 57.2035 54.8706 58.0258 54.2275C58.1418 54.1326 58.205 54.0587 58.1945 53.9111C58.574 53.753 58.6583 53.3313 58.9219 53.0783C59.449 52.5723 59.7442 51.9081 60.1343 51.3177C60.5349 50.6957 60.7668 49.9788 60.9987 49.2725C61.0198 49.1565 61.0304 49.0405 61.0726 48.9351C61.5259 47.8492 61.6208 46.7106 61.6313 45.5509C61.6735 45.0344 61.5048 44.5283 61.5048 44.0328C61.5048 43.2421 61.1569 42.5675 60.9671 41.84C60.9039 41.6081 60.9566 41.2707 60.6719 41.1126C60.7036 40.7963 60.4716 40.5855 60.3979 40.3114C60.2819 39.9107 59.9129 39.6577 59.7547 39.3098C59.4279 38.5824 58.8902 38.0342 58.3631 37.486C58.0996 36.8113 57.4038 36.5372 56.9188 36.1049C56.2757 35.5462 55.4534 35.1666 54.6733 34.7765C53.9353 34.4076 53.1235 34.2072 52.3539 33.9753C51.6265 33.7539 50.8358 33.6695 50.0557 33.7433C49.2755 33.8066 48.4848 33.659 47.6941 33.8909C47.3462 33.9858 46.9983 34.1018 46.6504 34.1756C45.8492 34.3443 45.0796 34.6079 44.3838 34.9769C43.7934 35.2931 43.1714 35.6094 42.6337 36.0521C42.4756 36.1787 42.4229 36.4212 42.212 36.4739C41.6533 36.6109 41.4108 37.0959 41.0734 37.4754C41.0207 37.4965 40.9575 37.507 40.9259 37.5387C40.3987 38.2661 39.7556 38.9092 39.3866 39.742C39.1863 40.1953 38.7857 40.5644 38.7541 41.102C38.5854 41.0704 38.6065 41.2075 38.5959 41.3024C38.5116 41.8189 38.3324 42.3144 38.1848 42.7994C37.9002 43.706 37.7631 44.6021 37.8158 45.5509C37.742 46.8371 38.0056 48.0706 38.4378 49.2725C38.5011 49.536 38.5327 49.8207 38.6381 50.0632C38.9966 50.8433 39.3866 51.6235 39.8927 52.3193C40.1457 52.6777 40.3776 53.0573 40.6939 53.3735C40.8942 53.5738 40.9786 53.9111 41.337 53.9111C41.3686 53.9955 41.3159 54.0904 41.4319 54.1747C41.7692 54.4172 42.1277 54.6702 42.3912 54.9443C42.8973 55.4715 43.5193 55.7139 44.1097 56.0618C44.3838 56.22 44.6052 56.5046 44.9742 56.4835C45.0691 56.7998 45.3748 56.6417 45.5646 56.726C46.3869 57.0739 47.2197 57.4007 48.1158 57.4429C49.5812 57.5167 51.0572 57.6011 52.5015 57.2532Z" fill="#232729"/>
<path d="M44.9637 65.616C50.8464 65.616 56.7291 65.616 62.6118 65.616C63.2444 65.616 63.2444 65.616 63.2444 66.238C63.2444 67.3344 63.2233 68.4203 63.2549 69.5168C63.2655 69.949 63.1284 70.0649 62.7067 70.0649C56.7924 70.0544 50.8886 70.0544 44.9743 70.0544C39.2602 70.0544 33.5462 70.0544 27.8321 70.0439C27.1574 70.0439 27.1574 70.0439 27.1574 69.3797C27.1574 68.3044 27.1785 67.2185 27.1469 66.1431C27.1363 65.7004 27.2839 65.6055 27.6951 65.6055C33.3248 65.616 38.9439 65.616 44.5736 65.616C44.7001 65.6266 44.8372 65.616 44.9637 65.616Z" fill="#CCD0DF"/>
<path d="M36.8144 57.2695C37.2782 57.3222 37.4469 57.7651 37.7105 58.0392C38.1533 58.503 38.6382 58.9247 39.1232 59.3359C39.7135 59.8314 40.3988 60.2215 41.0735 60.6221C41.5058 60.8751 42.0118 61.0122 42.423 61.2757C42.7709 61.4971 43.1821 61.6025 43.4983 61.8661C43.2453 61.8767 42.9923 61.8871 42.7498 61.8871C37.7421 61.8871 32.7344 61.8871 27.7267 61.8871C27.1469 61.8871 27.1364 61.8872 27.1364 61.3073C27.1364 60.232 27.1364 59.1461 27.1364 58.0708C27.1364 57.4593 27.1363 57.4594 27.7267 57.4594C30.5837 57.4594 33.4302 57.4594 36.2872 57.4594C36.477 57.4594 36.73 57.5647 36.8144 57.2695Z" fill="#CCD0DF"/>
<path d="M37.7843 32.9727C37.7211 33.3522 37.3732 33.5209 37.1412 33.7633C36.2873 34.6384 35.5388 35.5872 34.9484 36.6625C34.7902 36.9472 34.6216 37.274 34.358 37.5059C32.1441 37.5059 29.9302 37.4848 27.7057 37.5059C27.2524 37.5059 27.1258 37.3794 27.1364 36.9366C27.168 35.7875 27.1575 34.6278 27.1364 33.4787C27.1258 33.0886 27.2418 32.9727 27.6319 32.9727C31.016 32.9832 34.4002 32.9727 37.7843 32.9727Z" fill="#CCD0DF"/>
<path d="M32.6606 48.4958C32.8399 48.5064 32.8082 48.654 32.8188 48.7594C32.9031 50.014 33.3143 51.1841 33.7465 52.3438C33.873 52.6812 34.0522 53.0291 34.2631 53.3454C34.3474 53.4613 34.3474 53.5878 34.3474 53.7143C32.0913 53.7143 29.8247 53.7143 27.5686 53.7249C27.2312 53.7249 27.1364 53.6089 27.1469 53.2821C27.1574 52.1014 27.168 50.9206 27.1469 49.7399C27.1364 49.3814 27.2629 49.2865 27.6002 49.2865C29.0445 49.2971 30.4994 49.2865 31.9437 49.297C32.3549 49.297 32.6606 49.276 32.5446 48.7383C32.5236 48.654 32.5341 48.538 32.6606 48.4958Z" fill="#CCD0DF"/>
<path d="M32.9875 41.1367C32.9453 41.6533 32.8083 42.1488 32.6818 42.6548C32.5025 43.3928 32.3971 44.1519 32.3866 44.911C32.3866 45.1323 32.3655 45.3537 32.3549 45.5751C30.7736 45.5751 29.1922 45.5646 27.6108 45.5751C27.2524 45.5751 27.1153 45.4802 27.1259 45.1007C27.147 43.9305 27.147 42.7603 27.1259 41.6006C27.1153 41.2211 27.2629 41.1367 27.6108 41.1367C29.4136 41.1473 31.2058 41.1367 32.9875 41.1367Z" fill="#CCD0DF"/>
<path d="M55.8646 61.8839C55.949 61.6308 56.202 61.7574 56.3496 61.6625C57.0559 61.2092 57.8466 60.9351 58.5741 60.5239C58.5846 60.5134 58.6057 60.5133 58.6162 60.5028C58.8376 60.4079 58.9325 60.0073 59.2171 60.1338C59.4174 60.2182 59.5229 60.5028 59.7126 60.6504C60.1554 61.0089 60.556 61.3989 60.8723 61.8839C59.1961 61.8839 57.5303 61.8839 55.8646 61.8839Z" fill="#CCD0DF"/>
<path d="M45.1431 62.2646C45.3645 62.2224 45.5437 62.2329 45.6069 62.5071C45.4066 62.5071 45.1431 62.6336 45.1431 62.2646Z" fill="#CCD0DF"/>
<path d="M63.2444 34.5787C63.1601 34.5365 63.0652 34.5892 62.9808 34.4732C62.6119 33.9144 62.0847 33.4822 61.6736 32.9656C62.0531 32.9656 62.4326 32.9867 62.8122 32.9656C63.1284 32.9551 63.2655 33.05 63.2444 33.3873C63.2233 33.788 63.2444 34.178 63.2444 34.5787Z" fill="#CCD0DF"/>
<path d="M60.672 41.1379C60.9566 41.296 60.9039 41.6439 60.9672 41.8653C61.1569 42.5822 61.5049 43.2675 61.5049 44.0582C61.5049 44.5537 61.663 45.0597 61.6314 45.5763C56.0755 45.5763 50.5196 45.5763 44.9742 45.5763C42.5811 45.5763 40.1879 45.5763 37.7948 45.5763C37.7421 44.638 37.8791 43.7314 38.1638 42.8247C38.3114 42.3398 38.5011 41.8442 38.5749 41.3276C38.5855 41.2328 38.5644 41.1062 38.7331 41.1273C40.8099 41.1273 42.8868 41.1273 44.9637 41.1273C50.2033 41.1379 55.4324 41.1379 60.672 41.1379Z" fill="#CCD0DF"/>
<path d="M60.9988 49.293C60.7774 49.9993 60.535 50.7162 60.1344 51.3382C59.7443 51.9286 59.4491 52.5928 58.922 53.0989C58.6584 53.3519 58.5741 53.763 58.1945 53.9317C58.1208 53.6576 57.8888 53.7419 57.7201 53.7419C53.4715 53.7419 49.2229 53.7419 44.9742 53.7419C43.8884 53.7419 42.8025 53.7314 41.7061 53.7314C41.5479 53.7314 41.3687 53.6998 41.3266 53.9317C40.9681 53.9317 40.8732 53.5943 40.6834 53.394C40.3777 53.0777 40.1458 52.6982 39.8822 52.3398C39.3762 51.644 38.9861 50.8638 38.6276 50.0837C38.5117 49.8412 38.4906 49.5565 38.4274 49.293C40.6097 49.293 42.7919 49.293 44.9848 49.293C50.3087 49.293 55.6538 49.293 60.9988 49.293Z" fill="#CCD0DF"/>
<path d="M60.9988 49.2957C55.6538 49.2957 50.3193 49.2957 44.9742 49.2957C44.9742 48.0517 44.9742 46.8182 44.9742 45.5742C50.5301 45.5742 56.086 45.5742 61.6314 45.5742C61.6208 46.7339 61.526 47.8725 61.0726 48.9584C61.0305 49.0533 61.0199 49.1797 60.9988 49.2957Z" fill="#F0F3F6"/>
<path d="M60.672 41.1344C55.4429 41.1344 50.2033 41.1344 44.9742 41.1344C44.9742 39.922 44.9742 38.7097 44.9742 37.5078C49.4337 37.5078 53.8932 37.5078 58.3632 37.5078C58.9009 38.0666 59.428 38.6043 59.7548 39.3317C59.9129 39.6796 60.282 39.9326 60.3979 40.3332C60.4717 40.5968 60.7036 40.8182 60.672 41.1344Z" fill="#F0F3F6"/>
<path d="M58.3526 37.5014C53.8931 37.5014 49.4336 37.5014 44.9636 37.5014C43.6564 37.5014 42.3596 37.5014 41.0524 37.4909C41.3897 37.1114 41.6322 36.6264 42.1909 36.4894C42.4018 36.4366 42.4545 36.2047 42.6126 36.0676C43.1398 35.6248 43.7723 35.3086 44.3627 34.9923C45.0585 34.6128 45.8281 34.3598 46.6294 34.1911C46.9773 34.1173 47.3252 34.0013 47.6731 33.9064C48.4637 33.6745 49.2544 33.8221 50.0346 33.7588C50.8147 33.6956 51.6159 33.7799 52.3328 33.9908C53.113 34.2227 53.9142 34.423 54.6522 34.792C55.4323 35.1821 56.2546 35.5616 56.8977 36.1203C57.3932 36.5631 58.089 36.8267 58.3526 37.5014Z" fill="#CCD0DF"/>
<path d="M44.9638 53.7349C49.2124 53.7349 53.461 53.7349 57.7097 53.7349C57.8889 53.7349 58.1103 53.6506 58.1841 53.9247C58.2052 54.0723 58.1419 54.146 58.0154 54.2409C57.1931 54.8735 56.3919 55.5377 55.4747 56.0648C54.7789 56.4654 54.0198 56.6763 53.2924 56.9926C53.1869 57.0347 53.0604 57.0136 52.9445 57.0242C52.7547 57.0347 52.4912 56.8871 52.4912 57.2666C51.0363 57.6145 49.5603 57.5302 48.0949 57.4564C47.1988 57.4143 46.3554 57.0874 45.5437 56.7395C45.3539 56.6551 45.0481 56.8133 44.9532 56.497C44.9638 55.5693 44.9638 54.6521 44.9638 53.7349Z" fill="#F0F3F6"/>
<path d="M44.9637 45.5742C44.9637 46.8182 44.9637 48.0517 44.9637 49.2957C42.7815 49.2957 40.5992 49.2957 38.4063 49.2957C37.9741 48.0938 37.7105 46.8604 37.7843 45.5742C40.188 45.5742 42.5811 45.5742 44.9637 45.5742Z" fill="#FEFEFD"/>
<path d="M41.0525 37.488C42.3597 37.488 43.6564 37.488 44.9637 37.4985C44.9637 38.7109 44.9637 39.9233 44.9637 41.1251C42.8868 41.1251 40.81 41.1251 38.7331 41.1251C38.7647 40.5875 39.1548 40.2185 39.3656 39.7652C39.7452 38.9323 40.3777 38.2787 40.9048 37.5618C40.9365 37.5197 41.0103 37.5091 41.0525 37.488Z" fill="#FEFEFD"/>
<path d="M44.9637 53.7337C44.9637 54.6509 44.9637 55.5681 44.9637 56.4959C44.5947 56.5275 44.3733 56.2429 44.0992 56.0742C43.5088 55.7369 42.8763 55.4838 42.3808 54.9567C42.1172 54.6826 41.7588 54.4295 41.4214 54.1871C41.3054 54.1027 41.3476 54.0078 41.3265 53.9235C41.3687 53.7021 41.5479 53.7232 41.7061 53.7232C42.7919 53.7232 43.8778 53.7337 44.9637 53.7337Z" fill="#FEFEFD"/>
<path d="M52.5017 57.255C52.5017 56.886 52.7653 57.023 52.9551 57.0125C52.8918 57.2655 52.7231 57.3077 52.5017 57.255Z" fill="#CCD0DF"/>
<path d="M92.2258 29.3187C89.8115 23.6047 86.343 18.4704 81.9363 14.0637C77.5295 9.65692 72.3953 6.19901 66.6813 3.77423C60.7564 1.27566 54.4731 0 48 0C41.5163 0 35.233 1.26512 29.3187 3.77423C23.6046 6.18846 18.4704 9.65692 14.0637 14.0637C9.65692 18.4704 6.19897 23.6047 3.7742 29.3187C1.26509 35.2436 0 41.5269 0 48C0 54.4731 1.26509 60.767 3.7742 66.6813C6.18843 72.3954 9.65692 77.5295 14.0637 81.9363C18.4704 86.343 23.6046 89.801 29.3187 92.2258C35.2436 94.7243 41.5269 96 48 96C54.4731 96 60.7669 94.7243 66.6813 92.2258C72.3953 89.8115 77.5295 86.343 81.9363 81.9363C86.343 77.5295 89.801 72.3954 92.2258 66.6813C94.7349 60.767 96 54.4731 96 48C96 41.5269 94.7349 35.2436 92.2258 29.3187ZM19.2401 19.2506C26.9255 11.5651 37.1307 7.33757 47.9894 7.33757C57.6147 7.33757 66.734 10.6585 74.0294 16.7626L16.752 74.04C10.6479 66.7446 7.31649 57.6253 7.31649 48C7.33758 37.1412 11.5651 26.9255 19.2401 19.2506ZM76.7494 76.7599C69.0639 84.4454 58.8588 88.673 48 88.673C38.3641 88.673 29.2554 85.3521 21.96 79.2374L79.2374 21.96C85.3415 29.2554 88.6729 38.3747 88.6729 48.0105C88.6624 58.8693 84.4348 69.0745 76.7494 76.7599Z" fill="#009A9A"/>
</svg>
