<svg width="80" height="80" viewBox="0 0 80 80" fill="none" xmlns="http://www.w3.org/2000/svg">
<rect width="80" height="80" rx="24" fill="#DBF0F0"/>
<path d="M48.2939 19.618H44.8879C44.5554 19.618 44.2864 19.3478 44.2864 19.0164V18.3514C44.2864 17.0509 43.2276 15.9922 41.9271 15.9922H38.0728C36.7723 15.9922 35.7136 17.0509 35.7136 18.3514V19.0164C35.7136 19.3478 35.4445 19.618 35.112 19.618H31.7061V24.9106H48.2939V19.618ZM40 20.9217C38.8964 20.9217 37.9984 20.0238 37.9984 18.9202C37.9984 17.8166 38.8964 16.9186 40 16.9186C41.1036 16.9186 42.0015 17.8166 42.0015 18.9202C42.0015 20.0238 41.1036 20.9217 40 20.9217Z" fill="#008989"/>
<path d="M30.503 25.5126V24.0732H29.4629V27.7253C29.4629 28.3804 29.9966 28.9142 30.6529 28.9142H49.3473C50.0035 28.9142 50.5373 28.3804 50.5373 27.7253V24.0732H49.4971V25.5126C49.4971 25.8451 49.228 26.1142 48.8955 26.1142H31.1046C30.7721 26.1142 30.503 25.8451 30.503 25.5126Z" fill="#008989"/>
<path d="M39.9996 19.7189C40.4406 19.7189 40.798 19.3615 40.798 18.9205C40.798 18.4795 40.4406 18.1221 39.9996 18.1221C39.5586 18.1221 39.2012 18.4795 39.2012 18.9205C39.2012 19.3615 39.5586 19.7189 39.9996 19.7189Z" fill="#008989"/>
<path d="M40.0001 43.4219C38.7434 43.4219 37.7207 44.4445 37.7207 45.7002C37.7207 46.9569 38.7434 47.9795 40.0001 47.9795C41.2568 47.9795 42.2795 46.9569 42.2795 45.7002C42.2795 44.4445 41.2568 43.4219 40.0001 43.4219Z" fill="#008989"/>
<path d="M49.497 22.8701H51.1387C51.1507 22.8701 51.1616 22.8712 51.1737 22.8723C51.1824 22.8723 51.1912 22.8712 51.1999 22.8712H53.6576C53.989 22.8712 54.2591 23.1402 54.2591 23.4727V61.358C54.2591 61.6905 53.989 61.9596 53.6576 61.9596H26.3423C26.0109 61.9596 25.7407 61.6905 25.7407 61.358V23.4727C25.7407 23.1402 26.0109 22.8712 26.3423 22.8712H28.8535C28.8557 22.8712 28.859 22.8701 28.8612 22.8701H30.5029V21.7676H24.2324V64.0082H55.7674V21.7676H49.497V22.8701Z" fill="#008989"/>
<path d="M26.9434 24.0742V60.7564H53.0555V24.0742H51.7398V27.7252C51.7398 29.0442 50.6657 30.1172 49.3466 30.1172H30.6523C29.3332 30.1172 28.2591 29.0442 28.2591 27.7252V24.0742H26.9434ZM32.4537 38.1563C34.4695 36.1405 37.1491 35.0303 39.9995 35.0303C42.8498 35.0303 45.5295 36.1405 47.5452 38.1563C49.561 40.1709 50.6712 42.8506 50.6712 45.7009C50.6712 48.5523 49.561 51.232 47.5452 53.2467C45.4649 55.327 42.7316 56.3672 39.9995 56.3672C37.2673 56.3672 34.534 55.327 32.4537 53.2467C30.4379 51.232 29.3277 48.5523 29.3277 45.7009C29.3277 42.8506 30.4379 40.1709 32.4537 38.1563Z" fill="#008989"/>
<path d="M39.9998 55.1651C42.4247 55.1651 44.8484 54.242 46.6947 52.3968C48.483 50.6086 49.4684 48.2307 49.4684 45.7009C49.4684 43.1721 48.483 40.7943 46.6947 39.0061C44.9064 37.2178 42.5286 36.2334 39.9998 36.2334C37.4711 36.2334 35.0933 37.2178 33.305 39.0061C31.5167 40.7943 30.5312 43.1721 30.5312 45.7009C30.5312 48.2307 31.5167 50.6086 33.305 52.3968C35.1502 54.242 37.575 55.1651 39.9998 55.1651ZM39.9998 38.6648C43.8794 38.6648 47.0359 41.8214 47.0359 45.7009V45.7097C47.0327 48.6573 45.2816 48.9756 44.528 48.9756C43.9723 48.9756 43.1695 48.8017 42.6861 47.9146C42.0473 48.689 41.0805 49.1834 39.9998 49.1834C38.0803 49.1834 36.5173 47.6215 36.5173 45.7009C36.5173 43.7814 38.0803 42.2195 39.9998 42.2195C41.9194 42.2195 43.4823 43.7814 43.4823 45.7009C43.4823 45.7709 43.4791 45.8409 43.4747 45.9098C43.4791 47.7725 44.2141 47.7725 44.528 47.7725C44.8845 47.7725 45.8328 47.7725 45.8328 45.702V45.6976C45.8317 42.4831 43.2155 39.8679 39.9998 39.8679C36.7831 39.8679 34.1669 42.4853 34.1669 45.7009C34.1669 48.9154 36.7788 51.5306 39.9911 51.535L40.3444 51.5251C41.0487 51.4836 41.7313 51.3173 42.3722 51.0329C42.6752 50.8973 43.0306 51.034 43.1663 51.3381C43.3008 51.6411 43.1641 51.9976 42.8611 52.1322C42.0834 52.4778 41.2577 52.6779 40.4056 52.7261C40.3991 52.7271 40.3936 52.7271 40.3881 52.7271L40.0173 52.7381H39.9998C36.1203 52.7381 32.9638 49.5815 32.9638 45.7009C32.9638 41.8214 36.1203 38.6648 39.9998 38.6648Z" fill="#008989"/>
</svg>
