<svg width="174" height="39" viewBox="0 0 174 39" fill="none" xmlns="http://www.w3.org/2000/svg">
<path d="M38.9774 19.5C38.9774 8.73045 30.252 0 19.4887 0C8.72539 0 0 8.73045 0 19.5C0 30.2696 8.72539 39 19.4887 39C30.252 39 38.9774 30.2696 38.9774 19.5Z" fill="white"/>
<path d="M13.4036 9.73828L11.6207 11.5358L9.74023 13.4336L25.5886 29.264L29.2493 25.5525L13.4036 9.73828Z" fill="#008989"/>
<path d="M26.5712 17.2021C24.0423 14.6717 21.5413 12.1837 19.0684 9.73828H26.0672V11.2403L29.2456 14.5153L27.5412 16.2342L26.5712 17.2021Z" fill="#008989"/>
<path d="M12.4498 21.793L19.95 29.2568H12.9619V27.7575L9.74023 24.5339L11.4906 22.7636L12.4498 21.793Z" fill="#008989"/>
<path d="M53.3061 21.8086C53.2928 22.2545 53.3808 22.6976 53.5635 23.1045C53.7294 23.4528 53.9778 23.7552 54.287 23.9856C54.6057 24.2186 54.9664 24.388 55.3492 24.4845C55.7759 24.5929 56.2149 24.6457 56.6552 24.6417C57.0934 24.6507 57.5304 24.5913 57.9504 24.4655C58.2662 24.3706 58.5612 24.217 58.8201 24.0127C59.0307 23.8427 59.1956 23.6228 59.2997 23.3729C59.3978 23.1413 59.4485 22.8924 59.4488 22.6409C59.4818 22.2377 59.3597 21.8372 59.1074 21.5212C58.8997 21.2958 58.6428 21.1214 58.3568 21.0115C57.8237 20.8199 57.2811 20.6561 56.731 20.5208C56.1078 20.3689 55.3392 20.1683 54.4252 19.9189C53.926 19.8002 53.4487 19.6035 53.0108 19.336C52.6643 19.1225 52.3602 18.8468 52.1139 18.5226C51.8986 18.2408 51.7386 17.9207 51.6424 17.5792C51.5483 17.2476 51.5008 16.9045 51.5015 16.5598C51.4873 15.9566 51.6311 15.3603 51.9188 14.83C52.1908 14.3484 52.5666 13.9335 53.0189 13.6154C53.4915 13.2889 54.018 13.0484 54.5742 12.9051C55.1477 12.7509 55.7389 12.6725 56.3327 12.672C56.9926 12.6685 57.6496 12.7598 58.2836 12.9431C58.8669 13.1095 59.4131 13.3855 59.8931 13.7564C60.3761 14.1256 60.764 14.6047 61.0247 15.1541C61.2853 15.7035 61.4111 16.3071 61.3915 16.9149H59.0775C59.0179 16.0636 58.728 15.4617 58.2078 15.1093C57.6165 14.7384 56.927 14.5551 56.2298 14.5833C55.9495 14.5836 55.6699 14.6118 55.3952 14.6674C55.1241 14.7159 54.8625 14.8074 54.6203 14.9385C54.3867 15.0667 54.1863 15.2477 54.035 15.4672C53.8564 15.7683 53.7797 16.1191 53.8163 16.4674C53.8529 16.8157 54.0009 17.1428 54.2382 17.4002C54.5659 17.6863 54.9555 17.8923 55.3763 18.0021L55.9615 18.1593L57.0996 18.4657L58.3297 18.7883C58.7307 18.8941 59.0179 18.9727 59.1886 19.0215C59.5934 19.143 59.9752 19.3308 60.3185 19.5773C60.6319 19.8023 60.9065 20.0771 61.1314 20.3906C61.3443 20.6855 61.5072 21.0134 61.6137 21.3612C61.7162 21.6979 61.7691 22.0477 61.7709 22.3996C61.79 23.0614 61.6329 23.7164 61.3157 24.2974C61.0226 24.8128 60.6146 25.2535 60.1235 25.5852C59.6091 25.9259 59.0385 26.1728 58.4381 26.3145C57.8086 26.4696 57.1626 26.5478 56.5143 26.5477C55.7963 26.5539 55.0808 26.4627 54.3873 26.2766C53.7572 26.1097 53.1661 25.8205 52.6477 25.4253C52.1453 25.032 51.7401 24.5283 51.4636 23.9531C51.151 23.2905 50.9926 22.5656 51.0003 21.833L53.3061 21.8086Z" fill="white"/>
<path d="M65.1345 21.9774C65.1323 22.3447 65.1853 22.7103 65.2917 23.0619C65.3869 23.3922 65.5472 23.7001 65.7632 23.9674C65.9777 24.2315 66.2491 24.4437 66.5571 24.5882C66.9179 24.7504 67.3106 24.8292 67.7059 24.8187C68.2317 24.8449 68.7526 24.7065 69.1962 24.4229C69.5955 24.1232 69.8896 23.7046 70.0362 23.2272H72.0359C71.934 23.7222 71.7391 24.1932 71.4614 24.6154C71.1994 25.0145 70.867 25.3627 70.4806 25.6429C70.0913 25.9248 69.657 26.1384 69.1962 26.2746C68.7123 26.4166 68.2103 26.4879 67.7059 26.4861C67.0213 26.4995 66.3411 26.374 65.7063 26.1173C65.1455 25.8836 64.6432 25.5291 64.235 25.079C63.8252 24.6178 63.5168 24.0756 63.33 23.4875C63.1201 22.8295 63.0167 22.1421 63.0238 21.4514C63.0202 20.7923 63.1301 20.1374 63.3489 19.5157C63.5511 18.9246 63.8647 18.3779 64.2729 17.9052C64.6759 17.4413 65.1704 17.0657 65.7252 16.8018C66.3278 16.5232 66.9854 16.3842 67.649 16.3951C68.3531 16.3836 69.0491 16.5457 69.6758 16.8669C70.2585 17.1686 70.7674 17.5954 71.1661 18.1167C71.568 18.6477 71.8608 19.2531 72.0277 19.8979C72.207 20.5776 72.2539 21.2854 72.1659 21.9828L65.1345 21.9774ZM70.0552 20.5866C70.0316 20.2572 69.9604 19.933 69.8438 19.6241C69.7341 19.3258 69.5706 19.0501 69.3615 18.8108C69.1518 18.5844 68.9007 18.4003 68.6218 18.2685C68.3179 18.1246 67.9852 18.0523 67.649 18.0571C67.3036 18.053 66.9608 18.1185 66.6411 18.2496C66.3477 18.3756 66.0831 18.5601 65.8634 18.7918C65.4088 19.2848 65.1497 19.9268 65.1345 20.5974L70.0552 20.5866Z" fill="white"/>
<path d="M73.8301 12.9922H75.9408V26.2145H73.8301V12.9922Z" fill="white"/>
<path d="M78.2832 12.9922H80.394V26.2145H78.2832V12.9922Z" fill="white"/>
<path d="M84.3371 21.9774C84.3357 22.3449 84.3896 22.7105 84.4969 23.0619C84.5921 23.3922 84.7524 23.7001 84.9684 23.9674C85.1829 24.2315 85.4543 24.4437 85.7623 24.5883C86.1231 24.7504 86.5158 24.8292 86.9112 24.8187C87.4369 24.8446 87.9577 24.7062 88.4014 24.4229C88.8007 24.1233 89.0948 23.7047 89.2414 23.2273H91.2411C91.1392 23.7222 90.9443 24.1933 90.6667 24.6154C90.4046 25.0145 90.0722 25.3627 89.6858 25.6429C89.2966 25.9248 88.8622 26.1384 88.4014 26.2746C87.9175 26.4167 87.4155 26.4879 86.9112 26.4861C86.2266 26.4995 85.5463 26.3741 84.9115 26.1174C84.3507 25.8837 83.8484 25.5291 83.4402 25.079C83.0304 24.6178 82.722 24.0756 82.5352 23.4875C82.324 22.8298 82.2206 22.1422 82.229 21.4515C82.2258 20.7926 82.3349 20.138 82.5514 19.5157C82.7555 18.925 83.07 18.3784 83.4781 17.9053C83.8811 17.4414 84.3756 17.0657 84.9305 16.8018C85.5329 16.523 86.1906 16.384 86.8543 16.3952C87.5583 16.3837 88.2543 16.5457 88.881 16.8669C89.4637 17.1686 89.9726 17.5954 90.3713 18.1167C90.773 18.6495 91.065 19.2568 91.2302 19.9034C91.4104 20.5829 91.4582 21.2907 91.3711 21.9883L84.3371 21.9774ZM89.2604 20.5866C89.2368 20.2573 89.1656 19.9331 89.049 19.6241C88.9393 19.3258 88.7758 19.0501 88.5667 18.8108C88.357 18.5844 88.1059 18.4004 87.827 18.2686C87.5231 18.1246 87.1904 18.0523 86.8543 18.0571C86.5088 18.0531 86.166 18.1185 85.8463 18.2496C85.5526 18.3749 85.2878 18.5595 85.0686 18.7918C84.8493 19.0301 84.6741 19.3055 84.5511 19.6052C84.4194 19.9218 84.3468 20.26 84.3371 20.6029L89.2604 20.5866Z" fill="white"/>
<path d="M92.9863 16.6433H94.967V18.495H95.0023C95.0681 18.2176 95.1898 17.9566 95.3599 17.7278C95.5434 17.4729 95.7613 17.2448 96.0075 17.05C96.2616 16.8456 96.5447 16.6802 96.8475 16.5593C97.1497 16.4367 97.4725 16.3732 97.7986 16.3722C97.9677 16.3683 98.1369 16.3747 98.3053 16.3912L98.5925 16.4291V18.4652C98.4462 18.4408 98.2944 18.4191 98.14 18.4001C97.9898 18.3819 97.8387 18.3728 97.6875 18.373C97.3394 18.3705 96.9947 18.4426 96.6768 18.5845C96.3624 18.731 96.0847 18.9459 95.8639 19.2135C95.6149 19.5174 95.4264 19.8662 95.3084 20.241C95.1639 20.6957 95.0943 21.171 95.1025 21.6481V26.2056H92.9945L92.9863 16.6433Z" fill="white"/>
<path d="M103.68 12.9922H114.377V14.993H110.175V26.2145H107.863V14.993H103.68V12.9922Z" fill="white"/>
<path d="M115.209 21.9757C115.207 22.343 115.259 22.7086 115.366 23.0601C115.463 23.3895 115.623 23.697 115.837 23.9656C116.053 24.2299 116.325 24.4421 116.634 24.5865C116.994 24.749 117.386 24.8278 117.78 24.8169C118.306 24.8431 118.827 24.7048 119.27 24.4211C119.67 24.1216 119.965 23.7031 120.113 23.2255H122.11C121.913 24.1969 121.359 25.059 120.557 25.6411C120.167 25.9225 119.732 26.1361 119.27 26.2728C118.787 26.4153 118.285 26.4865 117.78 26.4843C117.096 26.4975 116.417 26.3721 115.783 26.1156C115.222 25.8819 114.72 25.5273 114.312 25.0772C113.901 24.6162 113.592 24.074 113.404 23.4858C113.194 22.8277 113.091 22.1404 113.098 21.4497C113.094 20.7905 113.204 20.1357 113.423 19.5139C113.626 18.9233 113.94 18.3768 114.347 17.9035C114.762 17.414 115.28 17.0226 115.865 16.7577C116.449 16.4929 117.085 16.361 117.726 16.3717C118.43 16.3605 119.126 16.5225 119.753 16.8434C120.335 17.1453 120.843 17.5721 121.24 18.0933C121.645 18.6308 121.938 19.2438 122.102 19.8962C122.281 20.5759 122.328 21.2837 122.24 21.9811L115.209 21.9757ZM120.132 20.5848C120.106 20.2556 120.034 19.9316 119.918 19.6224C119.81 19.3237 119.648 19.0478 119.438 18.809C119.227 18.5832 118.975 18.3993 118.696 18.2668C118.393 18.1228 118.061 18.0505 117.726 18.0553C117.38 18.0508 117.038 18.1163 116.718 18.2478C116.424 18.3725 116.159 18.5571 115.94 18.7901C115.719 19.0275 115.543 19.3031 115.42 19.6034C115.289 19.9202 115.218 20.2584 115.209 20.6011L120.132 20.5848Z" fill="white"/>
<path d="M123.852 16.6442H125.832V18.4959H125.87C125.939 18.2215 126.061 17.9634 126.231 17.7368C126.416 17.4832 126.633 17.2553 126.878 17.059C127.133 16.8546 127.417 16.6892 127.721 16.5683C128.021 16.4473 128.341 16.3847 128.664 16.3839C128.834 16.3801 129.004 16.3864 129.173 16.4029L129.46 16.4408V18.4769C129.31 18.4534 129.159 18.4317 129.005 18.4118C128.855 18.3935 128.704 18.3845 128.553 18.3847C128.205 18.3826 127.862 18.4547 127.545 18.5962C127.231 18.743 126.953 18.9579 126.732 19.2252C126.488 19.5302 126.304 19.8789 126.19 20.2527C126.048 20.7079 125.979 21.1829 125.987 21.6598V26.2173H123.876L123.852 16.6442Z" fill="white"/>
<path d="M130.361 16.6398H132.361V17.971H132.415C132.571 17.7418 132.745 17.5252 132.935 17.323C133.117 17.1289 133.325 16.961 133.553 16.8242C133.8 16.6811 134.065 16.5717 134.342 16.4989C134.674 16.4153 135.015 16.3752 135.358 16.3796C135.923 16.3749 136.482 16.5089 136.983 16.77C137.477 17.0221 137.857 17.451 138.048 17.971C138.378 17.5026 138.799 17.106 139.287 16.8052C139.82 16.5011 140.426 16.3501 141.04 16.3687C142.051 16.3687 142.838 16.6154 143.4 17.1089C143.961 17.6023 144.24 18.4319 144.24 19.5896V26.2021H142.132V20.6198C142.132 20.2375 142.132 19.8878 142.094 19.5733C142.078 19.2909 142.006 19.0144 141.882 18.76C141.762 18.531 141.572 18.346 141.34 18.2313C141.039 18.0951 140.709 18.032 140.379 18.0469C139.663 18.0469 139.143 18.2692 138.823 18.7139C138.469 19.2807 138.301 19.9444 138.344 20.6117V26.2238H136.233V20.064C136.269 19.5366 136.143 19.0106 135.873 18.5566C135.631 18.215 135.19 18.0469 134.55 18.0469C134.279 18.0463 134.01 18.1027 133.762 18.2123C133.508 18.3243 133.281 18.4888 133.095 18.6949C132.894 18.9228 132.738 19.1868 132.635 19.473C132.511 19.8106 132.451 20.1682 132.458 20.5276V26.2211H130.348L130.361 16.6398Z" fill="white"/>
<path d="M146.521 12.9922H148.632V14.993H146.521V12.9922ZM146.521 16.6414H148.632V26.2145H146.521V16.6414Z" fill="white"/>
<path d="M150.922 16.6433H152.919V18.0504L152.957 18.0856C153.264 17.5695 153.696 17.1396 154.214 16.8357C154.738 16.5332 155.333 16.3768 155.937 16.383C156.983 16.383 157.812 16.6541 158.417 17.1963C159.021 17.7386 159.322 18.5519 159.322 19.6364V26.2109H157.214V20.1922C157.189 19.4385 157.027 18.8935 156.731 18.5655C156.436 18.2374 155.973 18.0558 155.344 18.0558C155.013 18.0508 154.685 18.1165 154.382 18.2483C154.104 18.3745 153.858 18.5595 153.659 18.7905C153.457 19.0315 153.301 19.3071 153.198 19.6038C153.085 19.9186 153.028 20.2508 153.03 20.5853V26.2326H150.922V16.6433Z" fill="white"/>
<path d="M169.558 24.0852C169.543 24.276 169.578 24.4673 169.658 24.641C169.704 24.7014 169.765 24.7485 169.835 24.7776C169.905 24.8066 169.981 24.8166 170.056 24.8064H170.278C170.379 24.8053 170.478 24.7935 170.576 24.7712V26.2325C170.5 26.2569 170.406 26.2867 170.289 26.3165C170.173 26.3463 170.051 26.3762 169.929 26.4006C169.806 26.4251 169.682 26.4432 169.558 26.4548C169.453 26.4668 169.348 26.4731 169.243 26.4738C168.865 26.49 168.49 26.4009 168.159 26.2162C168.008 26.1128 167.88 25.9784 167.784 25.8218C167.688 25.6652 167.627 25.4901 167.604 25.308C167.168 25.7237 166.638 26.0287 166.059 26.1972C165.486 26.3738 164.89 26.4652 164.29 26.4683C163.871 26.4698 163.454 26.4104 163.052 26.2921C162.678 26.1852 162.326 26.0116 162.014 25.7797C161.709 25.5501 161.462 25.252 161.293 24.9094C161.106 24.5265 161.014 24.1046 161.022 23.6786C161 23.1768 161.111 22.6782 161.345 22.2335C161.55 21.8762 161.843 21.5767 162.196 21.3632C162.563 21.1484 162.963 20.9955 163.38 20.9105C163.819 20.8183 164.26 20.7478 164.705 20.6963C165.087 20.6231 165.45 20.5716 165.788 20.539C166.098 20.5158 166.405 20.4631 166.704 20.3818C166.94 20.3242 167.156 20.2065 167.333 20.0402C167.416 19.9457 167.479 19.8357 167.518 19.7165C167.558 19.5973 167.573 19.4713 167.563 19.3461C167.573 19.1084 167.505 18.8741 167.368 18.6792C167.246 18.5053 167.082 18.3647 166.891 18.2698C166.689 18.1742 166.474 18.1119 166.252 18.0854C166.031 18.0547 165.808 18.0392 165.585 18.0394C165.073 18.0182 164.566 18.1463 164.125 18.4081C163.934 18.5346 163.775 18.7049 163.662 18.9047C163.55 19.1046 163.486 19.3284 163.477 19.5576H161.366C161.382 19.0158 161.535 18.4869 161.811 18.0204C162.07 17.6231 162.418 17.2909 162.827 17.0498C163.243 16.7961 163.702 16.6206 164.182 16.532C164.693 16.4314 165.213 16.3814 165.734 16.3828C166.201 16.3821 166.666 16.4321 167.122 16.532C167.557 16.621 167.974 16.7832 168.354 17.0118C168.71 17.2269 169.011 17.5221 169.232 17.874C169.464 18.2625 169.58 18.7094 169.566 19.1618L169.558 24.0852ZM167.447 21.4202C167.089 21.6417 166.682 21.772 166.263 21.7997C165.794 21.8431 165.325 21.9082 164.856 21.9922C164.637 22.0292 164.421 22.0818 164.209 22.1495C164.011 22.2113 163.824 22.3027 163.653 22.4206C163.49 22.5408 163.36 22.7003 163.274 22.8842C163.176 23.1021 163.129 23.3394 163.136 23.5782C163.129 23.7934 163.202 24.0036 163.339 24.1693C163.474 24.3288 163.641 24.4581 163.829 24.5488C164.029 24.6433 164.24 24.709 164.458 24.744C164.663 24.779 164.871 24.7971 165.079 24.7983C165.334 24.7963 165.589 24.7654 165.837 24.7061C166.11 24.6456 166.37 24.5392 166.607 24.3916C166.843 24.2462 167.048 24.0543 167.208 23.8277C167.374 23.5785 167.457 23.2836 167.447 22.9845V21.4202Z" fill="white"/>
<path d="M171.889 12.9922H173.999V26.2145H171.889V12.9922Z" fill="white"/>
</svg>
