<svg width="32" height="32" viewBox="0 0 32 32" fill="none" xmlns="http://www.w3.org/2000/svg">
<g clip-path="url(#clip0_286_460)">
<path d="M31.1041 11.6048L21.3157 10.1825L16.9381 1.31252C16.5552 0.536641 15.4451 0.536266 15.0619 1.31252L10.6844 10.1825L0.896001 11.6048C0.0399383 11.7292 -0.303874 12.7847 0.316251 13.3891L7.39919 20.2933L5.72706 30.0422C5.65969 30.4347 5.821 30.8313 6.14325 31.0654C6.46538 31.2994 6.89238 31.3303 7.24488 31.145L16 26.5423C25.5316 31.5532 24.8769 31.2652 25.2418 31.2652C25.8866 31.2652 26.383 30.684 26.2729 30.0422L24.6009 20.2933L31.6839 13.3891C32.3033 12.7851 31.9609 11.7293 31.1041 11.6048Z" fill="#F7AC16"/>
<path d="M16.0001 0.730469C15.6011 0.730469 15.2378 0.957281 15.0619 1.31359L10.6844 10.1835L0.896001 11.6058C0.0399383 11.7303 -0.303874 12.7858 0.316251 13.3902L7.39919 20.2944L5.72706 30.0433C5.65969 30.4358 5.821 30.8323 6.14325 31.0665C6.46538 31.3005 6.89238 31.3313 7.24488 31.146L16 26.5433H16.0001V0.730469Z" fill="#F2D422"/>
<path d="M0.896001 11.606C0.0399383 11.7304 -0.303874 12.7859 0.316251 13.3903L7.39919 20.2945L5.72706 30.0434C5.65969 30.4359 5.821 30.8325 6.14325 31.0666C6.46538 31.3006 6.89238 31.3315 7.24488 31.1462L16 26.5435C25.5316 31.5544 24.8769 31.2664 25.2418 31.2664C25.4587 31.2664 25.6746 31.199 25.8568 31.0666L10.6844 10.1836L0.896001 11.606Z" fill="#F7AC16"/>
<path d="M11.1599 19.0888C3.57275 11.6932 3.89888 12.0895 3.79706 11.706C3.75563 11.5519 3.74713 11.3727 3.79219 11.1836L0.896001 11.6044C0.0399383 11.7288 -0.303874 12.7843 0.316251 13.3887L7.39919 20.293L5.72706 30.0419C5.65969 30.4344 5.821 30.831 6.14325 31.0651C6.46538 31.2991 6.89238 31.33 7.24488 31.1447L9.81906 29.7913C9.55425 29.5528 9.42663 29.1938 9.48775 28.8377L11.1599 19.0888Z" fill="#F48B19"/>
<path d="M0.316302 13.3888L7.39924 20.293L5.72711 30.0419C5.65974 30.4344 5.82105 30.831 6.1433 31.0651C6.46543 31.2991 6.89243 31.33 7.24493 31.1447L16.0001 26.542C25.5317 31.5529 24.877 31.2649 25.2419 31.2649C25.8866 31.2649 26.3831 30.6837 26.273 30.0419L24.6009 20.293L0.0514896 12.3164C-0.0708229 12.7548 0.0516146 13.1309 0.316302 13.3888Z" fill="#F2D422"/>
<path d="M0.316302 13.3888L7.39924 20.293L5.72711 30.0419C5.65974 30.4344 5.82105 30.831 6.1433 31.0651C6.46543 31.2991 6.89243 31.33 7.24493 31.1447L9.81911 29.7913C9.5543 29.5528 9.42668 29.1938 9.4878 28.8377L11.1599 19.0888L6.29255 14.3443L0.0514896 12.3164C-0.0708229 12.7548 0.0516146 13.1309 0.316302 13.3888Z" fill="#EFB616"/>
<path d="M5.72703 30.0418C5.65965 30.4343 5.82096 30.8309 6.14321 31.065C6.46534 31.299 6.89234 31.3299 7.24484 31.1446L16 26.5419C25.5316 31.5528 24.8769 31.2648 25.2418 31.2648C25.8865 31.2648 26.383 30.6836 26.2729 30.0418L24.6008 20.293L31.6838 13.3887C31.9689 13.1108 32.0715 12.695 31.9485 12.3164L7.39915 20.293L5.72703 30.0418Z" fill="#F7AC16"/>
<path d="M5.72703 30.0445C5.65965 30.437 5.82096 30.8336 6.14321 31.0677C6.46534 31.3017 6.89234 31.3326 7.24484 31.1473L9.81903 29.7939C9.55421 29.5554 9.42659 29.1964 9.48771 28.8403L11.1598 19.0914L11.1462 19.0781L7.39915 20.2956L5.72703 30.0445Z" fill="#F48B19"/>
<path d="M7.24494 31.1461L16 26.5434C25.5316 31.5543 24.8769 31.2663 25.2418 31.2663C25.8866 31.2663 26.383 30.6851 26.2729 30.0433L24.6009 20.2945L31.6839 13.3902C32.3032 12.7863 31.9608 11.7305 31.1041 11.6059L21.3156 10.1836L6.14325 31.0665C6.46537 31.3005 6.89237 31.3314 7.24494 31.1461Z" fill="#F2D422"/>
<path d="M31.9487 12.3164L16.0001 17.4984L6.14331 31.0651C6.46544 31.2991 6.89244 31.33 7.24494 31.1447L16.0001 26.542C25.5317 31.5529 24.877 31.2649 25.2419 31.2649C25.8866 31.2649 26.3831 30.6837 26.273 30.0419L24.6009 20.293L31.6839 13.3888C31.9691 13.1108 32.0716 12.6951 31.9487 12.3164Z" fill="#F7AC16"/>
<path d="M24.6009 20.2944L16 17.4998L6.14325 31.0664C6.46537 31.3004 6.89237 31.3313 7.24487 31.146L16 26.5433C25.5316 31.5543 24.8769 31.2663 25.2418 31.2663C25.8866 31.2663 26.383 30.685 26.2729 30.0433L24.6009 20.2944Z" fill="#F2D422"/>
<path d="M6.14325 31.0664C6.46537 31.3004 6.89237 31.3313 7.24487 31.146L16 26.5433C25.5316 31.5543 24.8769 31.2663 25.2418 31.2663C25.4587 31.2663 25.6746 31.1988 25.8568 31.0664L16 17.4998L6.14325 31.0664Z" fill="#F7AC16"/>
<path d="M16.0001 17.4999L16 17.4998L6.14325 31.0664C6.46537 31.3004 6.89237 31.3313 7.24487 31.146L16 26.5433H16.0001V17.4999Z" fill="#F2D422"/>
<path d="M10.0212 25.7305L6.14331 31.068C6.46544 31.302 6.89244 31.3328 7.24494 31.1475L9.81912 29.7942C9.55431 29.5557 9.42669 29.1967 9.48781 28.8406L10.0212 25.7305Z" fill="#EFB616"/>
</g>
<defs>
<clipPath id="clip0_286_460">
<rect width="32" height="32" fill="white"/>
</clipPath>
</defs>
</svg>
