<svg width="80" height="80" viewBox="0 0 80 80" fill="none" xmlns="http://www.w3.org/2000/svg">
<rect width="80" height="80" rx="24" fill="#DBF0F0"/>
<path d="M42.1506 64.1369C42.1502 64.3254 42.1772 64.5129 42.2307 64.6937H13.2449C12.9155 64.693 12.5998 64.562 12.3666 64.3294C12.1334 64.0968 12.0016 63.7814 12 63.452V20.1637C12.0016 19.8344 12.1334 19.519 12.3666 19.2863C12.5998 19.0537 12.9155 18.9228 13.2449 18.922H15.6612V58.485C15.6624 59.2333 15.9602 59.9505 16.4893 60.4796C17.0184 61.0087 17.7356 61.3065 18.4839 61.3077H42.1506V64.1369ZM44.9573 41.235C43.9108 41.5967 42.5667 42.1952 42.2307 43.3344L42.1506 48.8711V59.7268H18.4839C18.1548 59.7259 17.8395 59.5948 17.6068 59.3621C17.3742 59.1294 17.2431 58.8141 17.2422 58.485V15.1968C17.2436 14.8679 17.3748 14.5529 17.6074 14.3203C17.8399 14.0877 18.155 13.9565 18.4839 13.9551H49.5245C49.8534 13.9564 50.1685 14.0877 50.401 14.3203C50.6336 14.5528 50.7649 14.8679 50.7662 15.1968V40.4029H50.715C48.8394 40.4029 46.7367 40.6141 44.9573 41.235ZM30.0437 18.9225C30.0437 19.1321 30.127 19.3331 30.2752 19.4814C30.4235 19.6296 30.6245 19.7129 30.8342 19.7129H45.5234C45.7331 19.7129 45.9341 19.6296 46.0824 19.4814C46.2306 19.3331 46.3139 19.1321 46.3139 18.9225C46.3139 18.7128 46.2306 18.5118 46.0824 18.3635C45.9341 18.2153 45.7331 18.132 45.5234 18.132H30.8344C30.6248 18.1319 30.4237 18.2151 30.2755 18.3633C30.1272 18.5114 30.0438 18.7124 30.0437 18.922V18.9225ZM30.0437 24.8976C30.0437 25.0014 30.0641 25.1042 30.1039 25.2001C30.1436 25.296 30.2018 25.3831 30.2752 25.4565C30.3486 25.5299 30.4358 25.5882 30.5317 25.6279C30.6276 25.6676 30.7304 25.6881 30.8342 25.6881H45.5234C45.628 25.6893 45.7318 25.6698 45.8288 25.6306C45.9258 25.5914 46.0141 25.5334 46.0885 25.4598C46.1628 25.3863 46.2219 25.2988 46.2622 25.2022C46.3025 25.1057 46.3233 25.0022 46.3233 24.8976C46.3233 24.793 46.3025 24.6894 46.2622 24.5929C46.2219 24.4964 46.1628 24.4088 46.0885 24.3353C46.0141 24.2617 45.9258 24.2037 45.8288 24.1645C45.7318 24.1254 45.628 24.1058 45.5234 24.107H30.8344C30.6248 24.107 30.4237 24.1902 30.2754 24.3384C30.1272 24.4866 30.0438 24.6876 30.0437 24.8972V24.8976ZM30.0437 30.8695C30.0437 31.0791 30.127 31.2802 30.2752 31.4284C30.4235 31.5767 30.6245 31.6599 30.8342 31.6599H45.5234C45.628 31.6612 45.7318 31.6416 45.8288 31.6025C45.9258 31.5633 46.0141 31.5052 46.0885 31.4317C46.1628 31.3582 46.2219 31.2706 46.2622 31.1741C46.3025 31.0776 46.3233 30.974 46.3233 30.8694C46.3233 30.7648 46.3025 30.6613 46.2622 30.5647C46.2219 30.4682 46.1628 30.3807 46.0885 30.3071C46.0141 30.2336 45.9258 30.1756 45.8288 30.1364C45.7318 30.0972 45.628 30.0777 45.5234 30.0789H30.8344C30.6248 30.0789 30.4237 30.1621 30.2754 30.3103C30.1272 30.4584 30.0438 30.6594 30.0437 30.869V30.8695ZM20.4137 18.922C20.4137 19.0258 20.4341 19.1286 20.4739 19.2245C20.5136 19.3204 20.5718 19.4076 20.6452 19.481C20.7186 19.5544 20.8058 19.6126 20.9017 19.6523C20.9976 19.692 21.1004 19.7125 21.2042 19.7125H26.6897C26.8994 19.7125 27.1004 19.6292 27.2487 19.481C27.3969 19.3327 27.4802 19.1317 27.4802 18.922C27.4802 18.7124 27.3969 18.5113 27.2487 18.3631C27.1004 18.2148 26.8994 18.1316 26.6897 18.1316H21.2042C20.9946 18.1316 20.7935 18.2148 20.6453 18.3631C20.497 18.5113 20.4137 18.7124 20.4137 18.922ZM20.4137 24.8972C20.4137 25.1068 20.497 25.3079 20.6453 25.4561C20.7935 25.6043 20.9946 25.6876 21.2042 25.6876H26.6897C26.8978 25.6852 27.0965 25.6008 27.2427 25.4528C27.389 25.3048 27.471 25.1052 27.471 24.8971C27.471 24.6891 27.389 24.4894 27.2427 24.3414C27.0965 24.1934 26.8978 24.1091 26.6897 24.1066H21.2042C20.9946 24.1066 20.7935 24.1899 20.6452 24.3382C20.497 24.4864 20.4137 24.6875 20.4137 24.8972ZM20.4137 30.869C20.4137 31.0787 20.497 31.2798 20.6453 31.428C20.7935 31.5762 20.9946 31.6595 21.2042 31.6595H26.6897C26.8978 31.6571 27.0965 31.5727 27.2427 31.4247C27.389 31.2767 27.471 31.0771 27.471 30.869C27.471 30.6609 27.389 30.4613 27.2427 30.3133C27.0965 30.1653 26.8978 30.0809 26.6897 30.0785H21.2042C20.9946 30.0785 20.7935 30.1618 20.6452 30.31C20.497 30.4583 20.4137 30.6594 20.4137 30.869ZM20.4137 36.8409C20.4137 37.0506 20.497 37.2516 20.6453 37.3999C20.7935 37.5481 20.9946 37.6314 21.2042 37.6314H26.6897C26.8994 37.6314 27.1004 37.5481 27.2487 37.3999C27.3969 37.2516 27.4802 37.0506 27.4802 36.8409C27.4802 36.6313 27.3969 36.4302 27.2487 36.282C27.1004 36.1337 26.8994 36.0505 26.6897 36.0505H21.2042C21.1004 36.0505 20.9976 36.0709 20.9017 36.1106C20.8058 36.1503 20.7186 36.2085 20.6452 36.2819C20.5718 36.3553 20.5136 36.4425 20.4739 36.5384C20.4341 36.6343 20.4137 36.7371 20.4137 36.8409ZM20.4137 42.816C20.4137 42.9198 20.4341 43.0226 20.4739 43.1185C20.5136 43.2144 20.5718 43.3015 20.6452 43.3749C20.7186 43.4483 20.8058 43.5066 20.9017 43.5463C20.9976 43.586 21.1004 43.6064 21.2042 43.6064H26.6897C26.8994 43.6064 27.1004 43.5231 27.2487 43.3749C27.3969 43.2267 27.4802 43.0256 27.4802 42.816C27.4802 42.6063 27.3969 42.4053 27.2487 42.257C27.1004 42.1088 26.8994 42.0255 26.6897 42.0255H21.2042C20.9946 42.0255 20.7935 42.1088 20.6453 42.257C20.497 42.4053 20.4137 42.6063 20.4137 42.816ZM36.867 54.7597C36.8669 54.5501 36.7836 54.349 36.6354 54.2008C36.4871 54.0525 36.286 53.9693 36.0764 53.9693H21.2042C21.0996 53.968 20.9958 53.9876 20.8989 54.0267C20.8019 54.0659 20.7136 54.124 20.6392 54.1975C20.5648 54.271 20.5058 54.3586 20.4654 54.4551C20.4251 54.5516 20.4044 54.6552 20.4044 54.7598C20.4044 54.8644 20.4251 54.9679 20.4654 55.0645C20.5058 55.161 20.5648 55.2485 20.6392 55.3221C20.7136 55.3956 20.8019 55.4536 20.8989 55.4928C20.9958 55.532 21.0996 55.5515 21.2042 55.5503H36.0764C36.2861 55.5503 36.4871 55.467 36.6354 55.3187C36.7837 55.1705 36.867 54.9694 36.867 54.7597ZM36.867 48.7878C36.8669 48.5782 36.7836 48.3771 36.6354 48.2289C36.4871 48.0807 36.286 47.9974 36.0764 47.9974H21.2042C21.0996 47.9962 20.9958 48.0157 20.8989 48.0549C20.8019 48.094 20.7136 48.1521 20.6392 48.2256C20.5648 48.2991 20.5058 48.3867 20.4654 48.4832C20.4251 48.5797 20.4044 48.6833 20.4044 48.7879C20.4044 48.8925 20.4251 48.9961 20.4654 49.0926C20.5058 49.1891 20.5648 49.2767 20.6392 49.3502C20.7136 49.4237 20.8019 49.4818 20.8989 49.5209C20.9958 49.5601 21.0996 49.5796 21.2042 49.5784H36.0764C36.2861 49.5784 36.4871 49.4951 36.6354 49.3469C36.7837 49.1986 36.867 48.9975 36.867 48.7878ZM36.867 42.816C36.8669 42.6063 36.7836 42.4053 36.6354 42.257C36.4871 42.1088 36.286 42.0255 36.0764 42.0255H30.8344C30.6247 42.0255 30.4237 42.1088 30.2754 42.257C30.1272 42.4053 30.0439 42.6063 30.0439 42.816C30.0439 43.0256 30.1272 43.2267 30.2754 43.3749C30.4237 43.5231 30.6247 43.6064 30.8344 43.6064H36.0766C36.2862 43.6064 36.4873 43.5231 36.6355 43.3749C36.7837 43.2266 36.867 43.0256 36.867 42.816ZM45.5239 37.6316C45.7335 37.6316 45.9346 37.5483 46.0828 37.4001C46.231 37.2518 46.3143 37.0508 46.3143 36.8411C46.3143 36.6315 46.231 36.4304 46.0828 36.2822C45.9346 36.134 45.7335 36.0507 45.5239 36.0507H30.8344C30.6247 36.0507 30.4237 36.134 30.2754 36.2822C30.1272 36.4304 30.0439 36.6315 30.0439 36.8411C30.0439 37.0508 30.1272 37.2518 30.2754 37.4001C30.4237 37.5483 30.6247 37.6316 30.8344 37.6316H45.5239ZM55.2017 38.3293C55.2751 38.4031 55.3624 38.4616 55.4585 38.5016C55.5546 38.5415 55.6577 38.5621 55.7618 38.5621C55.8658 38.5621 55.9689 38.5415 56.065 38.5016C56.1611 38.4616 56.2484 38.4031 56.3218 38.3293L67.2064 27.4448C67.3545 27.2967 67.4377 27.0958 67.4377 26.8863C67.4377 26.6768 67.3545 26.4759 67.2064 26.3278C67.133 26.2545 67.046 26.1963 66.9501 26.1566C66.8543 26.1169 66.7516 26.0964 66.6479 26.0964C66.4384 26.0964 66.2375 26.1797 66.0893 26.3278L55.2017 37.2122C55.0542 37.3606 54.9713 37.5614 54.9713 37.7707C54.9713 37.9799 55.0542 38.1807 55.2017 38.3291V38.3293ZM57.0004 31.0325C57.5131 31.0325 58.0142 30.8804 58.4405 30.5956C58.8668 30.3108 59.199 29.9059 59.3952 29.4323C59.5914 28.9586 59.6428 28.4374 59.5428 27.9346C59.4427 27.4317 59.1959 26.9698 58.8333 26.6073C58.4708 26.2448 58.0089 25.9979 57.5061 25.8979C57.0033 25.7979 56.482 25.8492 56.0084 26.0454C55.5347 26.2416 55.1299 26.5738 54.8451 27.0001C54.5602 27.4264 54.4082 27.9276 54.4082 28.4403C54.4097 29.1273 54.6834 29.7857 55.1692 30.2714C55.655 30.7572 56.3134 31.0307 57.0004 31.0322V31.0325ZM65.4077 33.6246C64.8954 33.6249 64.3947 33.7771 63.9689 34.0619C63.5431 34.3466 63.2112 34.7513 63.0153 35.2246C62.8194 35.698 62.7682 36.2188 62.8682 36.7212C62.9682 37.2236 63.2149 37.6851 63.5772 38.0474C63.9394 38.4096 64.4009 38.6563 64.9033 38.7563C65.4058 38.8563 65.9266 38.8051 66.3999 38.6092C66.8733 38.4133 67.2779 38.0815 67.5627 37.6556C67.8475 37.2298 67.9996 36.7291 67.9999 36.2168C67.9991 35.5296 67.7258 34.8707 67.2399 34.3847C66.7539 33.8987 66.0951 33.6253 65.4078 33.6245L65.4077 33.6246ZM55.957 42.7264C54.6321 42.2655 52.779 41.984 50.7148 41.984C48.6506 41.984 46.7975 42.2655 45.4757 42.7264C44.3972 43.1008 43.7315 43.5168 43.7315 43.8913C43.7315 44.2626 44.3972 44.6818 45.4757 45.053C46.7974 45.5139 48.6505 45.7987 50.7148 45.7987C52.7792 45.7987 54.6321 45.5144 55.957 45.053C57.0323 44.6818 57.698 44.2626 57.698 43.8913C57.698 43.5168 57.0323 43.1008 55.957 42.7264ZM50.7148 52.359C48.4874 52.359 46.4519 52.039 44.9638 51.5238C44.5378 51.3791 44.1255 51.1971 43.7317 50.9797V53.8537C43.7317 54.2249 44.3973 54.6412 45.4759 55.0153C46.7975 55.4762 48.6506 55.761 50.7149 55.761C52.7793 55.761 54.6322 55.4767 55.9572 55.0153C57.0324 54.6409 57.6981 54.2249 57.6981 53.8537V50.9802C57.3051 51.197 56.8939 51.379 56.4691 51.5242C54.9777 52.0395 52.9422 52.359 50.7148 52.359ZM50.7148 57.3575C48.4874 57.3575 46.4519 57.0375 44.9638 56.5222C44.5378 56.3776 44.1255 56.1955 43.7317 55.9782V58.852C43.7317 59.2233 44.3973 59.6425 45.4759 60.0138C46.7975 60.4747 48.6506 60.7595 50.7149 60.7595C52.7793 60.7595 54.6322 60.4751 55.9572 60.0138C57.0324 59.6425 57.6981 59.2233 57.6981 58.852V55.9794C57.3051 56.1962 56.8939 56.3782 56.4691 56.5234C54.9777 57.0384 52.9422 57.3585 50.7148 57.3585V57.3575ZM50.7148 62.3404C48.4874 62.3404 46.4519 62.0204 44.9638 61.5019C44.5367 61.3601 44.1242 61.1779 43.7317 60.9579V64.1359C43.7317 64.5071 44.3973 64.9263 45.4759 65.2976C46.7975 65.7585 48.6506 66.0433 50.7149 66.0433C52.7793 66.0433 54.6322 65.7589 55.9572 65.2976C57.0324 64.9263 57.6981 64.5071 57.6981 64.1359V60.9589C57.3064 61.1783 56.8949 61.3605 56.4691 61.5029C54.9777 62.0213 52.9422 62.3414 50.7148 62.3414V62.3404ZM57.6313 46.0355C57.612 46.0452 57.596 46.0548 57.5801 46.0644L57.5736 46.0676H57.5704C57.5512 46.0772 57.532 46.0895 57.5128 46.0995H57.5096L57.5032 46.1028C57.484 46.1124 57.4649 46.1219 57.4485 46.1316L57.442 46.1347L57.4389 46.138H57.4357L57.378 46.1668L57.3652 46.1731C57.3477 46.183 57.3294 46.1916 57.3106 46.1988L57.3041 46.202L57.2913 46.2083L57.2366 46.2339H57.2335L57.2303 46.2372L57.227 46.2404C57.2051 46.2475 57.1838 46.256 57.163 46.266L57.1597 46.2692H57.1566C57.1348 46.2811 57.1124 46.2918 57.0894 46.3012H57.0862L57.083 46.3044L57.0158 46.3331H57.0126L56.9454 46.362L56.939 46.3652H56.9326C56.9133 46.3748 56.891 46.3844 56.8686 46.394H56.8621L56.859 46.3972C56.8334 46.4067 56.8109 46.4164 56.7853 46.426H56.7822C56.7085 46.4547 56.6317 46.4835 56.5517 46.5124H56.5485C56.523 46.522 56.4939 46.5317 56.4685 46.5412C54.9772 47.0597 52.9417 47.3798 50.7143 47.3798C48.4868 47.3798 46.4514 47.0597 44.9632 46.5412C44.9345 46.5317 44.9085 46.522 44.88 46.5124H44.8768C44.7969 46.4836 44.7231 46.4548 44.6464 46.426H44.6432C44.6213 46.4164 44.5952 46.4067 44.5728 46.3972L44.5664 46.394H44.5632C44.5407 46.3844 44.5184 46.3748 44.496 46.3652H44.4895L44.4863 46.362L44.4192 46.3331H44.4159L44.3488 46.3044L44.3423 46.3012H44.3391C44.3161 46.2918 44.2937 46.2811 44.272 46.2692H44.2688L44.2655 46.266C44.2459 46.2561 44.2255 46.2475 44.2047 46.2404L44.1984 46.2372L44.1952 46.2339H44.1919C44.1759 46.2244 44.1567 46.218 44.1372 46.2083L44.1276 46.202L44.1211 46.1988L44.0636 46.1731L44.0508 46.1668L43.9932 46.138L43.99 46.1347L43.9835 46.1316L43.926 46.1028L43.9196 46.0995H43.9164C43.8971 46.09 43.878 46.0776 43.8587 46.0676H43.8556L43.8491 46.0644L43.8011 46.0355L43.782 46.0259C43.7659 46.0164 43.7467 46.0068 43.7308 45.9971V48.8711C43.7308 49.2455 44.3964 49.6615 45.475 50.036C46.7967 50.4937 48.6497 50.7785 50.714 50.7785C52.7784 50.7785 54.6313 50.4941 55.9563 50.036C57.0315 49.6615 57.6972 49.2455 57.6972 48.8711V45.9971C57.6812 46.0068 57.6621 46.0164 57.646 46.0259L57.6313 46.0355Z" fill="#008989"/>
</svg>
