<svg width="80" height="80" viewBox="0 0 80 80" fill="none" xmlns="http://www.w3.org/2000/svg">
<rect width="80" height="80" rx="24" fill="#B9E4E4"/>
<path d="M66.3871 16.4123L63.078 13.1032C62.7386 12.7638 62.2295 12.7638 61.8901 13.1032C61.5507 13.4426 61.5507 13.9517 61.8901 14.2911L63.5871 15.988L54.678 15.4789C54.3386 15.4789 54.084 15.6486 53.9144 15.9032L49.7568 23.2001C46.1083 18.8729 40.678 16.1577 34.5689 16.1577C23.5386 16.0729 14.6295 25.0668 14.6295 36.0123C14.6295 41.188 16.581 45.8547 19.8053 49.3335L13.6962 53.4911C13.3568 53.7456 13.2719 54.1698 13.3568 54.5092L16.4962 62.4001C16.6659 62.8244 17.175 63.0789 17.5992 62.9092C18.0234 62.7395 18.278 62.2304 18.1083 61.8062L15.2234 54.5941L20.9931 50.6062C24.5568 53.9153 29.3083 55.9517 34.484 55.9517C45.5144 55.8668 54.4234 46.9577 54.4234 36.0123C54.4234 31.7698 53.0659 27.8668 50.775 24.6426L55.0174 17.2608L63.8416 17.7698L61.8901 19.6365C61.5507 19.9759 61.5507 20.485 61.8901 20.8244C62.2295 21.1638 62.7386 21.1638 63.078 20.8244L66.3022 17.6001C66.4719 17.4305 66.5568 17.2608 66.5568 17.0062C66.6416 16.7517 66.5568 16.4971 66.3871 16.4123ZM34.5689 54.1698C24.5568 54.1698 16.3265 46.0244 16.3265 35.9274C16.3265 25.8305 24.5568 17.7698 34.5689 17.7698C44.581 17.7698 52.7265 26.0001 52.7265 36.0123C52.7265 46.0244 44.581 54.1698 34.5689 54.1698Z" fill="#008989"/>
<path d="M34.5687 20.7393C26.1687 20.7393 19.3809 27.5271 19.3809 35.9271C19.3809 44.3271 26.1687 51.1999 34.5687 51.1999C42.9687 51.1999 49.8415 44.3271 49.8415 35.9271C49.8415 27.5271 42.9687 20.7393 34.5687 20.7393ZM34.5687 34.6544C36.9445 34.6544 38.896 36.6059 38.896 38.9817C38.896 41.1029 37.3687 42.7999 35.4172 43.2241V44.412C35.4172 44.9211 35.0778 45.2605 34.5687 45.2605C34.0596 45.2605 33.7203 44.9211 33.7203 44.412V43.2241C31.7687 42.7999 30.2415 41.1029 30.2415 38.9817C30.2415 38.4726 30.5809 38.1332 31.0899 38.1332C31.599 38.1332 31.9384 38.4726 31.9384 38.9817C31.9384 40.4241 33.1263 41.612 34.5687 41.612C36.0112 41.612 37.199 40.4241 37.199 38.9817C37.199 37.5393 36.0112 36.3514 34.5687 36.3514C32.193 36.3514 30.2415 34.3999 30.2415 32.0241C30.2415 29.9029 31.7687 28.2059 33.7203 27.7817V26.4241C33.7203 25.915 34.0596 25.5756 34.5687 25.5756C35.0778 25.5756 35.4172 25.915 35.4172 26.4241V27.8665C37.3687 28.2908 38.896 29.9877 38.896 32.109C38.896 32.618 38.5566 32.9574 38.0475 32.9574C37.5384 32.9574 37.199 32.618 37.199 32.109C37.199 30.6665 36.0112 29.4787 34.5687 29.4787C33.1263 29.4787 31.9384 30.6665 31.9384 32.109C31.9384 33.5514 33.1263 34.6544 34.5687 34.6544Z" fill="#008989"/>
<path d="M52.4728 48.0605C50.9455 50.3515 48.9092 52.303 46.7031 53.9151C49.4183 58.5818 53.5759 64.0121 54.9334 65.3696C56.1213 66.5575 57.7334 67.2363 59.4304 67.2363C61.1274 67.2363 62.7395 66.5575 63.9274 65.3696C66.388 62.8242 66.388 58.8363 63.9274 56.2909C62.5698 54.8484 57.1395 50.6909 52.4728 48.0605Z" fill="#008989"/>
</svg>
