<svg width="80" height="80" viewBox="0 0 80 80" fill="none" xmlns="http://www.w3.org/2000/svg">
<rect width="80" height="80" rx="24" fill="#DBF0F0"/>
<path d="M55.3125 24.25V16.7075L63.2925 24.6875H55.75C55.505 24.6875 55.3125 24.495 55.3125 24.25ZM55.75 27.3125C54.07 27.3125 52.6875 25.93 52.6875 24.25V15.9375H31.25C28.59 15.9375 26.4375 18.09 26.4375 20.75V28.4325C28.485 27.715 30.69 27.3125 33 27.3125C43.85 27.3125 52.6875 36.15 52.6875 47C52.6875 54.28 48.6975 60.6675 42.8 64.0625H59.25C61.91 64.0625 64.0625 61.91 64.0625 59.25V27.3125H55.75ZM50.0625 47C50.0625 56.415 42.415 64.0625 33 64.0625C23.585 64.0625 15.9375 56.415 15.9375 47C15.9375 37.585 23.585 29.9375 33 29.9375C42.415 29.9375 50.0625 37.585 50.0625 47ZM40.805 41.5925C39.3175 40.105 36.7275 40.105 35.24 41.5925L29.675 47.1575C29.1675 47.665 29.1675 48.505 29.675 49.0125C30.1825 49.52 31.0225 49.52 31.53 49.0125L37.095 43.4475C37.6025 42.94 38.4425 42.94 38.95 43.4475C39.4575 43.955 39.4575 44.795 38.95 45.3025L33.385 50.8675C31.8975 52.355 29.3075 52.355 27.82 50.8675C27.085 50.1325 26.665 49.135 26.665 48.085C26.665 47.035 27.0675 46.0375 27.82 45.3025L31.53 41.5925C32.0375 41.085 32.0375 40.245 31.53 39.7375C31.0225 39.23 30.1825 39.23 29.675 39.7375L25.965 43.4475C24.7225 44.69 24.04 46.335 24.04 48.085C24.04 49.835 24.7225 51.48 25.965 52.7225C27.2075 53.965 28.8525 54.6475 30.6025 54.6475C32.3525 54.6475 33.9975 53.965 35.24 52.7225L40.805 47.1575C42.345 45.6175 42.345 43.1325 40.805 41.5925Z" fill="#008989"/>
</svg>
